<?xml version="1.0" standalone="no"?>
<!DOCTYPE svg PUBLIC "-//W3C//DTD SVG 1.1//EN" "http://www.w3.org/Graphics/SVG/1.1/DTD/svg11.dtd" >
<svg>
<metadata>
Created by FontForge 20090622 at Fri Feb 28 07:03:57 2020
 By deploy user
Copyright &#194;&#169; 2014&#208;&#160;2015 by Neil Summerour. All rights reserved. |DCNT
</metadata>
<defs>
<font id="Grava-Normal" horiz-adv-x="586" >
  <font-face 
    font-family="Grava Normal"
    font-weight="350"
    font-stretch="normal"
    units-per-em="1000"
    panose-1="2 11 0 0 0 0 0 0 0 0"
    ascent="761"
    descent="-239"
    x-height="480"
    cap-height="720"
    bbox="-190 -266 1171 970"
    underline-thickness="50"
    underline-position="-50"
    unicode-range="U+000D-U+3009"
  />
<missing-glyph horiz-adv-x="530" 
 />
    <glyph glyph-name="C_O.liga" unicode="CO" horiz-adv-x="734" 
d="M428 -18q-164 0 -270.5 109.5t-106.5 268.5q-3 156 106.5 268t270.5 110q135 0 243 -78v-87q-113 93 -243 93q-129 0 -215 -89q-84 -89 -84 -217q0 -130 84 -218q85 -88 215 -88q132 0 243 93v-87q-107 -78 -243 -78zM428 568q89 0 147 -61q59 -61 59 -147
q0 -87 -59 -148q-59 -60 -147 -60q-90 0 -148 60q-59 61 -59 148t59 148q58 60 148 60zM567 360q0 61 -39.5 102t-99.5 41q-59 0 -100 -41q-40 -40 -40 -102t40 -102q41 -41 100 -41q60 0 99 41q40 40 40 102z" />
    <glyph glyph-name="G_A.liga" unicode="GA" horiz-adv-x="1006" 
d="M540 347l322 378h39v-725h-80v564l-186 -217h160q6 -154 -96 -260t-264 -105q-170 0 -276 103t-106 273q-3 161 103 271t278 109q136 0 230 -66v-86q-94 75 -226 75q-142 0 -222 -86t-80 -217q0 -100 47 -172.5t130 -103.5l168 196h-141l-3 69h203zM711 278h-135
l-185 -216q30 -2 47 -2q117 0 185 61q70 61 88 157z" />
    <glyph glyph-name="L_L.liga" unicode="LL" horiz-adv-x="711" 
d="M105 720h80v-647h506v-73h-586v720zM337 720h80v-460h274v-73h-354v533z" />
    <glyph glyph-name="N_T.liga" unicode="NT" horiz-adv-x="1132" 
d="M628 169l-1 478h-206v73h286v-725h-45l-475 556h-2v-551h-80v725h45l476 -556h2zM890 0h-80v720h301v-73h-221v-647z" />
    <glyph glyph-name="f_f.liga" unicode="ff" horiz-adv-x="773" 
d="M662 686q-35 0 -52 -18t-17 -64v-124h158v-67h-158l1 -413h-78v413h-309l1 -413h-79v413h-95v67h95v121q0 64 34.5 104.5t101.5 40.5q43 0 100 -18v-72q-49 20 -88 20q-38 0 -54.5 -19t-16.5 -63l1 -114h309v131q0 66 34 105.5t99 39.5q53 0 102 -28v-76q-47 34 -89 34z
" />
    <glyph glyph-name="f_f_i.liga" unicode="ffi" horiz-adv-x="1035" 
d="M593 480h364l-1 -480h-76v413h-287l1 -413h-78v413h-309l1 -413h-79v413h-95v67h95v121q0 66 35 105.5t101 39.5q43 0 100 -18v-72q-49 20 -88 20q-38 0 -54.5 -18.5t-16.5 -63.5l1 -114h309v131q0 66 34 105.5t99 39.5q53 0 102 -28v-76q-47 34 -89 34
q-36 0 -52.5 -18.5t-16.5 -63.5v-124zM918 697q26 0 41 -15.5t15 -39.5t-15 -39t-41 -15t-40.5 15.5t-14.5 38.5q0 25 14.5 40t40.5 15z" />
    <glyph glyph-name="f_f_l.liga" unicode="ffl" horiz-adv-x="1014" 
d="M516 480v131q0 66 34 105.5t99 39.5q53 0 102 -28v-76q-47 34 -89 34q-36 0 -52.5 -18.5t-16.5 -63.5v-124h158v-67h-158l1 -413h-78v413h-309l1 -413h-79v413h-95v67h95v121q0 66 35 105.5t101 39.5q43 0 100 -18v-72q-49 20 -88 20q-38 0 -54.5 -19t-16.5 -63l1 -114
h309zM855 0v730h77v-730h-77z" />
    <glyph glyph-name="f_i.liga" unicode="fi" horiz-adv-x="648" 
d="M207 480h363v-480h-77v413h-286l1 -413h-79v413h-95v67h95v131q0 66 34 105.5t99 39.5q53 0 103 -28v-76q-47 34 -89 34q-36 0 -53 -18.5t-17 -63.5zM532 697q25 0 40 -15.5t15 -39.5t-15 -39t-40 -15q-26 0 -41 15t-15 39t15 39.5t41 15.5z" />
    <glyph glyph-name="f_l.liga" unicode="fl" horiz-adv-x="628" 
d="M129 480v131q0 66 34 105.5t99 39.5q53 0 103 -28v-76q-47 34 -89 34q-36 0 -53 -18.5t-17 -63.5l1 -124h158v-67h-158l1 -413h-79v413h-95v67h95zM468 0v730h78v-730h-78z" />
    <glyph glyph-name=".notdef" horiz-adv-x="530" 
 />
    <glyph glyph-name=".null" horiz-adv-x="0" 
 />
    <glyph glyph-name="nonmarkingreturn" horiz-adv-x="333" 
 />
    <glyph glyph-name="CR.001" unicode="&#xd;" horiz-adv-x="521" 
 />
    <glyph glyph-name="space" unicode=" " horiz-adv-x="301" 
 />
    <glyph glyph-name="exclam" unicode="!" horiz-adv-x="260" 
d="M88 720h83l-6 -522h-71zM130 109q26 0 43 -17.5t17 -43.5q0 -24 -17.5 -42.5t-42.5 -18.5q-26 0 -43 18t-17 43q0 26 17 43.5t43 17.5z" />
    <glyph glyph-name="quotedbl" unicode="&#x22;" horiz-adv-x="358" 
d="M131 470h-60l-10 268h80zM287 470h-59l-11 268h80z" />
    <glyph glyph-name="numbersign" unicode="#" horiz-adv-x="659" 
d="M617 505v-56h-129l-31 -173h122v-56h-131l-39 -220h-59l39 220h-168l-39 -220h-59l39 220h-120v56h130l30 173h-122v56h132l38 215h59l-38 -215h168l38 215h59l-38 -215h119zM231 276h168l30 173h-168z" />
    <glyph glyph-name="dollar" unicode="$" horiz-adv-x="513" 
d="M465 218q0 -84 -58 -129t-142 -49l-5 -78h-52l5 79q-88 8 -147 41l1 76q72 -45 150 -53l16 243q-60 20 -97 41q-38 21 -56.5 50.5t-21.5 77.5q0 78 57 118.5t139 43.5l6 79h51l-5 -81q64 -7 121 -39l-1 -73q-61 40 -124 48l-14 -214q60 -21 99 -44q29 -17 42 -33
q36 -44 36 -104zM130 520q0 -37 25 -58.5t82 -43.5l13 197q-54 -4 -87 -29t-33 -66zM284 329l-15 -224q56 5 90.5 34t34.5 76q0 40 -26.5 66t-83.5 48z" />
    <glyph glyph-name="percent" unicode="%" horiz-adv-x="815" 
d="M422 351l-230 -371l-56 38l258 352l229 370l56 -38zM344 423q-52 -52 -127 -52q-74 0 -126 52t-52 126q0 75 52 127t126 52q75 0 127 -52t52 -127q0 -74 -52 -126zM218 433q49 0 83 34t34 83q0 47 -35 82q-34 34 -83 34q-48 0 -82 -34t-34 -82q0 -50 34 -84
q35 -33 83 -33zM598 -8q-74 0 -126.5 52.5t-52.5 125.5q0 74 52.5 126.5t126.5 52.5t126 -52.5t52 -125.5q0 -75 -52 -127t-126 -52zM598 54q49 0 83 34t34 83q0 47 -35 82q-34 34 -83 34q-48 0 -82 -34t-34 -82q0 -49 34 -83t83 -34z" />
    <glyph glyph-name="ampersand" unicode="&#x26;" horiz-adv-x="625" 
d="M498 176l146 -176h-93l-101 123l-31 -32q-37 -42 -79 -72q-52 -37 -123 -37q-77 0 -123 45.5t-46 115.5q0 83 70 163l91 108l-28 34q-68 80 -68 149q0 59 41 100q43 41 102 41q60 0 101 -41t41 -100q0 -64 -71 -147l-28 -34l156 -189l145 155v-96zM232 496l23 -28l24 28
q48 56 48 102q0 29 -20.5 52t-50.5 23q-31 0 -51.5 -22t-20.5 -53q0 -44 48 -102zM371 137l36 38l-154 186l-80 -95q-51 -62 -51 -116q0 -46 28 -74t72 -28q38 0 70 20t79 69z" />
    <glyph glyph-name="quotesingle" unicode="'" horiz-adv-x="202" 
d="M131 470h-60l-10 268h80z" />
    <glyph glyph-name="parenleft" unicode="(" horiz-adv-x="274" 
d="M265 -160h-65q-74 106 -111 237q-38 132 -38 250t38 250q37 131 111 237h65q-141 -239 -141 -487t141 -487z" />
    <glyph glyph-name="parenright" unicode=")" horiz-adv-x="274" 
d="M74 -160h-65q141 239 141 487t-141 487h65q74 -106 111 -237q38 -132 38 -250t-38 -250q-37 -131 -111 -237z" />
    <glyph glyph-name="asterisk" unicode="*" horiz-adv-x="489" 
d="M217 730h58l-9 -178l165 65l17 -55l-169 -47l110 -135l-48 -35l-95 146l-96 -146l-47 35l111 136l-170 46l18 55l164 -65z" />
    <glyph glyph-name="plus" unicode="+" horiz-adv-x="635" 
d="M287 588h63v-230h229v-63h-229v-229h-63v229h-230v63h230v230z" />
    <glyph glyph-name="comma" unicode="," horiz-adv-x="226" 
d="M88 111h79l-84 -269h-59z" />
    <glyph glyph-name="hyphen" unicode="-" horiz-adv-x="453" 
d="M78 288h297v-68h-297v68z" />
    <glyph glyph-name="period" unicode="." horiz-adv-x="225" 
d="M113 109q25 0 42 -17.5t17 -43.5q0 -24 -17.5 -42.5t-41.5 -18.5q-26 0 -43 18t-17 43q0 26 17 43.5t43 17.5z" />
    <glyph glyph-name="slash" unicode="/" horiz-adv-x="440" 
d="M94 -50h-69l318 800h70z" />
    <glyph glyph-name="zero" unicode="0" horiz-adv-x="606" 
d="M441 33q-59 -51 -138 -51q-77 0 -137 50.5t-91 136.5q-30 85 -30 191q0 107 30.5 192t88.5 135q60 51 139 51q78 0 138 -50.5t90 -137.5q30 -86 30 -190q0 -225 -120 -327zM303 58q82 0 128 86t46 216q0 178 -79 260q-40 42 -95 42t-95 -42q-79 -82 -79 -260
q0 -130 46 -216t128 -86z" />
    <glyph glyph-name="one" unicode="1" horiz-adv-x="304" 
d="M38 700l184 25h6v-725h-79v642l-111 -15v73z" />
    <glyph glyph-name="two" unicode="2" horiz-adv-x="524" 
d="M348 313l-187 -240h314v-73h-460v6l270 347q48 61 69.5 103.5t21.5 84.5q0 56 -34.5 89t-95.5 33q-112 0 -191 -103v100q84 78 197 78q95 0 151 -53t56 -137q0 -53 -26 -106t-85 -129z" />
    <glyph glyph-name="three" unicode="3" horiz-adv-x="522" 
d="M332 381q71 -25 108.5 -74.5t37.5 -114.5q0 -94 -66 -153q-64 -57 -170 -57q-117 0 -196 71v103q84 -99 192 -99q71 0 114.5 39t43.5 102t-44 103.5t-124 40.5h-53v69h53q64 0 102.5 35.5t38.5 95.5q0 57 -34.5 89.5t-96.5 32.5q-104 0 -178 -98v99q80 73 185 73
q93 0 149 -53q55 -52 55 -135q0 -115 -117 -169z" />
    <glyph glyph-name="four" unicode="4" horiz-adv-x="575" 
d="M448 249h84v-74h-84v-175h-80v175h-358v6l260 539h88l-229 -471h239v302l74 49h6v-351z" />
    <glyph glyph-name="five" unicode="5" horiz-adv-x="551" 
d="M259 444q109 0 177 -60t68 -163q0 -111 -73 -175t-186 -64q-121 0 -201 72v102q86 -99 199 -99q80 0 129 44.5t49 121.5q0 81 -53.5 118.5t-124.5 37.5q-89 0 -160 -45l47 386h337v-73h-274l-26 -215q47 12 92 12z" />
    <glyph glyph-name="six" unicode="6" horiz-adv-x="568" 
d="M298 483q99 0 173 -71q73 -70 73 -178q2 -104 -72 -178.5t-184 -73.5q-111 -1 -181 72.5t-68 179.5q0 59 32 128l172 358h89l-123 -254q45 17 89 17zM288 54q80 0 129 51q50 53 50 129q0 75 -50 128q-49 52 -126 52q-76 0 -125.5 -52t-49.5 -128q0 -79 46 -129
q46 -51 126 -51z" />
    <glyph glyph-name="seven" unicode="7" horiz-adv-x="498" 
d="M33 647v73h460v-6l-344 -714h-89l315 647h-342z" />
    <glyph glyph-name="eight" unicode="8" horiz-adv-x="582" 
d="M395 382q70 -27 106.5 -77t36.5 -116q0 -95 -68 -151t-180 -56q-111 0 -179 56q-67 55 -67 151q0 67 36.5 117t105.5 76q-117 52 -117 168q0 82 60 135q61 53 162 53t162 -53q60 -53 60 -135q0 -116 -118 -168zM149 545q0 -59 39.5 -95.5t102.5 -36.5t102 36t39 96
q0 55 -37.5 88t-103.5 33t-104 -33t-38 -88zM170 93q44 -38 120 -38q77 0 121 38t44 101q0 64 -43 106q-44 42 -121 42t-121 -42q-43 -42 -43 -106t43 -101z" />
    <glyph glyph-name="nine" unicode="9" horiz-adv-x="568" 
d="M280 738q113 0 180 -73q69 -72 69 -179q0 -59 -32 -128l-172 -358h-89l123 254q-45 -17 -90 -17q-99 0 -172 70t-73 179q0 105 71 179q72 73 185 73zM276 306q77 0 126.5 52t49.5 128q0 77 -47 129q-46 51 -125 51q-80 0 -129 -52q-50 -52 -50 -128t49 -128t126 -52z" />
    <glyph glyph-name="colon" unicode=":" horiz-adv-x="265" 
d="M113 492q25 0 42 -17.5t17 -43.5q0 -25 -17 -43t-42 -18q-26 0 -43 18t-17 43q0 26 17 43.5t43 17.5zM113 109q25 0 42 -17.5t17 -43.5q0 -24 -17.5 -42.5t-41.5 -18.5q-26 0 -43 18t-17 43q0 26 17 43.5t43 17.5z" />
    <glyph glyph-name="semicolon" unicode=";" horiz-adv-x="265" 
d="M113 492q25 0 42 -17.5t17 -43.5q0 -25 -17 -43t-42 -18q-26 0 -43 18t-17 43q0 26 17 43.5t43 17.5zM88 111h79l-84 -269h-59z" />
    <glyph glyph-name="less" unicode="&#x3c;" horiz-adv-x="639" 
d="M51 345l495 255v-70l-431 -220l431 -220v-69l-495 255v69z" />
    <glyph glyph-name="equal" unicode="=" horiz-adv-x="635" 
d="M57 468h522v-62h-522v62zM57 248h522v-63h-522v63z" />
    <glyph glyph-name="greater" unicode="&#x3e;" horiz-adv-x="639" 
d="M93 530v70l495 -255v-69l-495 -255v69l431 220z" />
    <glyph glyph-name="question" unicode="?" horiz-adv-x="495" 
d="M267 198h-73q0 96 62 172q8 10 37.5 44.5t40.5 50.5t23.5 43t12.5 51q0 49 -37 77t-99 28q-100 0 -188 -87v90q86 71 195 71q94 0 152 -46q60 -45 60 -124q0 -77 -66 -150q-4 -4 -19.5 -21t-21 -24t-19.5 -23.5t-20 -26.5l-15.5 -27t-13.5 -31t-7.5 -31.5t-3.5 -35.5z
M231 -13q-26 0 -43 18t-17 43q0 26 17 43.5t43 17.5q25 0 42 -17.5t17 -43.5q0 -25 -17 -43t-42 -18z" />
    <glyph glyph-name="at" unicode="@" horiz-adv-x="842" 
d="M448 580q157 0 249 -93t92 -222q0 -115 -64.5 -190.5t-143.5 -75.5q-87 0 -75 104h-3q-27 -47 -67 -75.5t-86 -28.5q-59 0 -93 41.5t-34 113.5q0 101 60 178q62 77 145 77q39 0 67.5 -22.5t41.5 -61.5h3l23 71h38l-43 -269q-12 -79 30 -79q50 0 99 58t49 154
q1 108 -75 188.5t-209 80.5q-146 3 -249 -101t-100 -247q0 -135 88 -223t228 -88q111 0 193 55l1 -58q-89 -48 -195 -48q-164 0 -267 102t-103 256q0 106 49 197.5t142 148.5t209 57zM428 354q-63 0 -105 -62q-41 -62 -41 -137q0 -44 19.5 -73t57.5 -29q63 -1 110.5 65
t44.5 128q0 47 -22.5 77.5t-63.5 30.5z" />
    <glyph glyph-name="A" unicode="A" horiz-adv-x="663" 
d="M648 0h-86l-77 196h-307l-76 -196h-87l294 725h45zM332 586l-125 -318h249z" />
    <glyph glyph-name="B" unicode="B" horiz-adv-x="688" 
d="M470 376v-2q78 -9 122.5 -56t44.5 -120q0 -93 -57 -145.5t-156 -52.5h-319v720h281q106 0 161.5 -46.5t55.5 -133.5q0 -63 -36.5 -106.5t-96.5 -57.5zM386 648h-201v-243h201q58 0 98 38q40 39 40 91q0 114 -138 114zM185 72h237q67 0 101 34t34 96q0 54 -41 95
q-40 40 -102 40h-229v-265z" />
    <glyph glyph-name="C" unicode="C" horiz-adv-x="701" 
d="M427 -18q-165 -2 -271 109t-103 269q0 160 103 269t271 109q117 0 212 -59v-86q-92 68 -210 68q-135 0 -214 -86.5t-79 -214.5t79 -214.5t214 -86.5q118 0 210 68v-86q-95 -59 -212 -59z" />
    <glyph glyph-name="D" unicode="D" horiz-adv-x="761" 
d="M309 0h-204v720h204q199 0 297 -98.5t98 -261.5q0 -164 -97.5 -262t-297.5 -98zM185 648v-576h124q158 0 236 75t78 213t-78 213t-236 75h-124z" />
    <glyph glyph-name="E" unicode="E" horiz-adv-x="629" 
d="M105 720h452v-73h-372v-241h343v-73h-343v-260h372v-73h-452v720z" />
    <glyph glyph-name="F" unicode="F" horiz-adv-x="589" 
d="M185 0h-80v720h442v-73h-362v-241h333l-2 -73h-331v-333z" />
    <glyph glyph-name="G" unicode="G" horiz-adv-x="813" 
d="M427 391h334q22 -189 -76.5 -299t-269.5 -110q-163 0 -263 106q-99 106 -99 270q-3 161 103 271t278 109q142 0 240 -71v-88q-95 82 -236 82q-142 0 -222 -86t-80 -217q0 -133 77 -216q77 -81 205 -81q125 0 195.5 68.5t70.5 188.5h-253z" />
    <glyph glyph-name="H" unicode="H" horiz-adv-x="789" 
d="M604 397v323h80v-720h-80v323h-419v-323h-80v720h80v-323h419z" />
    <glyph glyph-name="I" unicode="I" horiz-adv-x="290" 
d="M105 720h80v-720h-80v720z" />
    <glyph glyph-name="J" unicode="J" horiz-adv-x="484" 
d="M203 -18q-97 0 -174 59v86q86 -68 169 -68q59 0 83.5 34.5t24.5 109.5v517h80v-521q0 -28 -1 -39q0 -39 -16 -82q-39 -96 -166 -96z" />
    <glyph glyph-name="K" unicode="K" horiz-adv-x="602" 
d="M591 0h-98l-293 327h-14v-327h-81v720h81v-327h13l289 327h97l-321 -360z" />
    <glyph glyph-name="L" unicode="L" horiz-adv-x="568" 
d="M105 720h80v-647h364v-73h-444v720z" />
    <glyph glyph-name="M" unicode="M" horiz-adv-x="935" 
d="M468 197l318 528h44v-725h-79v518h-2l-278 -453h-6l-279 453h-2v-518h-79v725h44z" />
    <glyph glyph-name="N" unicode="N" horiz-adv-x="812" 
d="M627 720h80v-725h-45l-475 566h-2v-561h-80v725h45l476 -564h2z" />
    <glyph glyph-name="O" unicode="O" horiz-adv-x="856" 
d="M428 -18q-162 0 -268.5 109.5t-106.5 268.5q0 104 47.5 190t133.5 137t193 51q109 0 194 -51q87 -51 134.5 -136.5t47.5 -190.5q4 -156 -106 -268t-269 -110zM219 145q83 -87 209 -87t208 87q83 89 83 215t-83 214q-82 88 -208 88q-127 0 -209 -88q-83 -88 -83 -214
t83 -215z" />
    <glyph glyph-name="P" unicode="P" horiz-adv-x="620" 
d="M105 720h261q104 0 163 -59t59 -158q0 -100 -58.5 -159t-163.5 -59h-181v-285h-80v720zM185 357h175q72 0 109.5 37.5t37.5 108.5q0 70 -38 108t-109 37h-175v-291z" />
    <glyph glyph-name="Q" unicode="Q" horiz-adv-x="856" 
d="M803 360q0 -160 -108 -270l108 -90h-100l-58 48q-95 -66 -217 -66q-162 0 -268.5 109.5t-106.5 268.5q-3 155 106 267.5t268 110.5q160 2 269.5 -110t106.5 -268zM428 58q86 0 153 43l-153 127l46 47l159 -133q86 88 86 218q0 126 -83 214q-82 88 -208 88
q-127 0 -209 -88q-83 -88 -83 -214t83 -215q83 -87 209 -87z" />
    <glyph glyph-name="R" unicode="R" horiz-adv-x="640" 
d="M609 0h-101l-255 318h-68v-318h-80v720h267q109 0 167 -53.5t58 -148.5t-59.5 -147.5t-174.5 -52.5h-14zM363 648h-178v-259h178q153 0 153 129q0 130 -153 130z" />
    <glyph glyph-name="S" unicode="S" horiz-adv-x="560" 
d="M268 -18q-114 0 -200 51l1 87q94 -64 199 -64q73 0 119 35.5t46 97.5q0 54 -39 88q-28 24 -57 36q-21 10 -70 30l-8 3l-42 15q-49 21 -78 39q-42 32 -57 58q-22 42 -22 89q0 94 67.5 142.5t163.5 48.5q98 0 180 -49v-84q-87 60 -178 60q-66 0 -108 -30t-42 -85
q0 -38 26 -70q11 -10 33 -24l36 -18l44 -18l16 -6q2 0 4.5 -1.5t6.5 -3t7 -2.5l71 -30q25 -11 64 -40q63 -52 63 -144q0 -105 -71.5 -158t-174.5 -53z" />
    <glyph glyph-name="T" unicode="T" horiz-adv-x="563" 
d="M20 720h522v-73h-221v-647h-80v647h-221v73z" />
    <glyph glyph-name="U" unicode="U" horiz-adv-x="760" 
d="M93 267v453h80v-451q0 -98 55 -154.5t152 -56.5t152 56.5t55 154.5v451h80v-453q0 -133 -80 -210q-79 -75 -207 -75t-207 75q-80 77 -80 210z" />
    <glyph glyph-name="V" unicode="V" horiz-adv-x="663" 
d="M332 138l230 582h86l-294 -725h-45l-294 725h87z" />
    <glyph glyph-name="W" unicode="W" horiz-adv-x="944" 
d="M668 172l170 548h86l-233 -725h-44l-175 553l-176 -553h-44l-232 725h86l169 -548l175 553h44z" />
    <glyph glyph-name="X" unicode="X" horiz-adv-x="615" 
d="M351 367l250 -367h-94l-200 312l-200 -312h-94l249 366l-237 354h93l189 -300l189 300h93z" />
    <glyph glyph-name="Y" unicode="Y" horiz-adv-x="640" 
d="M320 342l219 378h86l-265 -450v-270h-80v270l-265 450h86z" />
    <glyph glyph-name="Z" unicode="Z" horiz-adv-x="596" 
d="M47 720h515v-6l-410 -641h400l-1 -73h-525v6l406 641h-386z" />
    <glyph glyph-name="bracketleft" unicode="[" horiz-adv-x="308" 
d="M283 -161h-184v976h184v-51h-116v-874h116v-51z" />
    <glyph glyph-name="backslash" unicode="\" horiz-adv-x="440" 
d="M416 -50h-70l-319 800h70z" />
    <glyph glyph-name="bracketright" unicode="]" horiz-adv-x="308" 
d="M209 -161h-184v51h116v874h-116v51h184v-976z" />
    <glyph glyph-name="asciicircum" unicode="^" horiz-adv-x="632" 
d="M284 750h65l216 -450h-76l-172 381l-173 -381h-76z" />
    <glyph glyph-name="underscore" unicode="_" horiz-adv-x="400" 
d="M0 -95h400v-60h-400v60z" />
    <glyph glyph-name="grave" unicode="`" horiz-adv-x="249" 
d="M191 545h-59l-151 175h92z" />
    <glyph glyph-name="a" unicode="a" horiz-adv-x="613" 
d="M280 -12q-100 0 -168 72q-66 74 -66 180q0 107 66 179q67 73 168 73q55 0 103 -25t80 -65h3l14 78h51v-480h-51l-14 78h-3q-32 -40 -80 -65t-103 -25zM288 59q71 0 120 49t49 123v18q0 73 -49 122q-50 50 -120 50q-73 0 -119 -52t-46 -129t46 -129t119 -52z" />
    <glyph glyph-name="b" unicode="b" horiz-adv-x="613" 
d="M333 -12q-114 0 -183 90h-3l-14 -78h-51v730h77v-247l-2 -76h3q26 36 73.5 60.5t101.5 24.5q102 0 166 -73q66 -74 66 -179q0 -107 -67 -180q-66 -72 -167 -72zM325 59q73 0 119 52t46 129t-46.5 129t-118.5 52q-71 0 -120.5 -49.5t-49.5 -122.5v-18q0 -73 49.5 -122.5
t120.5 -49.5z" />
    <glyph glyph-name="c" unicode="c" horiz-adv-x="493" 
d="M299 -12q-116 0 -185.5 72t-69.5 180t69 180t186 72q80 0 135 -37v-78q-62 44 -135 44q-83 0 -130.5 -52t-47.5 -129t47 -130q48 -51 131 -51q73 0 135 44v-78q-55 -37 -135 -37z" />
    <glyph glyph-name="d" unicode="d" horiz-adv-x="613" 
d="M280 -12q-100 0 -168 72q-66 74 -66 180q0 105 65 179q64 73 166 73q55 0 102.5 -24.5t73.5 -60.5h3l-2 76v247h77v-730h-51l-14 78h-3q-32 -40 -80 -65t-103 -25zM288 59q71 0 120 49t49 123v18q0 73 -49 122q-50 50 -120 50q-73 0 -119 -52t-46 -129t46 -129t119 -52z
" />
    <glyph glyph-name="e" unicode="e" horiz-adv-x="541" 
d="M280 492q106 0 166 -73q62 -73 45 -207h-365q5 -73 51 -114.5t126 -41.5q89 0 162 53v-73q-66 -48 -164 -48q-118 0 -186 68q-68 70 -68 183q0 111 63 182t170 71zM280 428q-67 0 -109 -43.5t-45 -112.5h295q-1 73 -39 114.5t-102 41.5z" />
    <glyph glyph-name="f" unicode="f" horiz-adv-x="386" 
d="M276 686q-36 0 -53 -18.5t-17 -63.5l1 -124h158v-67h-158l1 -413h-79v413h-95v67h95v131q0 66 34 105.5t99 39.5q53 0 103 -28v-76q-47 34 -89 34z" />
    <glyph glyph-name="g" unicode="g" horiz-adv-x="613" 
d="M278 -238q-48 0 -97.5 13.5t-80.5 39.5v77q79 -61 175 -61q86 0 132.5 45t46.5 126v16l1 55h-2q-28 -38 -73.5 -61.5t-99.5 -23.5q-100 -1 -168 73.5t-66 178.5q0 107 66 179q67 73 168 73q55 0 103 -25t80 -65h3l14 78h51v-474q0 -113 -67.5 -178.5t-185.5 -65.5z
M288 59q71 0 120 49t49 123v18q0 73 -49 122q-50 50 -120 50q-73 0 -119 -52t-46 -129t46 -129t119 -52z" />
    <glyph glyph-name="h" unicode="h" 
d="M159 0h-77v730h77v-247l-2 -87h2q71 96 176 96q85 0 130.5 -54t45.5 -145v-293h-77v291q0 131 -112 131q-67 0 -115 -52q-48 -51 -48 -131v-239z" />
    <glyph glyph-name="i" unicode="i" horiz-adv-x="235" 
d="M118 697q35 2 49.5 -26.5t0 -56.5t-49.5 -26q-26 0 -40.5 15t-14.5 39q0 25 14.5 40t40.5 15zM80 480h77l-1 -480h-76v480z" />
    <glyph glyph-name="j" unicode="j" horiz-adv-x="238" 
d="M120 588q-26 0 -40.5 15t-14.5 39t15 39.5t40 15.5q35 2 49.5 -26.5t0 -56.5t-49.5 -26zM38 -228q-39 0 -74 15v70q29 -16 56 -16q33 0 48 19.5t15 66.5v553h77v-564q0 -144 -122 -144z" />
    <glyph glyph-name="k" unicode="k" horiz-adv-x="481" 
d="M466 0h-92l-187 211h-26v-211h-79v730h79v-451h24l179 201h92l-208 -234z" />
    <glyph glyph-name="l" unicode="l" horiz-adv-x="241" 
d="M82 730h77v-730h-77v730z" />
    <glyph glyph-name="m" unicode="m" horiz-adv-x="920" 
d="M670 492q86 0 130 -57q45 -56 45 -142v-293h-77v291q0 131 -112 131q-62 0 -108 -52t-46 -131v-239h-77v291q0 131 -112 131q-62 0 -108 -52t-46 -131v-239h-77v480h51l18 -91h1q69 103 175 103q122 0 161 -111q72 111 182 111z" />
    <glyph glyph-name="n" unicode="n" 
d="M335 492q85 0 130.5 -54t45.5 -145v-293h-77v291q0 131 -112 131q-67 0 -115 -52q-48 -51 -48 -131v-239h-77v480h51l18 -91h1q69 103 183 103z" />
    <glyph glyph-name="o" unicode="o" 
d="M44 240q-2 103 71 178t178 74q109 0 179 -73q71 -74 71 -179t-71 -179q-70 -73 -179 -73t-179 73t-70 179zM293 60q75 0 123 52q49 52 49 128t-49 128q-48 52 -123 52t-124 -52q-48 -52 -48 -128t48 -128q49 -52 124 -52z" />
    <glyph glyph-name="p" unicode="p" horiz-adv-x="611" 
d="M159 -230h-77v710h51l14 -78h3q30 39 77 64.5t106 25.5q101 0 167 -73q67 -71 67 -179q0 -106 -67 -179q-66 -73 -167 -73q-55 0 -101 24t-72 61h-3l2 -76v-227zM325 59q73 0 119 52t46 129t-46 129t-119 52q-71 0 -120.5 -49.5t-49.5 -122.5v-18q0 -73 49.5 -122.5
t120.5 -49.5z" />
    <glyph glyph-name="q" unicode="q" horiz-adv-x="613" 
d="M531 -230h-77v227l2 76h-3q-28 -38 -73.5 -61.5t-99.5 -23.5q-101 0 -168 73q-66 73 -66 179q0 107 66 179q67 73 168 73q55 0 103 -25t80 -65h3l14 78h51v-710zM288 59q71 0 120 49t49 123v18q0 73 -49 122q-50 50 -120 50q-73 0 -119 -52t-46 -129t46 -129t119 -52z
" />
    <glyph glyph-name="r" unicode="r" horiz-adv-x="389" 
d="M159 0h-77v480h51l18 -91h1q58 103 151 103q33 0 59 -12v-79q-32 17 -64 17q-55 0 -97 -50t-42 -129v-239z" />
    <glyph glyph-name="s" unicode="s" horiz-adv-x="427" 
d="M198 -12q-77 0 -138 31v80q64 -44 141 -44q46 0 74 19.5t28 55.5q0 37 -31 55q-30 17 -68 30q-5 0 -8 3l-42 14q-20 9 -37 18q-31 16 -44.5 40t-16.5 65q0 65 45.5 101t119.5 36q67 0 121 -25v-74q-54 33 -118 33q-40 0 -64 -16.5t-24 -48.5q0 -25 17 -44q10 -8 23 -14
q8 -4 59 -23q54 -18 84 -34q32 -15 47 -40.5t19 -67.5q0 -75 -54 -112.5t-133 -37.5z" />
    <glyph glyph-name="t" unicode="t" horiz-adv-x="398" 
d="M354 480v-67h-157l-1 -271q0 -45 15 -65t48 -20q47 0 95 45v-75q-46 -39 -113 -39q-122 0 -122 143v282h-95v67h95l28 149h51l-1 -149h157z" />
    <glyph glyph-name="u" unicode="u" 
d="M252 -12q-89 0 -133 56q-44 58 -44 143v293h77v-291q0 -131 112 -131q66 0 114.5 52t48.5 131v239h77v-480h-51l-18 91h-1q-69 -103 -182 -103z" />
    <glyph glyph-name="v" unicode="v" horiz-adv-x="486" 
d="M243 120l142 360h83l-203 -485h-44l-203 485h83z" />
    <glyph glyph-name="w" unicode="w" horiz-adv-x="722" 
d="M502 139l116 341h83l-174 -485h-46l-120 351l-121 -351h-45l-174 485h83l117 -341l117 346h46z" />
    <glyph glyph-name="x" unicode="x" horiz-adv-x="464" 
d="M273 248l172 -248h-86l-127 193l-128 -193h-86l173 248l-166 232h86l121 -177l120 177h86z" />
    <glyph glyph-name="y" unicode="y" horiz-adv-x="484" 
d="M242 114l142 366h83l-185 -441l-107 -269h-83l114 260l-189 450h83z" />
    <glyph glyph-name="z" unicode="z" horiz-adv-x="454" 
d="M44 480h374v-6l-264 -406h258v-68h-380v6l264 407h-252v67z" />
    <glyph glyph-name="braceleft" unicode="{" horiz-adv-x="322" 
d="M295 -161h-41q-127 0 -127 127v195q0 66 -18 98q-22 41 -97 41v54q75 0 97 40q18 34 18 99v195q0 127 127 127h41v-55h-24q-43 0 -59.5 -22t-16.5 -79v-171q0 -93 -34 -126q-30 -27 -88 -34v-2q60 -7 88 -35q34 -30 34 -125v-171q0 -57 16.5 -79t59.5 -22h24v-55z" />
    <glyph glyph-name="bar" unicode="|" horiz-adv-x="255" 
d="M99 814h57v-882h-57v882z" />
    <glyph glyph-name="braceright" unicode="}" horiz-adv-x="322" 
d="M68 -161h-42v55h24q44 0 60 21.5t16 79.5v171q0 95 34 125q29 28 89 35v2q-58 7 -89 34q-34 33 -34 126v171q0 58 -16 79.5t-60 21.5h-24v55h42q126 0 126 -127v-195q0 -64 19 -99q22 -40 97 -40v-54q-75 0 -97 -41q-19 -34 -19 -98v-195q0 -127 -126 -127z" />
    <glyph glyph-name="asciitilde" unicode="~" horiz-adv-x="604" 
d="M207 388q33 0 69.5 -22.5t69.5 -45t57 -22.5q45 0 83 78l49 -28q-20 -52 -54.5 -85t-79.5 -33q-51 0 -105 44q-53 45 -91 45q-25 0 -43 -18.5t-40 -59.5l-49 28q19 46 53 82.5t81 36.5z" />
    <glyph glyph-name="uni00A0" unicode="&#xa0;" horiz-adv-x="311" 
 />
    <glyph glyph-name="exclamdown" unicode="&#xa1;" horiz-adv-x="265" 
d="M135 370q-25 0 -42 17.5t-17 43.5q0 25 17 43t42 18q26 0 43 -18t17 -43q0 -26 -17 -43.5t-43 -17.5zM177 -241h-83l6 522h71z" />
    <glyph glyph-name="cent" unicode="&#xa2;" horiz-adv-x="495" 
d="M419 575v-77q-45 33 -94 40l-55 -358q7 -1 21 -1q70 0 128 43v-77q-52 -37 -127 -37q-12 0 -32 2l-17 -110h-52l18 120q-75 25 -118 90t-43 150q0 106 64 177q65 72 172 75l16 108h52l-17 -112q49 -8 84 -33zM123 360q0 -58 25.5 -102t72.5 -64l52 346q-68 -7 -109 -57
t-41 -123z" />
    <glyph glyph-name="sterling" unicode="&#xa3;" horiz-adv-x="565" 
d="M203 338v-269h299v-69h-444v69h71v269h-72l9 54h63v157q0 83 51 136t137 53q103 0 179 -76v-96q-30 43 -75.5 73.5t-98.5 30.5q-56 0 -87.5 -34.5t-31.5 -91.5v-152h225l-9 -54h-216z" />
    <glyph glyph-name="currency" unicode="&#xa4;" horiz-adv-x="670" 
d="M487 552l72 72l38 -38l-72 -72q54 -68 54 -152q0 -86 -54 -153l72 -70l-38 -38l-71 71q-65 -53 -153 -53q-85 0 -153 53l-71 -71l-38 38l71 71q-52 65 -52 152q0 84 53 152l-72 72l38 38l71 -72q68 54 153 54t152 -54zM335 544q-74 0 -127.5 -53.5t-53.5 -128.5t53 -128
t128 -53q76 0 129 53t53 128q0 76 -53 129t-129 53z" />
    <glyph glyph-name="yen" unicode="&#xa5;" 
d="M512 304l-10 -54h-173v-88h184l-11 -54h-173v-108h-71v108h-184l10 54h174v88h-184l10 54h158l-201 416h77l175 -377l175 377h77l-201 -416h168z" />
    <glyph glyph-name="brokenbar" unicode="&#xa6;" horiz-adv-x="264" 
d="M104 814h56v-341h-56v341zM104 273h56v-341h-56v341z" />
    <glyph glyph-name="section" unicode="&#xa7;" horiz-adv-x="461" 
d="M255 72l4 -2q45 -15 77 -34q30 -17 43.5 -40.5t15.5 -61.5q0 -65 -46 -100.5t-120 -35.5q-66 0 -120 25v74q54 -33 117 -33q41 0 65 17t24 49q0 23 -18 43q-5 5 -23 15l-26 11l-32 12q-45 14 -87 36q-32 18 -46 42.5t-17 66.5q0 107 140 140l-5 2q-48 17 -77 34t-42 40
t-16 62q0 66 47.5 101t117.5 35q67 0 121 -25v-74q-54 33 -118 33q-40 0 -64 -16.5t-24 -49.5q0 -24 17 -43q5 -5 23 -15l25 -11l34 -12q51 -17 86 -37q64 -33 64 -108q0 -107 -140 -140zM138 171q0 -28 16.5 -46t50.5 -33q118 31 118 105q0 28 -16.5 46t-51.5 34
q-117 -33 -117 -106z" />
    <glyph glyph-name="dieresis" unicode="&#xa8;" horiz-adv-x="505" 
d="M156 694q24 0 41 -17t17 -40t-17 -40t-41 -17q-23 0 -39.5 17t-16.5 40t16.5 40t39.5 17zM347 694q24 0 41 -17t17 -40t-17 -40t-41 -17q-23 0 -39.5 17t-16.5 40t16.5 40t39.5 17z" />
    <glyph glyph-name="copyright" unicode="&#xa9;" horiz-adv-x="858" 
d="M619 32q-88 -50 -190 -50t-189.5 50.5t-138.5 137.5q-50 88 -50 190t50 190q51 88 138 137q87 51 190 51t190 -51q87 -50 137 -137q51 -87 51 -190q0 -102 -50.5 -189.5t-137.5 -138.5zM266 78q74 -43 163 -43t163.5 43t117.5 118q44 76 44 164q0 89 -43.5 163.5
t-118.5 117.5q-110 69 -246.5 32.5t-198.5 -150.5q-43 -73 -43 -163q0 -89 43 -163t119 -119zM447 123q-110 0 -176 68q-65 68 -65 169t65 169q66 68 176 68q74 0 127 -35v-72q-59 41 -127 41q-79 0 -124 -49q-45 -48 -45 -122t45 -123q45 -48 124 -48q68 0 127 41v-72
q-53 -35 -127 -35z" />
    <glyph glyph-name="ordfeminine" unicode="&#xaa;" horiz-adv-x="470" 
d="M208 376q-71 0 -118 50q-46 50 -46 126t46 125q46 51 118 51q77 0 126 -58h2l10 50h42v-336h-42l-10 51h-2q-48 -59 -126 -59zM216 434q47 0 79 32.5t32 79.5v12q0 47 -32 79.5t-79 32.5q-48 0 -78 -33.5t-30 -84.5t30 -84.5t78 -33.5z" />
    <glyph glyph-name="guillemotleft" unicode="&#xab;" horiz-adv-x="490" 
d="M257 28h-75l-146 212l146 212h75l-144 -212zM454 28h-76l-145 212l145 212h76l-145 -212z" />
    <glyph glyph-name="logicalnot" unicode="&#xac;" horiz-adv-x="628" 
d="M47 408h502v-271h-59v212h-443v59z" />
    <glyph glyph-name="registered" unicode="&#xae;" horiz-adv-x="858" 
d="M239 687q87 51 190 51t190 -51q87 -50 137 -137q51 -87 51 -190q0 -102 -50.5 -189.5t-137.5 -138.5q-88 -50 -190 -50t-189.5 50.5t-138.5 137.5q-50 88 -50 190t50 190q51 88 138 137zM266 78q74 -43 163 -43t163.5 43t117.5 118q44 76 44 164q0 89 -43.5 163.5
t-118.5 117.5q-110 69 -246.5 32.5t-198.5 -150.5q-43 -73 -43 -163q0 -89 43 -163t119 -119zM614 456q0 -59 -37.5 -95.5t-108.5 -37.5l153 -193h-82l-149 193h-36v-193h-67v460h182q68 0 106.5 -36.5t38.5 -97.5zM458 531h-104v-151h104q88 0 88 76q0 75 -88 75z" />
    <glyph glyph-name="overscore" unicode="&#xaf;" horiz-adv-x="472" 
d="M81 648h309v-63h-309v63z" />
    <glyph glyph-name="degree" unicode="&#xb0;" horiz-adv-x="396" 
d="M276 584q0 -33 -22.5 -56t-55.5 -23t-55.5 23t-22.5 56q0 32 22.5 54t55.5 22t55.5 -22t22.5 -54zM198 640q-24 0 -40.5 -16t-16.5 -40t16.5 -41.5t40.5 -17.5t40 17.5t16 41.5q0 23 -16.5 39.5t-39.5 16.5z" />
    <glyph glyph-name="plusminus" unicode="&#xb1;" horiz-adv-x="635" 
d="M287 588h63v-187h229v-64h-229v-186h-63v186h-230v64h230v187zM57 69h522v-63h-522v63z" />
    <glyph glyph-name="acute" unicode="&#xb4;" horiz-adv-x="249" 
d="M122 545h-59l118 175h91z" />
    <glyph glyph-name="paragraph" unicode="&#xb6;" horiz-adv-x="594" 
d="M285 480h269v-55h-80v-642h-62v642h-58v-400h-69q-103 0 -165 65t-62 162t62 162.5t165 65.5z" />
    <glyph glyph-name="middot" unicode="&#xb7;" horiz-adv-x="265" 
d="M113 417q25 0 42 -17.5t17 -43.5q0 -25 -17 -43t-42 -18q-26 0 -43 18t-17 43q0 26 17 43.5t43 17.5z" />
    <glyph glyph-name="cedilla" unicode="&#xb8;" horiz-adv-x="288" 
d="M164 -45q83 0 83 -69q0 -42 -28 -64.5t-75 -22.5q-39 0 -78 15v52q40 -20 73 -20q52 0 52 41q0 39 -58 39q-21 0 -49 -9l41 83h36l-25 -47q22 2 28 2z" />
    <glyph glyph-name="ordmasculine" unicode="&#xba;" horiz-adv-x="435" 
d="M217 376q-77 0 -126 51q-50 52 -50 125t50 125q49 51 126 51t127 -51q50 -52 50 -125q0 -74 -50.5 -125t-126.5 -51zM217 436q48 0 80.5 33.5t32.5 82.5t-31.5 82.5t-81.5 33.5q-48 0 -80 -33.5t-32 -82.5t32 -82.5t80 -33.5z" />
    <glyph glyph-name="guillemotright" unicode="&#xbb;" horiz-adv-x="490" 
d="M112 28h-76l145 212l-145 212h76l145 -212zM309 28h-76l144 212l-144 212h76l145 -212z" />
    <glyph glyph-name="onequarter" unicode="&#xbc;" horiz-adv-x="735" 
d="M312 370l230 370l55 -38l-257 -351l-229 -371l-56 38zM157 317h-63v343l-62 -8v57l121 15h4v-407zM649 152h44v-57h-44v-95h-62v95h-201v3l142 305h69l-119 -251h109v141l59 41h3v-182z" />
    <glyph glyph-name="onehalf" unicode="&#xbd;" horiz-adv-x="740" 
d="M312 370l230 370l55 -38l-257 -351l-229 -371l-56 38zM157 317h-63v343l-62 -8v57l121 15h4v-407zM624 170l-87 -113h156v-57h-270v3l149 195q46 59 46 97q0 27 -17.5 43.5t-47.5 16.5q-57 0 -106 -58v74q49 42 114 42q57 0 90.5 -30.5t33.5 -79.5q0 -56 -61 -133z" />
    <glyph glyph-name="threequarters" unicode="&#xbe;" horiz-adv-x="830" 
d="M406 370l230 370l56 -38l-258 -351l-229 -371l-56 38zM298 424q0 -52 -38.5 -84.5t-99.5 -32.5q-69 0 -116 38v75q52 -55 109 -55q53 -4 71 40q16 39 -10 71q-21 26 -62 24h-31v51h31q30 0 48 17t18 45q0 26 -17.5 42.5t-47.5 16.5q-28 0 -54.5 -15t-43.5 -36v73
q46 36 107 36q55 0 87.5 -30t32.5 -77q0 -61 -65 -93q81 -31 81 -106zM744 152h44v-57h-44v-95h-63v95h-201v3l142 305h69l-119 -251h109v141l60 41h3v-182z" />
    <glyph glyph-name="questiondown" unicode="&#xbf;" horiz-adv-x="528" 
d="M327 492q26 0 43 -18t17 -43q0 -26 -17 -43.5t-43 -17.5q-25 0 -42 17.5t-17 43.5q0 25 17 43t42 18zM291 281h73q0 -95 -62 -173l-30 -36l-32 -39t-25 -35t-20 -40t-6 -38q0 -49 37 -76.5t98 -27.5q100 0 189 86v-90q-86 -71 -196 -71q-93 0 -152.5 45.5t-59.5 124.5
q0 77 65 149q66 71 86 104q36 57 35 117z" />
    <glyph glyph-name="Agrave" unicode="&#xc0;" horiz-adv-x="663" 
d="M266 920l95 -135h-59l-128 135h92zM648 0h-86l-77 196h-307l-76 -196h-87l294 725h45zM332 586l-125 -318h249z" />
    <glyph glyph-name="Aacute" unicode="&#xc1;" horiz-adv-x="663" 
d="M398 920h91l-128 -135h-59zM648 0h-86l-77 196h-307l-76 -196h-87l294 725h45zM332 586l-125 -318h249z" />
    <glyph glyph-name="Acircumflex" unicode="&#xc2;" horiz-adv-x="663" 
d="M411 785l-79 98l-80 -98h-82l125 137h73l125 -137h-82zM648 0h-86l-77 196h-307l-76 -196h-87l294 725h45zM332 586l-125 -318h249z" />
    <glyph glyph-name="Atilde" unicode="&#xc3;" horiz-adv-x="663" 
d="M269 841q-42 0 -48 -59h-47q0 45 25 80q25 36 69 36q27 0 72 -29.5t56 -29.5q40 0 46 59h47q0 -50 -23 -83t-64 -33q-27 0 -73 29.5t-60 29.5zM648 0h-86l-77 196h-307l-76 -196h-87l294 725h45zM332 586l-125 -318h249z" />
    <glyph glyph-name="Adieresis" unicode="&#xc4;" horiz-adv-x="663" 
d="M236 792q-23 0 -40 17.5t-17 40.5t17 39.5t40 16.5t40 -16.5t17 -39.5q0 -24 -17 -41t-40 -17zM427 792q-24 0 -40.5 17t-16.5 41q0 23 16.5 39.5t40.5 16.5q23 0 40 -16.5t17 -39.5q0 -24 -17 -41t-40 -17zM648 0h-86l-77 196h-307l-76 -196h-87l294 725h45zM332 586
l-125 -318h249z" />
    <glyph glyph-name="Aring" unicode="&#xc5;" horiz-adv-x="663" 
d="M407 769q-31 -31 -75 -31q-45 0 -76 31t-31 75t31 75t76 31q44 0 75 -31t31 -75t-31 -75zM369 881q-15 16 -37.5 16t-37.5 -16q-15 -15 -15 -37t15 -38q15 -15 37.5 -15t37.5 15q16 16 16 38t-16 37zM648 0h-86l-77 196h-307l-76 -196h-87l294 725h45zM332 586l-125 -318
h249z" />
    <glyph glyph-name="AE" unicode="&#xc6;" horiz-adv-x="957" 
d="M539 333v-259l346 -1v-73h-426v195h-249l-118 -195h-87l454 720h418v-73h-338v-241h314v-73h-314zM459 605l-205 -338h205v338z" />
    <glyph glyph-name="Ccedilla" unicode="&#xc7;" horiz-adv-x="701" 
d="M429 661q-133 1 -214.5 -87t-78.5 -214q0 -128 79 -214.5t214 -86.5q118 0 210 68v-86q-95 -59 -212 -59h-1l-16 -29q22 2 28 2q38 0 61 -17.5t23 -51.5q0 -42 -28.5 -64.5t-75.5 -22.5q-38 0 -78 15v52q40 -20 73 -20q52 0 52 41q0 39 -58 39q-21 0 -49 -9l33 66
q-152 12 -246.5 120t-91.5 257q0 160 103 269t271 109q117 0 212 -59v-86q-92 68 -210 68z" />
    <glyph glyph-name="Egrave" unicode="&#xc8;" horiz-adv-x="629" 
d="M377 785h-59l-128 135h91zM105 720h452v-73h-372v-241h343v-73h-343v-260h372v-73h-452v720z" />
    <glyph glyph-name="Eacute" unicode="&#xc9;" horiz-adv-x="629" 
d="M377 785h-59l95 135h92zM105 720h452v-73h-372v-241h343v-73h-343v-260h372v-73h-452v720z" />
    <glyph glyph-name="Ecircumflex" unicode="&#xca;" horiz-adv-x="629" 
d="M384 922l125 -137h-82l-80 98l-80 -98h-81l125 137h73zM105 720h452v-73h-372v-241h343v-73h-343v-260h372v-73h-452v720z" />
    <glyph glyph-name="Edieresis" unicode="&#xcb;" horiz-adv-x="629" 
d="M251 906q24 0 41 -16.5t17 -39.5q0 -24 -17 -41t-41 -17q-23 0 -39.5 17.5t-16.5 40.5t16.5 39.5t39.5 16.5zM442 906q23 0 40.5 -16.5t17.5 -39.5q0 -24 -17 -41t-41 -17q-23 0 -39.5 17t-16.5 41q0 23 16.5 39.5t39.5 16.5zM105 720h452v-73h-372v-241h343v-73h-343
v-260h372v-73h-452v720z" />
    <glyph glyph-name="Igrave" unicode="&#xcc;" horiz-adv-x="290" 
d="M176 785h-59l-128 135h91zM106 720h80v-720h-80v720z" />
    <glyph glyph-name="Iacute" unicode="&#xcd;" horiz-adv-x="290" 
d="M175 785h-59l95 135h92zM105 720h80v-720h-80v720z" />
    <glyph glyph-name="Icircumflex" unicode="&#xce;" horiz-adv-x="290" 
d="M182 922l125 -137h-83l-79 98l-80 -98h-81l125 137h73zM105 720h80v-720h-80v720z" />
    <glyph glyph-name="Idieresis" unicode="&#xcf;" horiz-adv-x="290" 
d="M50 906q24 0 41 -16.5t17 -39.5q0 -24 -17 -41t-41 -17q-23 0 -39.5 17.5t-16.5 40.5t16.5 39.5t39.5 16.5zM241 906q24 0 41 -16.5t17 -39.5q0 -24 -17 -41t-41 -17q-23 0 -39.5 17t-16.5 41q0 23 16.5 39.5t39.5 16.5zM106 720h80v-720h-80v720z" />
    <glyph glyph-name="Eth" unicode="&#xd0;" horiz-adv-x="761" 
d="M105 720h204q199 0 297 -98.5t98 -261.5q0 -164 -97.5 -262t-297.5 -98h-204v326h-85v68h85v326zM185 72h124q158 0 236 75t78 213t-78 213t-236 75h-124v-254h209v-68h-209v-254z" />
    <glyph glyph-name="Ntilde" unicode="&#xd1;" horiz-adv-x="812" 
d="M521 898h48q0 -50 -23.5 -83t-64.5 -33q-26 0 -72.5 29.5t-59.5 29.5q-43 0 -49 -59h-47q0 45 25 80q26 36 69 36q26 0 71.5 -29.5t57.5 -29.5q22 0 33 17.5t12 41.5zM627 720h80v-725h-45l-475 566h-2v-561h-80v725h45l476 -564h2z" />
    <glyph glyph-name="Ograve" unicode="&#xd2;" horiz-adv-x="856" 
d="M458 789h-59l-128 135h91zM428 -18q-162 0 -268.5 109.5t-106.5 268.5q0 104 47.5 190t133.5 137t193 51q109 0 194 -51q87 -51 134.5 -136.5t47.5 -190.5q4 -156 -106 -268t-269 -110zM219 145q83 -87 209 -87t208 87q83 89 83 215t-83 214q-82 88 -208 88
q-127 0 -209 -88q-83 -88 -83 -214t83 -215z" />
    <glyph glyph-name="Oacute" unicode="&#xd3;" horiz-adv-x="856" 
d="M458 789h-59l96 135h91zM428 -18q-162 0 -268.5 109.5t-106.5 268.5q0 104 47.5 190t133.5 137t193 51q109 0 194 -51q87 -51 134.5 -136.5t47.5 -190.5q4 -156 -106 -268t-269 -110zM219 145q83 -87 209 -87t208 87q83 89 83 215t-83 214q-82 88 -208 88
q-127 0 -209 -88q-83 -88 -83 -214t83 -215z" />
    <glyph glyph-name="Ocircumflex" unicode="&#xd4;" horiz-adv-x="856" 
d="M465 926l125 -137h-82l-80 98l-79 -98h-82l125 137h73zM428 -18q-162 0 -268.5 109.5t-106.5 268.5q0 104 47.5 190t133.5 137t193 51q109 0 194 -51q87 -51 134.5 -136.5t47.5 -190.5q4 -156 -106 -268t-269 -110zM219 145q83 -87 209 -87t208 87q83 89 83 215t-83 214
q-82 88 -208 88q-127 0 -209 -88q-83 -88 -83 -214t83 -215z" />
    <glyph glyph-name="Otilde" unicode="&#xd5;" horiz-adv-x="856" 
d="M539 902h47q0 -48 -23 -82t-64 -34q-27 0 -73 29.5t-60 29.5q-43 0 -48 -59h-47q0 45 25 80q26 36 68 36q28 0 73 -29.5t56 -29.5q41 0 46 59zM428 -18q-162 0 -268.5 109.5t-106.5 268.5q0 104 47.5 190t133.5 137t193 51q109 0 194 -51q87 -51 134.5 -136.5
t47.5 -190.5q4 -156 -106 -268t-269 -110zM219 145q83 -87 209 -87t208 87q83 89 83 215t-83 214q-82 88 -208 88q-127 0 -209 -88q-83 -88 -83 -214t83 -215z" />
    <glyph glyph-name="Odieresis" unicode="&#xd6;" horiz-adv-x="856" 
d="M333 910q23 0 40 -16.5t17 -39.5q0 -24 -17 -41t-40 -17t-40 17t-17 41q0 23 17 39.5t40 16.5zM524 910q23 0 40 -16.5t17 -39.5q0 -24 -17 -41t-40 -17q-24 0 -40.5 17t-16.5 41q0 23 16.5 39.5t40.5 16.5zM428 -18q-162 0 -268.5 109.5t-106.5 268.5q0 104 47.5 190
t133.5 137t193 51q109 0 194 -51q87 -51 134.5 -136.5t47.5 -190.5q4 -156 -106 -268t-269 -110zM219 145q83 -87 209 -87t208 87q83 89 83 215t-83 214q-82 88 -208 88q-127 0 -209 -88q-83 -88 -83 -214t83 -215z" />
    <glyph glyph-name="multiply" unicode="&#xd7;" horiz-adv-x="634" 
d="M317 371l190 189l45 -45l-190 -189l189 -188l-44 -45l-189 188l-189 -189l-45 46l189 188l-190 190l45 45z" />
    <glyph glyph-name="Oslash" unicode="&#xd8;" horiz-adv-x="856" 
d="M752 698l-57 -68q108 -110 108 -270q4 -156 -106 -268t-269 -110q-125 0 -220 68l-57 -68l-48 40l57 68q-107 109 -107 270q-3 156 106 268t269 110q125 0 219 -67l57 67zM136 360q0 -122 77 -208l383 457q-74 53 -168 53q-127 0 -209 -88q-83 -88 -83 -214zM428 58
q126 0 208 87q83 89 83 215q0 122 -77 208l-383 -457q74 -53 169 -53z" />
    <glyph glyph-name="Ugrave" unicode="&#xd9;" horiz-adv-x="760" 
d="M409 785h-58l-129 135h92zM93 267v453h80v-451q0 -98 55 -154.5t152 -56.5t152 56.5t55 154.5v451h80v-453q0 -133 -80 -210q-79 -75 -207 -75t-207 75q-80 77 -80 210z" />
    <glyph glyph-name="Uacute" unicode="&#xda;" horiz-adv-x="760" 
d="M409 785h-58l95 135h91zM93 267v453h80v-451q0 -98 55 -154.5t152 -56.5t152 56.5t55 154.5v451h80v-453q0 -133 -80 -210q-79 -75 -207 -75t-207 75q-80 77 -80 210z" />
    <glyph glyph-name="Ucircumflex" unicode="&#xdb;" horiz-adv-x="760" 
d="M416 922l125 -137h-82l-79 98l-80 -98h-81l124 137h73zM93 267v453h80v-451q0 -98 55 -154.5t152 -56.5t152 56.5t55 154.5v451h80v-453q0 -133 -80 -210q-79 -75 -207 -75t-207 75q-80 77 -80 210z" />
    <glyph glyph-name="Udieresis" unicode="&#xdc;" horiz-adv-x="760" 
d="M284 906q24 0 41 -16.5t17 -39.5q0 -24 -17 -41t-41 -17q-23 0 -40 17.5t-17 40.5t17 39.5t40 16.5zM475 906q23 0 40 -16.5t17 -39.5q0 -24 -17 -41t-40 -17t-40 17t-17 41q0 23 17 39.5t40 16.5zM93 267v453h80v-451q0 -98 55 -154.5t152 -56.5t152 56.5t55 154.5v451
h80v-453q0 -133 -80 -210q-79 -75 -207 -75t-207 75q-80 77 -80 210z" />
    <glyph glyph-name="Yacute" unicode="&#xdd;" horiz-adv-x="640" 
d="M386 920h92l-129 -135h-58zM320 342l219 378h86l-265 -450v-270h-80v270l-265 450h86z" />
    <glyph glyph-name="Thorn" unicode="&#xde;" horiz-adv-x="634" 
d="M185 578h181q106 0 164 -60t58 -158t-58 -158t-164 -60h-181v-142h-80v720h80v-142zM185 214h175q72 0 109.5 37.5t37.5 108.5t-37.5 108.5t-109.5 37.5h-175v-292z" />
    <glyph glyph-name="germandbls" unicode="&#xdf;" horiz-adv-x="585" 
d="M376 357q167 -39 167 -179q0 -87 -58 -138.5t-159 -51.5q-73 0 -131 31v77q59 -39 125 -39q67 0 104.5 33t37.5 92q0 69 -57 105t-155 36v62q82 0 129.5 41t47.5 110q0 59 -34 93.5t-93 34.5q-62 0 -101 -49t-39 -135v-480h-78v480q0 116 58 183q58 69 160 69
q92 0 147.5 -52t55.5 -141q0 -64 -33.5 -111.5t-93.5 -70.5z" />
    <glyph glyph-name="agrave" unicode="&#xe0;" horiz-adv-x="613" 
d="M327 545h-59l-150 175h91zM280 -12q-100 0 -168 72q-66 74 -66 180q0 107 66 179q67 73 168 73q55 0 103 -25t80 -65h3l14 78h51v-480h-51l-14 78h-3q-32 -40 -80 -65t-103 -25zM288 59q71 0 120 49t49 123v18q0 73 -49 122q-50 50 -120 50q-73 0 -119 -52t-46 -129
t46 -129t119 -52z" />
    <glyph glyph-name="aacute" unicode="&#xe1;" horiz-adv-x="613" 
d="M327 545h-59l118 175h92zM280 -12q-100 0 -168 72q-66 74 -66 180q0 107 66 179q67 73 168 73q55 0 103 -25t80 -65h3l14 78h51v-480h-51l-14 78h-3q-32 -40 -80 -65t-103 -25zM288 59q71 0 120 49t49 123v18q0 73 -49 122q-50 50 -120 50q-73 0 -119 -52t-46 -129
t46 -129t119 -52z" />
    <glyph glyph-name="acircumflex" unicode="&#xe2;" horiz-adv-x="613" 
d="M334 720l125 -175h-82l-79 129l-80 -129h-82l125 175h73zM280 -12q-100 0 -168 72q-66 74 -66 180q0 107 66 179q67 73 168 73q55 0 103 -25t80 -65h3l14 78h51v-480h-51l-14 78h-3q-32 -40 -80 -65t-103 -25zM288 59q71 0 120 49t49 123v18q0 73 -49 122q-50 50 -120 50
q-73 0 -119 -52t-46 -129t46 -129t119 -52z" />
    <glyph glyph-name="atilde" unicode="&#xe3;" horiz-adv-x="613" 
d="M408 680h48q0 -52 -23.5 -86.5t-64.5 -34.5q-26 0 -72 30.5t-61 30.5q-42 0 -48 -61h-47q0 47 25 84t69 37q26 0 71.5 -30.5t57.5 -30.5q40 0 45 61zM280 -12q-100 0 -168 72q-66 74 -66 180q0 107 66 179q67 73 168 73q55 0 103 -25t80 -65h3l14 78h51v-480h-51l-14 78
h-3q-32 -40 -80 -65t-103 -25zM288 59q71 0 120 49t49 123v18q0 73 -49 122q-50 50 -120 50q-73 0 -119 -52t-46 -129t46 -129t119 -52z" />
    <glyph glyph-name="adieresis" unicode="&#xe4;" horiz-adv-x="613" 
d="M202 694q23 0 40 -17t17 -40t-16.5 -40t-40.5 -17q-23 0 -40 17t-17 40t17 40t40 17zM393 694q23 0 40 -17t17 -40t-17 -40t-40 -17t-40 17t-17 40t17 40t40 17zM280 -12q-100 0 -168 72q-66 74 -66 180q0 107 66 179q67 73 168 73q55 0 103 -25t80 -65h3l14 78h51v-480
h-51l-14 78h-3q-32 -40 -80 -65t-103 -25zM288 59q71 0 120 49t49 123v18q0 73 -49 122q-50 50 -120 50q-73 0 -119 -52t-46 -129t46 -129t119 -52z" />
    <glyph glyph-name="aring" unicode="&#xe5;" horiz-adv-x="613" 
d="M373 549q-31 -31 -75 -31t-75 31t-31 75t31 75t75 31t75 -31t31 -75t-31 -75zM260 586q16 -15 38 -15t37 15q16 16 16 38t-16 37q-15 16 -37 16t-38 -16q-15 -15 -15 -37t15 -38zM280 -12q-100 0 -168 72q-66 74 -66 180q0 107 66 179q67 73 168 73q55 0 103 -25t80 -65
h3l14 78h51v-480h-51l-14 78h-3q-32 -40 -80 -65t-103 -25zM288 59q71 0 120 49t49 123v18q0 73 -49 122q-50 50 -120 50q-73 0 -119 -52t-46 -129t46 -129t119 -52z" />
    <glyph glyph-name="ae" unicode="&#xe6;" horiz-adv-x="909" 
d="M662 492q100 0 155 -73q56 -73 41 -207h-353q5 -73 51.5 -114.5t125.5 -41.5q84 0 152 53v-73q-62 -48 -154 -48q-64 0 -113 24.5t-72 62.5l-12 -75h-38l-12 74q-29 -38 -73 -62t-94 -24q-96 0 -157 73q-62 74 -62 179q0 106 62.5 179t156.5 73q50 0 94 -24t73 -62l12 74
h38l12 -73q24 38 68.5 61.5t98.5 23.5zM659 428q-65 0 -108 -45q-43 -44 -47 -111h285q-1 75 -35 115.5t-95 40.5zM275 59q66 0 109 49q45 50 45 123v18q0 73 -45 122q-44 50 -109 50q-67 0 -109 -52q-42 -53 -42 -129t42 -129q42 -52 109 -52z" />
    <glyph glyph-name="ccedilla" unicode="&#xe7;" horiz-adv-x="493" 
d="M299 421q-83 0 -131 -52q-47 -53 -47 -129t47 -129q48 -52 131 -52q73 0 135 44v-78q-55 -35 -132 -37l-18 -35q20 2 28 2q38 0 60.5 -17t22.5 -52q0 -42 -28 -64.5t-75 -22.5q-39 0 -78 15v52q40 -20 73 -20q23 0 37.5 10.5t14.5 30.5q0 39 -58 39q-21 0 -49 -9l36 73
q-105 11 -164 80q-60 70 -60 170q0 108 69 180t186 72q80 0 135 -37v-78q-62 44 -135 44z" />
    <glyph glyph-name="egrave" unicode="&#xe8;" horiz-adv-x="541" 
d="M189 720l118 -175h-59l-150 175h91zM280 492q106 0 166 -73q62 -73 45 -207h-365q5 -73 51 -114.5t126 -41.5q89 0 162 53v-73q-66 -48 -164 -48q-118 0 -186 68q-68 70 -68 183q0 111 63 182t170 71zM280 428q-67 0 -109 -43.5t-45 -112.5h295q-1 73 -39 114.5
t-102 41.5z" />
    <glyph glyph-name="eacute" unicode="&#xe9;" horiz-adv-x="541" 
d="M366 720h91l-150 -175h-59zM280 492q106 0 166 -73q62 -73 45 -207h-365q5 -73 51 -114.5t126 -41.5q89 0 162 53v-73q-66 -48 -164 -48q-118 0 -186 68q-68 70 -68 183q0 111 63 182t170 71zM280 428q-67 0 -109 -43.5t-45 -112.5h295q-1 73 -39 114.5t-102 41.5z" />
    <glyph glyph-name="ecircumflex" unicode="&#xea;" horiz-adv-x="541" 
d="M357 545l-80 129l-79 -129h-82l125 175h73l125 -175h-82zM280 492q106 0 166 -73q62 -73 45 -207h-365q5 -73 51 -114.5t126 -41.5q89 0 162 53v-73q-66 -48 -164 -48q-118 0 -186 68q-68 70 -68 183q0 111 63 182t170 71zM280 428q-67 0 -109 -43.5t-45 -112.5h295
q-1 73 -39 114.5t-102 41.5z" />
    <glyph glyph-name="edieresis" unicode="&#xeb;" horiz-adv-x="541" 
d="M182 580q-23 0 -40 17t-17 40t17 40t40 17t40 -17t17 -40t-17 -40t-40 -17zM372 580q-23 0 -39.5 17t-16.5 40t16.5 40t39.5 17q24 0 41 -17t17 -40t-17 -40t-41 -17zM280 492q106 0 166 -73q62 -73 45 -207h-365q5 -73 51 -114.5t126 -41.5q89 0 162 53v-73
q-66 -48 -164 -48q-118 0 -186 68q-68 70 -68 183q0 111 63 182t170 71zM280 428q-67 0 -109 -43.5t-45 -112.5h295q-1 73 -39 114.5t-102 41.5z" />
    <glyph glyph-name="igrave" unicode="&#xec;" horiz-adv-x="239" 
d="M147 545h-51l-99 175h81zM83 480h77v-480h-77v480z" />
    <glyph glyph-name="iacute" unicode="&#xed;" horiz-adv-x="239" 
d="M146 545h-51l70 175h81zM82 480h77v-480h-77v480z" />
    <glyph glyph-name="icircumflex" unicode="&#xee;" horiz-adv-x="239" 
d="M146 720l84 -175h-63l-46 116l-48 -116h-62l84 175h51zM82 480h77v-480h-77v480z" />
    <glyph glyph-name="idieresis" unicode="&#xef;" horiz-adv-x="239" 
d="M58 693q21 0 36 -16.5t15 -39.5t-15 -39.5t-36 -16.5t-35.5 16.5t-14.5 39.5t14.5 39.5t35.5 16.5zM182 693q22 0 36.5 -16.5t14.5 -39.5t-15 -39.5t-36 -16.5q-20 0 -34.5 16.5t-14.5 39.5t14.5 39.5t34.5 16.5zM82 480h77v-480h-77v480z" />
    <glyph glyph-name="eth" unicode="&#xf0;" horiz-adv-x="580" 
d="M452 690l-96 -52q78 -99 127.5 -210.5t49.5 -195.5q0 -108 -66 -176q-65 -68 -176 -68q-113 0 -179 71q-66 72 -66 184q0 107 66 174q66 69 166 69q62 0 112 -33q-38 70 -97 150l-103 -55l-24 40l98 52q-39 47 -80 87l92 3q23 -23 50 -55l98 53zM293 61q76 0 118 47.5
t42 121.5q0 79 -41 132t-126 53q-70 0 -115 -48.5t-45 -126.5q0 -76 43 -128q43 -51 124 -51z" />
    <glyph glyph-name="ntilde" unicode="&#xf1;" 
d="M408 680h47q0 -52 -23.5 -86.5t-64.5 -34.5q-27 0 -72 30.5t-60 30.5q-44 0 -48 -61h-48q0 47 25 84t69 37q27 0 72 -30.5t57 -30.5q41 0 46 61zM335 492q85 0 130.5 -54t45.5 -145v-293h-77v291q0 131 -112 131q-67 0 -115 -52q-48 -51 -48 -131v-239h-77v480h51l18 -91
h1q69 103 183 103z" />
    <glyph glyph-name="ograve" unicode="&#xf2;" 
d="M322 545h-59l-151 175h92zM44 240q-2 103 71 178t178 74q109 0 179 -73q71 -74 71 -179t-71 -179q-70 -73 -179 -73t-179 73t-70 179zM293 60q75 0 123 52q49 52 49 128t-49 128q-48 52 -123 52t-124 -52q-48 -52 -48 -128t48 -128q49 -52 124 -52z" />
    <glyph glyph-name="oacute" unicode="&#xf3;" 
d="M322 545h-59l118 175h91zM293 -12q-106 -1 -178.5 73.5t-70.5 178.5q-2 103 71 178t178 74q109 0 179 -73q71 -74 71 -179t-71 -179q-70 -73 -179 -73zM293 60q75 0 123 52q49 52 49 128t-49 128q-48 52 -123 52q-74 0 -123 -52t-49 -128t49 -128t123 -52z" />
    <glyph glyph-name="ocircumflex" unicode="&#xf4;" 
d="M329 720l125 -175h-82l-80 129l-80 -129h-81l125 175h73zM44 240q-2 103 71 178t178 74q109 0 179 -73q71 -74 71 -179t-71 -179q-70 -73 -179 -73t-179 73t-70 179zM293 60q75 0 123 52q49 52 49 128t-49 128q-48 52 -123 52t-124 -52q-48 -52 -48 -128t48 -128
q49 -52 124 -52z" />
    <glyph glyph-name="otilde" unicode="&#xf5;" 
d="M403 680h47q0 -52 -23.5 -86.5t-64.5 -34.5q-26 0 -71.5 30.5t-60.5 30.5q-44 0 -48 -61h-48q0 47 25 84t69 37q28 0 72 -30.5t57 -30.5q41 0 46 61zM44 240q-2 103 71 178t178 74q109 0 179 -73q71 -74 71 -179t-71 -179q-70 -73 -179 -73t-179 73t-70 179zM293 60
q75 0 123 52q49 52 49 128t-49 128q-48 52 -123 52t-124 -52q-48 -52 -48 -128t48 -128q49 -52 124 -52z" />
    <glyph glyph-name="odieresis" unicode="&#xf6;" 
d="M196 694q24 0 41 -17t17 -40t-17 -40t-41 -17q-23 0 -39.5 17t-16.5 40t16.5 40t39.5 17zM387 694q23 0 40.5 -17t17.5 -40t-17 -40t-41 -17q-23 0 -39.5 17t-16.5 40t16.5 40t39.5 17zM44 240q-2 103 71 178t178 74q109 0 179 -73q71 -74 71 -179t-71 -179
q-70 -73 -179 -73t-179 73t-70 179zM293 60q75 0 123 52q49 52 49 128t-49 128q-48 52 -123 52t-124 -52q-48 -52 -48 -128t48 -128q49 -52 124 -52z" />
    <glyph glyph-name="divide" unicode="&#xf7;" horiz-adv-x="635" 
d="M319 553q24 0 41 -17.5t17 -41.5q0 -23 -17.5 -41.5t-40.5 -18.5q-25 0 -42 18t-17 42t17 41.5t42 17.5zM57 358h522v-63h-522v63zM319 219q24 0 41 -17.5t17 -42.5q0 -24 -17.5 -41.5t-40.5 -17.5q-25 0 -42 17.5t-17 41.5q0 25 17 42.5t42 17.5z" />
    <glyph glyph-name="oslash" unicode="&#xf8;" 
d="M538 462l-54 -56q59 -71 59 -166q0 -105 -71 -179q-70 -73 -179 -73q-92 0 -159 55l-53 -55l-32 31l53 55q-58 70 -58 166q-2 103 71 178t178 74q93 0 160 -55l53 55zM121 240q0 -62 35 -111l245 254q-46 37 -108 37q-75 0 -124 -52q-48 -52 -48 -128zM293 60
q75 0 123 52q49 52 49 128q0 64 -34 111l-245 -254q46 -37 107 -37z" />
    <glyph glyph-name="ugrave" unicode="&#xf9;" 
d="M310 545h-58l-151 175h92zM252 -12q-89 0 -133 56q-44 58 -44 143v293h77v-291q0 -131 112 -131q66 0 114.5 52t48.5 131v239h77v-480h-51l-18 91h-1q-69 -103 -182 -103z" />
    <glyph glyph-name="uacute" unicode="&#xfa;" 
d="M310 545h-58l118 175h91zM252 -12q-89 0 -133 56q-44 58 -44 143v293h77v-291q0 -131 112 -131q66 0 114.5 52t48.5 131v239h77v-480h-51l-18 91h-1q-69 -103 -182 -103z" />
    <glyph glyph-name="ucircumflex" unicode="&#xfb;" 
d="M318 720l124 -175h-82l-79 129l-80 -129h-81l125 175h73zM252 -12q-89 0 -133 56q-44 58 -44 143v293h77v-291q0 -131 112 -131q66 0 114.5 52t48.5 131v239h77v-480h-51l-18 91h-1q-69 -103 -182 -103z" />
    <glyph glyph-name="udieresis" unicode="&#xfc;" 
d="M185 694q23 0 40.5 -17t17.5 -40t-17 -40t-41 -17q-23 0 -39.5 17t-16.5 40t16.5 40t39.5 17zM376 694q23 0 40.5 -17t17.5 -40t-17 -40t-41 -17q-23 0 -39.5 17t-16.5 40t16.5 40t39.5 17zM252 -12q-89 0 -133 56q-44 58 -44 143v293h77v-291q0 -131 112 -131
q66 0 114.5 52t48.5 131v239h77v-480h-51l-18 91h-1q-69 -103 -182 -103z" />
    <glyph glyph-name="yacute" unicode="&#xfd;" horiz-adv-x="484" 
d="M329 720h91l-150 -175h-59zM242 114l142 366h83l-185 -441l-107 -269h-83l114 260l-189 450h83z" />
    <glyph glyph-name="thorn" unicode="&#xfe;" horiz-adv-x="613" 
d="M159 -230h-77v960h77v-247l-2 -76h3q26 36 73.5 60.5t101.5 24.5q102 0 166 -73q66 -74 66 -179q0 -106 -67 -179q-66 -73 -167 -73q-55 0 -101 24t-72 61h-3l2 -76v-227zM325 59q73 0 119 52t46 129t-46.5 129t-118.5 52q-71 0 -120.5 -49.5t-49.5 -122.5v-18
q0 -74 49 -123t121 -49z" />
    <glyph glyph-name="ydieresis" unicode="&#xff;" horiz-adv-x="484" 
d="M144 580q-23 0 -39.5 17t-16.5 40t16.5 40t39.5 17q24 0 41 -17t17 -40t-17 -40t-41 -17zM335 580q-23 0 -39.5 17t-16.5 40t16.5 40t39.5 17t40.5 -17t17.5 -40t-17 -40t-41 -17zM242 114l142 366h83l-185 -441l-107 -269h-83l114 260l-189 450h83z" />
    <glyph glyph-name="Amacron" unicode="&#x100;" horiz-adv-x="663" 
d="M177 863h309v-63h-309v63zM648 0h-86l-77 196h-307l-76 -196h-87l294 725h45zM332 586l-125 -318h249z" />
    <glyph glyph-name="amacron" unicode="&#x101;" horiz-adv-x="613" 
d="M143 648h309v-63h-309v63zM280 -12q-100 0 -168 72q-66 74 -66 180q0 107 66 179q67 73 168 73q55 0 103 -25t80 -65h3l14 78h51v-480h-51l-14 78h-3q-32 -40 -80 -65t-103 -25zM288 59q71 0 120 49t49 123v18q0 73 -49 122q-50 50 -120 50q-73 0 -119 -52t-46 -129
t46 -129t119 -52z" />
    <glyph glyph-name="Abreve" unicode="&#x102;" horiz-adv-x="663" 
d="M331 770q-67 0 -106.5 40.5t-39.5 110.5h54q0 -40 24 -65t68 -25t69.5 25t25.5 65h54q0 -69 -41 -110t-108 -41zM648 0h-86l-77 196h-307l-76 -196h-87l294 725h45zM332 586l-125 -318h249z" />
    <glyph glyph-name="abreve" unicode="&#x103;" horiz-adv-x="613" 
d="M297 540q-68 0 -107 47.5t-39 132.5h54q0 -118 92 -118q46 0 70.5 30.5t24.5 87.5h54q0 -85 -40 -132.5t-109 -47.5zM280 -12q-100 0 -168 72q-66 74 -66 180q0 107 66 179q67 73 168 73q55 0 103 -25t80 -65h3l14 78h51v-480h-51l-14 78h-3q-32 -40 -80 -65t-103 -25z
M288 59q71 0 120 49t49 123v18q0 73 -49 122q-50 50 -120 50q-73 0 -119 -52t-46 -129t46 -129t119 -52z" />
    <glyph glyph-name="Aogonek" unicode="&#x104;" horiz-adv-x="663" 
d="M599 -142q28 0 51 20v-58q-34 -17 -64 -17q-40 0 -63 22t-23 55q0 71 109 120h-47l-77 196h-307l-76 -196h-87l294 725h45l294 -725q-38 -16 -64.5 -44t-26.5 -59q0 -39 42 -39zM332 586l-125 -318h249z" />
    <glyph glyph-name="aogonek" unicode="&#x105;" horiz-adv-x="613" 
d="M482 -142q28 0 51 20v-58q-34 -17 -64 -17q-40 0 -63 22t-23 55q0 71 109 120h-12l-14 78h-3q-32 -40 -80 -65t-103 -25q-100 0 -168 72q-66 74 -66 180q0 107 66 179q67 73 168 73q55 0 103 -25t80 -65h3l14 78h51v-480q-38 -16 -65 -44t-27 -59q0 -39 43 -39zM457 231
v18q0 73 -49 122q-50 50 -120 50q-73 0 -119 -52t-46 -129t46 -129t119 -52q71 0 120 49t49 123z" />
    <glyph glyph-name="Cacute" unicode="&#x106;" horiz-adv-x="701" 
d="M451 785h-58l95 135h92zM427 -18q-165 -2 -271 109t-103 269q0 160 103 269t271 109q117 0 212 -59v-86q-92 68 -210 68q-135 0 -214 -86.5t-79 -214.5t79 -214.5t214 -86.5q118 0 210 68v-86q-95 -59 -212 -59z" />
    <glyph glyph-name="cacute" unicode="&#x107;" horiz-adv-x="493" 
d="M309 545h-58l118 175h91zM299 -12q-116 0 -185.5 72t-69.5 180t69 180t186 72q80 0 135 -37v-78q-62 44 -135 44q-82 0 -130 -52t-48 -129t47 -130q48 -51 131 -51q73 0 135 44v-78q-55 -37 -135 -37z" />
    <glyph glyph-name="Ccircumflex" unicode="&#x108;" horiz-adv-x="701" 
d="M458 922l125 -137h-82l-79 98l-80 -98h-81l125 137h72zM427 -18q-165 -2 -271 109t-103 269q0 160 103 269t271 109q117 0 212 -59v-86q-92 68 -210 68q-135 0 -214 -86.5t-79 -214.5t79 -214.5t214 -86.5q118 0 210 68v-86q-95 -59 -212 -59z" />
    <glyph glyph-name="ccircumflex" unicode="&#x109;" horiz-adv-x="493" 
d="M317 720l124 -175h-82l-79 129l-80 -129h-81l125 175h73zM299 -12q-116 0 -185.5 72t-69.5 180t69 180t186 72q80 0 135 -37v-78q-62 44 -135 44q-83 0 -130.5 -52t-47.5 -129t47 -130q48 -51 131 -51q73 0 135 44v-78q-55 -37 -135 -37z" />
    <glyph glyph-name="Cdotaccent" unicode="&#x10a;" horiz-adv-x="701" 
d="M421 908q24 0 41 -16.5t17 -39.5q0 -24 -17 -41t-41 -17q-23 0 -39.5 17.5t-16.5 40.5t16.5 39.5t39.5 16.5zM427 -18q-165 -2 -271 109t-103 269q0 160 103 269t271 109q117 0 212 -59v-86q-92 68 -210 68q-135 0 -214 -86.5t-79 -214.5t79 -214.5t214 -86.5
q118 0 210 68v-86q-95 -59 -212 -59z" />
    <glyph glyph-name="cdotaccent" unicode="&#x10b;" horiz-adv-x="493" 
d="M279 694q24 0 41 -17t17 -40t-17 -40t-41 -17q-23 0 -39.5 17t-16.5 40t16.5 40t39.5 17zM299 -12q-116 0 -185.5 72t-69.5 180t69 180t186 72q80 0 135 -37v-78q-62 44 -135 44q-83 0 -130.5 -52t-47.5 -129t47 -130q48 -51 131 -51q73 0 135 44v-78q-55 -37 -135 -37z
" />
    <glyph glyph-name="Ccaron" unicode="&#x10c;" horiz-adv-x="701" 
d="M419 824l80 98h82l-125 -137h-73l-125 137h82zM427 -18q-165 -2 -271 109t-103 269q0 160 103 269t271 109q117 0 212 -59v-86q-92 68 -210 68q-135 0 -214 -86.5t-79 -214.5t79 -214.5t214 -86.5q118 0 210 68v-86q-95 -59 -212 -59z" />
    <glyph glyph-name="ccaron" unicode="&#x10d;" horiz-adv-x="493" 
d="M278 591l79 129h82l-125 -175h-73l-125 175h82zM299 -12q-117 0 -186 72t-69 180t69 180t186 72q80 0 135 -37v-78q-62 44 -135 44q-82 0 -130 -52t-48 -129t47 -130q48 -51 131 -51q73 0 135 44v-78q-55 -37 -135 -37z" />
    <glyph glyph-name="Dcaron" unicode="&#x10e;" horiz-adv-x="761" 
d="M351 824l79 98h82l-125 -137h-72l-125 137h81zM309 0h-204v720h204q199 0 297 -98.5t98 -261.5q0 -164 -97.5 -262t-297.5 -98zM185 648v-576h124q158 0 236 75t78 213t-78 213t-236 75h-124z" />
    <glyph glyph-name="dcaron" unicode="&#x10f;" horiz-adv-x="776" 
d="M672 470h-59l64 268h80zM280 -12q-100 0 -168 72q-66 74 -66 180q0 105 65 179q64 73 166 73q55 0 102.5 -24.5t73.5 -60.5h3l-2 76v247h77v-730h-51l-14 78h-3q-32 -40 -80 -65t-103 -25zM288 59q71 0 120 49t49 123v18q0 73 -49 122q-50 50 -120 50q-73 0 -119 -52
t-46 -129t46 -129t119 -52z" />
    <glyph glyph-name="Dcroat" unicode="&#x110;" horiz-adv-x="761" 
d="M105 720h204q199 0 297 -98.5t98 -261.5q0 -164 -97.5 -262t-297.5 -98h-204v326h-85v68h85v326zM185 72h124q158 0 236 75t78 213t-78 213t-236 75h-124v-254h209v-68h-209v-254z" />
    <glyph glyph-name="dslash" unicode="&#x111;" horiz-adv-x="579" 
d="M531 636h65v-62h-65v-574h-51l-14 78h-3q-32 -40 -80 -65t-103 -25q-100 0 -168 72q-66 74 -66 180q0 105 65 179q64 73 166 73q55 0 102.5 -24.5t73.5 -60.5h3l-2 76v91h-188v62h188v94h77v-94zM457 231v18q0 73 -49 122q-50 50 -120 50q-73 0 -119 -52t-46 -129
q0 -78 45.5 -129.5t119.5 -51.5q71 0 120 49t49 123z" />
    <glyph glyph-name="Emacron" unicode="&#x112;" horiz-adv-x="629" 
d="M192 863h310v-63h-310v63zM105 720h452v-73h-372v-241h343v-73h-343v-260h372v-73h-452v720z" />
    <glyph glyph-name="emacron" unicode="&#x113;" horiz-adv-x="541" 
d="M123 648h309v-63h-309v63zM280 492q106 0 166 -73q62 -73 45 -207h-365q5 -73 51 -114.5t126 -41.5q89 0 162 53v-73q-66 -48 -164 -48q-118 0 -186 68.5t-68 182.5q0 111 63 182t170 71zM280 428q-67 0 -108.5 -43.5t-45.5 -112.5h295q-1 73 -39.5 114.5t-101.5 41.5z
" />
    <glyph glyph-name="Ebreve" unicode="&#x114;" horiz-adv-x="629" 
d="M347 770q-67 0 -107 41t-40 110h54q0 -40 24.5 -65t68.5 -25t69 24.5t25 65.5h54q0 -69 -40.5 -110t-107.5 -41zM105 720h452v-73h-372v-241h343v-73h-343v-260h372v-73h-452v720z" />
    <glyph glyph-name="ebreve" unicode="&#x115;" horiz-adv-x="541" 
d="M277 540q-69 0 -107.5 47t-38.5 133h54q0 -118 92 -118q46 0 70.5 30.5t24.5 87.5h54q0 -85 -40 -132.5t-109 -47.5zM280 492q106 0 166 -73q62 -73 45 -207h-365q5 -73 51 -114.5t126 -41.5q89 0 162 53v-73q-66 -48 -164 -48q-118 0 -186 68q-68 70 -68 183
q0 111 63 182t170 71zM280 428q-67 0 -109 -43.5t-45 -112.5h295q-1 73 -39 114.5t-102 41.5z" />
    <glyph glyph-name="Edotaccent" unicode="&#x116;" horiz-adv-x="629" 
d="M346 908q24 0 41 -16.5t17 -39.5q0 -24 -17 -41t-41 -17q-23 0 -39.5 17.5t-16.5 40.5t16.5 39.5t39.5 16.5zM105 720h452v-73h-372v-241h343v-73h-343v-260h372v-73h-452v720z" />
    <glyph glyph-name="edotaccent" unicode="&#x117;" horiz-adv-x="541" 
d="M277 580q-24 0 -40.5 17t-16.5 40t17 40t40 17t40 -17t17 -40t-17 -40t-40 -17zM280 492q106 0 166 -73q62 -73 45 -207h-365q5 -73 51 -114.5t126 -41.5q89 0 162 53v-73q-66 -48 -164 -48q-118 0 -186 68.5t-68 182.5q0 111 63 182t170 71zM280 428q-67 0 -109 -43.5
t-45 -112.5h295q-1 73 -39.5 114.5t-101.5 41.5z" />
    <glyph glyph-name="Eogonek" unicode="&#x118;" horiz-adv-x="629" 
d="M509 -142q27 0 50 20v-58q-32 -17 -63 -17q-40 0 -63 22t-23 55q0 70 108 120h-413v720h452v-73h-372v-241h343v-73h-343v-260h372v-73q-38 -16 -64.5 -44t-26.5 -59q0 -39 43 -39z" />
    <glyph glyph-name="eogonek" unicode="&#x119;" horiz-adv-x="541" 
d="M280 492q106 0 166 -73q62 -73 45 -207h-365q5 -73 51 -114.5t126 -41.5q89 0 162 53v-73q-37 -26 -82 -38q-36 -19 -59.5 -45t-23.5 -54q0 -39 43 -39q28 0 51 20v-58q-34 -17 -64 -17q-40 0 -63 22t-23 55q0 61 82 107q-8 -1 -25 -1q-118 0 -186 68q-68 70 -68 183
q0 111 63 182t170 71zM280 428q-66 0 -108 -43t-46 -113h295q-1 73 -39 114.5t-102 41.5z" />
    <glyph glyph-name="Ecaron" unicode="&#x11a;" horiz-adv-x="629" 
d="M345 824l79 98h82l-125 -137h-73l-124 137h81zM105 720h452v-73h-372v-241h343v-73h-343v-260h372v-73h-452v720z" />
    <glyph glyph-name="ecaron" unicode="&#x11b;" horiz-adv-x="541" 
d="M436 720l-125 -175h-72l-125 175h81l80 -129l79 129h82zM280 492q106 0 166 -73q62 -73 45 -207h-365q5 -73 51 -114.5t126 -41.5q89 0 162 53v-73q-66 -48 -164 -48q-118 0 -186 68.5t-68 182.5q0 111 63 182t170 71zM280 428q-67 0 -109 -43.5t-45 -112.5h295
q-1 73 -39.5 114.5t-101.5 41.5z" />
    <glyph glyph-name="Gcircumflex" unicode="&#x11c;" horiz-adv-x="813" 
d="M513 789l-79 98l-80 -98h-81l125 137h72l125 -137h-82zM427 391h334q22 -189 -76.5 -299t-269.5 -110q-163 0 -263 106q-99 106 -99 270q-3 161 103 271t278 109q142 0 240 -71v-88q-95 82 -236 82q-142 0 -222 -86t-80 -217q0 -133 77 -216q77 -81 205 -81
q125 0 195.5 68.5t70.5 188.5h-253z" />
    <glyph glyph-name="gcircumflex" unicode="&#x11d;" horiz-adv-x="613" 
d="M327 720l125 -175h-82l-80 129l-80 -129h-81l125 175h73zM278 -238q-48 0 -97.5 13.5t-80.5 39.5v77q79 -61 175 -61q86 0 132.5 45t46.5 126v16l1 55h-2q-28 -38 -73.5 -61.5t-99.5 -23.5q-101 0 -168 73q-66 73 -66 179q0 107 66 179q67 73 168 73q55 0 103 -25t80 -65
h3l14 78h51v-474q0 -113 -67.5 -178.5t-185.5 -65.5zM288 59q71 0 120 49t49 123v18q0 73 -49 122q-50 50 -120 50q-73 0 -119 -52t-46 -129t46 -129t119 -52z" />
    <glyph glyph-name="Gbreve" unicode="&#x11e;" horiz-adv-x="813" 
d="M433 774q-66 0 -106 41t-40 110h54q0 -40 24 -65t68 -25t69.5 25t25.5 65h54q0 -69 -41 -110t-108 -41zM427 391h334q22 -189 -76.5 -299t-269.5 -110q-163 0 -263 106q-99 106 -99 270q-3 161 103 271t278 109q142 0 240 -71v-88q-95 82 -236 82q-142 0 -222 -86
t-80 -217q0 -133 77 -216q77 -81 205 -81q125 0 195.5 68.5t70.5 188.5h-253z" />
    <glyph glyph-name="gbreve" unicode="&#x11f;" horiz-adv-x="613" 
d="M290 540q-69 0 -108 47t-39 133h54q0 -118 93 -118q46 0 70 30.5t24 87.5h54q0 -85 -39.5 -132.5t-108.5 -47.5zM278 -238q-48 0 -97.5 13.5t-80.5 39.5v77q79 -61 175 -61q86 0 132.5 45t46.5 126v16l1 55h-2q-28 -38 -73.5 -61.5t-99.5 -23.5q-100 -1 -168 73.5
t-66 178.5q0 107 66 179q67 73 168 73q55 0 103 -25t80 -65h3l14 78h51v-474q0 -113 -67.5 -178.5t-185.5 -65.5zM288 59q71 0 120 49t49 123v18q0 73 -49 122q-50 50 -120 50q-73 0 -119 -52t-46 -129t46 -129t119 -52z" />
    <glyph glyph-name="Gdotaccent" unicode="&#x120;" horiz-adv-x="813" 
d="M433 798q-23 0 -39.5 17t-16.5 41q0 23 16.5 39.5t39.5 16.5q24 0 41 -16.5t17 -39.5q0 -24 -17 -41t-41 -17zM427 391h334q22 -189 -76.5 -299t-269.5 -110q-163 0 -263 106q-99 106 -99 270q-3 161 103 271t278 109q142 0 240 -71v-88q-95 82 -236 82q-142 0 -222 -86
t-80 -217q0 -133 77 -216q77 -81 205 -81q125 0 195.5 68.5t70.5 188.5h-253z" />
    <glyph glyph-name="gdotaccent" unicode="&#x121;" horiz-adv-x="613" 
d="M289 694q24 0 41 -17t17 -40t-17 -40t-41 -17q-23 0 -39.5 17t-16.5 40t16.5 40t39.5 17zM278 -238q-48 0 -97.5 13.5t-80.5 39.5v77q79 -61 175 -61q86 0 132.5 45t46.5 126v16l1 55h-2q-28 -38 -73.5 -61.5t-99.5 -23.5q-101 0 -168 73q-66 73 -66 179q0 107 66 179
q67 73 168 73q55 0 103 -25t80 -65h3l14 78h51v-474q0 -113 -67.5 -178.5t-185.5 -65.5zM288 59q71 0 120 49t49 123v18q0 73 -49 122q-50 50 -120 50q-73 0 -119 -52t-46 -129t46 -129t119 -52z" />
    <glyph glyph-name="uni0122" unicode="&#x122;" horiz-adv-x="813" 
d="M427 391h334q22 -189 -76.5 -299t-269.5 -110q-163 0 -263 106q-99 106 -99 270q-3 161 103 271t278 109q142 0 240 -71v-88q-95 82 -236 82q-142 0 -222 -86t-80 -217q0 -133 77 -216q77 -81 205 -81q125 0 195.5 68.5t70.5 188.5h-253zM387 -240h-59l51 187h79z" />
    <glyph glyph-name="uni0123" unicode="&#x123;" horiz-adv-x="613" 
d="M330 533h-79l71 187h59zM278 -238q-44 0 -94 13.5t-84 39.5v77q79 -61 175 -61q86 0 132.5 45t46.5 126v16l1 55h-2q-28 -38 -73.5 -61.5t-99.5 -23.5q-100 -1 -168 73.5t-66 178.5q0 107 66 179q67 73 168 73q55 0 103 -25t80 -65h3l14 78h51v-474q0 -113 -67.5 -178.5
t-185.5 -65.5zM288 59q71 0 120 49t49 123v18q0 73 -49 122q-50 50 -120 50q-73 0 -119 -52t-46 -129t46 -129t119 -52z" />
    <glyph glyph-name="Hcircumflex" unicode="&#x124;" horiz-adv-x="789" 
d="M474 785l-79 98l-80 -98h-82l125 137h73l125 -137h-82zM604 397v323h80v-720h-80v323h-419v-323h-80v720h80v-323h419z" />
    <glyph glyph-name="hcircumflex" unicode="&#x125;" 
d="M157 950l125 -175h-82l-79 128l-80 -128h-81l125 175h72zM160 0h-77v730h77v-247l-2 -87h2q70 96 176 96q85 0 130.5 -54t45.5 -145v-293h-77v291q0 131 -112 131q-67 0 -115 -52q-48 -51 -48 -131v-239z" />
    <glyph glyph-name="Hbar" unicode="&#x126;" horiz-adv-x="789" 
d="M686 592h85v-67h-85v-525h-80v322h-422v-322h-80v525h-85v67h85v128h80v-128h422v128h80v-128zM184 398h422v127h-422v-127z" />
    <glyph glyph-name="hbar" unicode="&#x127;" horiz-adv-x="551" 
d="M300 492q90 0 133 -57q44 -56 44 -142v-293h-77v291q0 131 -113 131q-66 0 -114 -52q-48 -51 -48 -131v-239h-77v574h-68v62h68v94h77v-94h186v-62h-186v-91l-2 -87h1q71 96 176 96z" />
    <glyph glyph-name="Itilde" unicode="&#x128;" horiz-adv-x="290" 
d="M257 898h47q0 -50 -23.5 -83t-64.5 -33q-26 0 -72.5 29.5t-59.5 29.5q-43 0 -48 -59h-48q0 45 25 80q25 36 69 36q26 0 71.5 -29.5t57.5 -29.5q40 0 46 59zM106 720h80v-720h-80v720z" />
    <glyph glyph-name="itilde" unicode="&#x129;" horiz-adv-x="239" 
d="M193 686h39q0 -57 -16 -92t-47 -35q-19 0 -52 33.5t-39 33.5q-29 0 -30 -67h-39q0 53 18 90t49 37q19 0 51 -30.5t38 -30.5q27 0 28 61zM82 480h77v-480h-77v480z" />
    <glyph glyph-name="Imacron" unicode="&#x12a;" horiz-adv-x="290" 
d="M-9 863h309v-63h-309v63zM106 720h80v-720h-80v720z" />
    <glyph glyph-name="imacron" unicode="&#x12b;" horiz-adv-x="239" 
d="M37 648h166v-63h-166v63zM82 480h77v-480h-77v480z" />
    <glyph glyph-name="Ibreve" unicode="&#x12c;" horiz-adv-x="290" 
d="M145 770q-66 0 -106 41t-40 110h54q0 -40 24 -65t68 -25q45 0 70 24.5t25 65.5h54q0 -69 -40.5 -110t-108.5 -41zM106 720h80v-720h-80v720z" />
    <glyph glyph-name="ibreve" unicode="&#x12d;" horiz-adv-x="239" 
d="M120 548q-100 0 -100 172h45q0 -110 55 -110q57 0 57 110h47q0 -172 -104 -172zM82 480h77v-480h-77v480z" />
    <glyph glyph-name="Iogonek" unicode="&#x12e;" horiz-adv-x="290" 
d="M136 -142q28 0 51 20v-58q-34 -17 -64 -17q-40 0 -63 22.5t-23 54.5q0 71 109 120h-41v720h80v-720q-36 -16 -63.5 -43.5t-27.5 -59.5q0 -39 42 -39z" />
    <glyph glyph-name="iogonek" unicode="&#x12f;" horiz-adv-x="239" 
d="M120 580q-23 0 -40 17t-17 40t17 40t40 17t40 -17t17 -40t-17 -40t-40 -17zM72 -101q0 -38 43 -38q29 0 51 19v-58q-34 -17 -64 -17q-40 0 -63 22t-23 55q0 69 103 118h-37v480h77v-478h5l-5 -2h-1q-36 -17 -61 -44.5t-25 -56.5z" />
    <glyph glyph-name="Idot" unicode="&#x130;" horiz-adv-x="290" 
d="M144 908q23 0 40.5 -16.5t17.5 -39.5q0 -24 -17 -41t-41 -17q-23 0 -39.5 17.5t-16.5 40.5t16.5 39.5t39.5 16.5zM105 720h80v-720h-80v720z" />
    <glyph glyph-name="dotlessi" unicode="&#x131;" horiz-adv-x="239" 
d="M82 480h77v-480h-77v480z" />
    <glyph glyph-name="IJ" unicode="&#x132;" horiz-adv-x="774" 
d="M105 720h80v-720h-80v720zM493 -18q-97 0 -174 59v86q86 -68 168 -68q60 0 84.5 34.5t24.5 109.5v517h80v-521q0 -28 -1 -39q-2 -45 -16 -82q-39 -96 -166 -96z" />
    <glyph glyph-name="ij" unicode="&#x133;" horiz-adv-x="485" 
d="M118 697q35 2 49.5 -26.5t0 -56.5t-49.5 -26q-26 0 -40.5 15t-14.5 39q0 25 14.5 40t40.5 15zM366 588q-26 0 -40.5 15.5t-14.5 38.5q0 25 14.5 40t40.5 15q35 2 49.5 -26.5t0 -56.5t-49.5 -26zM80 480h77l-1 -480h-76v480zM283 -228q-39 0 -73 15v70q29 -16 56 -16
q33 0 47.5 19.5t14.5 66.5v553h78v-564q0 -144 -123 -144z" />
    <glyph glyph-name="Jcircumflex" unicode="&#x134;" horiz-adv-x="484" 
d="M382 922l125 -137h-82l-80 98l-79 -98h-82l125 137h73zM203 -18q-97 0 -174 59v86q86 -68 169 -68q59 0 83.5 34.5t24.5 109.5v517h80v-521q0 -28 -1 -39q0 -39 -16 -82q-39 -96 -166 -96z" />
    <glyph glyph-name="jcircumflex" unicode="&#x135;" horiz-adv-x="241" 
d="M146 720l84 -175h-63l-47 116l-47 -116h-62l84 175h51zM38 -228q-38 0 -73 15v70q28 -16 55 -16q33 0 48 19.5t15 66.5l-2 553h79v-564q0 -144 -122 -144z" />
    <glyph glyph-name="uni0136" unicode="&#x136;" horiz-adv-x="602" 
d="M585 720l-321 -360l327 -360h-98l-293 327h-14v-327h-81v720h81v-327h13l289 327h97zM319 -240h-59l51 187h79z" />
    <glyph glyph-name="uni0137" unicode="&#x137;" horiz-adv-x="481" 
d="M456 480l-208 -234l218 -246h-92l-187 211h-26v-211h-79v730h79v-451h24l179 201h92zM233 -240h-59l51 187h79z" />
    <glyph glyph-name="kgreenlandic" unicode="&#x138;" horiz-adv-x="481" 
d="M466 0h-92l-187 211h-26v-211h-79v480h79v-201h24l179 201h92l-208 -234z" />
    <glyph glyph-name="Lacute" unicode="&#x139;" horiz-adv-x="568" 
d="M174 785h-59l95 135h92zM105 720h80v-647h364v-73h-444v720z" />
    <glyph glyph-name="lacute" unicode="&#x13a;" horiz-adv-x="241" 
d="M150 795h-59l118 175h92zM82 730h77v-730h-77v730z" />
    <glyph glyph-name="uni013B" unicode="&#x13b;" horiz-adv-x="568" 
d="M105 720h80v-647h364v-73h-444v720zM305 -240h-60l51 187h80z" />
    <glyph glyph-name="uni013C" unicode="&#x13c;" horiz-adv-x="241" 
d="M82 730h77v-730h-77v730zM88 -240h-59l51 187h79z" />
    <glyph glyph-name="Lcaron" unicode="&#x13d;" horiz-adv-x="568" 
d="M105 720h80v-647h364v-73h-444v720zM510 452h-59l64 268h79z" />
    <glyph glyph-name="lcaron" unicode="&#x13e;" horiz-adv-x="402" 
d="M82 730h77v-730h-77v730zM299 462h-59l64 268h79z" />
    <glyph glyph-name="Ldot" unicode="&#x13f;" horiz-adv-x="568" 
d="M105 720h80v-647h364v-73h-444v720zM391 433q26 0 43 -17.5t17 -43.5q0 -25 -17.5 -43t-42.5 -18q-26 0 -43 18t-17 43q0 26 17 43.5t43 17.5z" />
    <glyph glyph-name="ldot" unicode="&#x140;" horiz-adv-x="404" 
d="M82 730h77v-730h-77v730zM301 424q25 0 42 -17.5t17 -43.5q0 -24 -17.5 -42t-41.5 -18q-26 0 -43 17.5t-17 42.5q0 26 17 43.5t43 17.5z" />
    <glyph glyph-name="Lslash" unicode="&#x141;" horiz-adv-x="568" 
d="M185 324v-251h364v-73h-444v288l-60 -31v64l60 30v369h80v-332l194 100v-65z" />
    <glyph glyph-name="lslash" unicode="&#x142;" horiz-adv-x="241" 
d="M159 440l75 48v-65l-75 -48v-375h-77v331l-74 -47v64l74 47v335h77v-290z" />
    <glyph glyph-name="Nacute" unicode="&#x143;" horiz-adv-x="812" 
d="M440 785h-58l95 135h92zM627 720h80v-725h-45l-475 566h-2v-561h-80v725h45l476 -564h2z" />
    <glyph glyph-name="nacute" unicode="&#x144;" 
d="M327 545h-59l118 175h91zM335 492q85 0 130.5 -54t45.5 -145v-293h-77v291q0 131 -112 131q-67 0 -115 -52q-48 -51 -48 -131v-239h-77v480h51l18 -91h1q69 103 183 103z" />
    <glyph glyph-name="uni0145" unicode="&#x145;" horiz-adv-x="812" 
d="M627 720h80v-725h-45l-475 566h-2v-561h-80v725h45l476 -564h2zM380 -240h-60l51 187h80z" />
    <glyph glyph-name="uni0146" unicode="&#x146;" 
d="M335 492q85 0 130.5 -54t45.5 -145v-293h-77v291q0 131 -112 131q-67 0 -115 -52q-48 -51 -48 -131v-239h-77v480h51l18 -91h1q69 103 183 103zM266 -240h-59l51 187h79z" />
    <glyph glyph-name="Ncaron" unicode="&#x147;" horiz-adv-x="812" 
d="M409 824l79 98h82l-125 -137h-73l-125 137h82zM627 720h80v-725h-45l-475 566h-2v-561h-80v725h45l476 -564h2z" />
    <glyph glyph-name="ncaron" unicode="&#x148;" 
d="M295 591l79 129h82l-125 -175h-73l-124 175h81zM335 492q85 0 130.5 -54t45.5 -145v-293h-77v291q0 131 -112 131q-67 0 -115 -52q-48 -51 -48 -131v-239h-77v480h51l18 -91h1q69 103 183 103z" />
    <glyph glyph-name="Eng" unicode="&#x14a;" horiz-adv-x="812" 
d="M628 169l-1 551h80v-804q0 -144 -122 -144q-39 0 -73 15v70q28 -16 55 -16q33 0 48 19.5t15 66.5v106l-443 518h-2v-551h-80v725h45l476 -556h2z" />
    <glyph glyph-name="eng" unicode="&#x14b;" 
d="M334 492q90 0 133 -57q44 -56 44 -142v-377q0 -144 -122 -144q-39 0 -73 15v70q28 -16 56 -16q33 0 47.5 19.5t14.5 66.5v364q0 131 -112 131q-67 0 -115 -52q-48 -51 -48 -131v-239h-77v480h51l18 -91h1q69 103 182 103z" />
    <glyph glyph-name="Omacron" unicode="&#x14c;" horiz-adv-x="856" 
d="M274 866h309v-62h-309v62zM428 -18q-162 0 -268.5 109.5t-106.5 268.5q0 104 47.5 190t133.5 137t193 51q109 0 194 -51q87 -51 134.5 -136.5t47.5 -190.5q4 -156 -106 -268t-269 -110zM219 145q83 -87 209 -87t208 87q83 89 83 215t-83 214q-82 88 -208 88
q-127 0 -209 -88q-83 -88 -83 -214t83 -215z" />
    <glyph glyph-name="omacron" unicode="&#x14d;" 
d="M137 648h310v-63h-310v63zM44 240q-2 103 71 178t178 74q109 0 179 -73q71 -74 71 -179t-71 -179q-70 -73 -179 -73t-179 73t-70 179zM293 60q75 0 123 52q49 52 49 128t-49 128q-48 52 -123 52t-124 -52q-48 -52 -48 -128t48 -128q49 -52 124 -52z" />
    <glyph glyph-name="Obreve" unicode="&#x14e;" horiz-adv-x="856" 
d="M428 774q-67 0 -106.5 40.5t-39.5 110.5h54q0 -40 24 -65t68 -25t69.5 25t25.5 65h54q0 -69 -41 -110t-108 -41zM428 -18q-162 0 -268.5 109.5t-106.5 268.5q0 104 47.5 190t133.5 137t193 51q109 0 194 -51q87 -51 134.5 -136.5t47.5 -190.5q4 -156 -106 -268t-269 -110
zM219 145q83 -87 209 -87t208 87q83 89 83 215t-83 214q-82 88 -208 88q-127 0 -209 -88q-83 -88 -83 -214t83 -215z" />
    <glyph glyph-name="obreve" unicode="&#x14f;" 
d="M292 540q-69 0 -108 47t-39 133h54q0 -118 93 -118q46 0 70 30.5t24 87.5h54q0 -85 -39.5 -132.5t-108.5 -47.5zM44 240q-2 103 71 178t178 74q109 0 179 -73q71 -74 71 -179t-71 -179q-70 -73 -179 -73t-179 73t-70 179zM293 60q75 0 123 52q49 52 49 128t-49 128
q-48 52 -123 52t-124 -52q-48 -52 -48 -128t48 -128q49 -52 124 -52z" />
    <glyph glyph-name="Ohungarumlaut" unicode="&#x150;" horiz-adv-x="856" 
d="M395 789h-56l50 135h89zM520 789h-56l82 135h89zM428 -18q-162 0 -268.5 109.5t-106.5 268.5q0 104 47.5 190t133.5 137t193 51q109 0 194 -51q87 -51 134.5 -136.5t47.5 -190.5q4 -156 -106 -268t-269 -110zM219 145q83 -87 209 -87t208 87q83 89 83 215t-83 214
q-82 88 -208 88q-127 0 -209 -88q-83 -88 -83 -214t83 -215z" />
    <glyph glyph-name="ohungarumlaut" unicode="&#x151;" 
d="M259 545h-56l70 175h89zM384 545h-57l103 175h89zM44 240q-2 103 71 178t178 74q109 0 179 -73q71 -74 71 -179t-71 -179q-70 -73 -179 -73t-179 73t-70 179zM293 60q75 0 123 52q49 52 49 128t-49 128q-48 52 -123 52t-124 -52q-48 -52 -48 -128t48 -128q49 -52 124 -52
z" />
    <glyph glyph-name="OE" unicode="&#x152;" horiz-adv-x="1020" 
d="M948 0h-519q-160 -3 -269.5 103.5t-105.5 256.5q-4 149 105.5 255.5t269.5 104.5h519v-74h-344v-240h315v-74h-315v-259h344v-73zM429 75h95v570h-95q-129 0 -211 -82q-83 -83 -83 -203t83 -203q82 -82 211 -82z" />
    <glyph glyph-name="oe" unicode="&#x153;" horiz-adv-x="926" 
d="M674 492q102 0 159.5 -73t43.5 -207h-349q5 -73 48.5 -114.5t120.5 -41.5q85 0 153 52v-72q-62 -48 -157 -48q-144 0 -209 110q-32 -51 -84.5 -80.5t-116.5 -29.5q-102 0 -170.5 73.5t-68.5 178.5t68 179q67 73 171 73q64 0 116.5 -29t84.5 -80q28 52 77.5 80.5
t112.5 28.5zM674 428q-64 0 -103.5 -43.5t-42.5 -112.5h280q-2 72 -38.5 114t-95.5 42zM283 60q71 0 117 52q47 53 47 128t-47 128q-46 52 -117 52q-69 0 -115.5 -52.5t-46.5 -127.5q0 -76 46 -128t116 -52z" />
    <glyph glyph-name="Racute" unicode="&#x154;" horiz-adv-x="640" 
d="M397 920h91l-128 -135h-58zM609 0h-101l-255 318h-68v-318h-80v720h267q109 0 167 -53.5t58 -148.5t-59.5 -147.5t-174.5 -52.5h-14zM363 648h-178v-259h178q153 0 153 129q0 130 -153 130z" />
    <glyph glyph-name="racute" unicode="&#x155;" horiz-adv-x="389" 
d="M222 545h-58l117 175h92zM159 0h-77v480h51l18 -91h1q58 103 151 103q33 0 59 -12v-79q-32 17 -64 17q-55 0 -97 -50t-42 -129v-239z" />
    <glyph glyph-name="uni0156" unicode="&#x156;" horiz-adv-x="640" 
d="M363 318h-14l260 -318h-101l-255 318h-68v-318h-80v720h267q109 0 167 -53.5t58 -148.5t-59.5 -147.5t-174.5 -52.5zM363 648h-178v-259h178q153 0 153 129q0 130 -153 130zM313 -240h-60l51 187h80z" />
    <glyph glyph-name="uni0157" unicode="&#x157;" horiz-adv-x="389" 
d="M159 0h-77v480h51l18 -91h1q58 103 151 103q33 0 59 -12v-79q-32 17 -64 17q-55 0 -97 -50t-42 -129v-239zM87 -240h-59l51 187h79z" />
    <glyph glyph-name="Rcaron" unicode="&#x158;" horiz-adv-x="640" 
d="M490 922l-125 -137h-73l-125 137h81l80 -98l79 98h83zM609 0h-101l-255 318h-68v-318h-80v720h267q109 0 167 -53.5t58 -148.5t-59.5 -147.5t-174.5 -52.5h-14zM363 648h-178v-259h178q153 0 153 129q0 130 -153 130z" />
    <glyph glyph-name="rcaron" unicode="&#x159;" horiz-adv-x="389" 
d="M190 591l80 129h82l-125 -175h-73l-125 175h81zM159 0h-77v480h51l18 -91h1q58 103 151 103q33 0 59 -12v-79q-32 17 -64 17q-55 0 -97 -50t-42 -129v-239z" />
    <glyph glyph-name="Sacute" unicode="&#x15a;" horiz-adv-x="560" 
d="M311 785h-58l95 135h92zM268 -18q-114 0 -200 51l1 87q94 -64 199 -64q73 0 119 35.5t46 97.5q0 46 -33 83q-16 16 -39 28q-24 14 -43 22l-51 21l-8 3l-42 15q-49 21 -78 39q-42 32 -57 58q-22 42 -22 89q0 94 67.5 142.5t163.5 48.5q98 0 180 -49v-84q-87 60 -178 60
q-66 0 -108 -30t-42 -85q0 -38 26 -70q11 -10 33 -24l36 -18l44 -18l16 -6q2 0 4.5 -1.5t6.5 -3t7 -2.5l71 -30q25 -11 64 -40q63 -52 63 -144q0 -105 -71.5 -158t-174.5 -53z" />
    <glyph glyph-name="sacute" unicode="&#x15b;" horiz-adv-x="427" 
d="M247 545h-59l118 175h91zM198 -12q-77 0 -138 31v80q64 -44 141 -44q46 0 74 19.5t28 55.5q0 37 -31 55q-30 17 -68 30q-5 0 -8 3l-42 14q-20 9 -37 18q-31 16 -44.5 40t-16.5 65q0 65 45.5 101t119.5 36q67 0 121 -25v-74q-54 33 -118 33q-40 0 -64 -16.5t-24 -48.5
q0 -25 17 -44q10 -8 23 -14q8 -4 59 -23q54 -18 84 -34q32 -15 47 -40.5t19 -67.5q0 -75 -54 -112.5t-133 -37.5z" />
    <glyph glyph-name="Scircumflex" unicode="&#x15c;" horiz-adv-x="560" 
d="M319 922l124 -137h-82l-79 98l-80 -98h-81l125 137h73zM268 -18q-114 0 -200 51l1 87q94 -64 199 -64q73 0 119 35.5t46 97.5q0 46 -33 83q-16 16 -39 28q-24 14 -43 22l-51 21l-8 3l-42 15q-49 21 -78 39q-42 32 -57 58q-22 42 -22 89q0 94 67.5 142.5t163.5 48.5
q98 0 180 -49v-84q-87 60 -178 60q-66 0 -108 -30t-42 -85q0 -38 26 -70q11 -10 33 -24l36 -18l44 -18l16 -6q2 0 4.5 -1.5t6.5 -3t7 -2.5l71 -30q25 -11 64 -40q63 -52 63 -144q0 -105 -71.5 -158t-174.5 -53z" />
    <glyph glyph-name="scircumflex" unicode="&#x15d;" horiz-adv-x="427" 
d="M254 720l125 -175h-82l-80 129l-79 -129h-82l125 175h73zM198 -12q-77 0 -138 31v80q64 -44 141 -44q46 0 74 19.5t28 55.5q0 37 -31 55q-30 17 -68 30q-5 0 -8 3l-42 14q-20 9 -37 18q-31 16 -44.5 40t-16.5 65q0 65 45.5 101t119.5 36q67 0 121 -25v-74q-54 33 -118 33
q-40 0 -64 -16.5t-24 -48.5q0 -25 17 -44q10 -8 23 -14q8 -4 59 -23q54 -18 84 -34q32 -15 47 -40.5t19 -67.5q0 -75 -54 -112.5t-133 -37.5z" />
    <glyph glyph-name="Scedilla" unicode="&#x15e;" horiz-adv-x="560" 
d="M514 193q0 -98 -61.5 -150t-155.5 -60l-16 -30q20 2 28 2q38 0 60.5 -17t22.5 -52q0 -42 -28 -64.5t-75 -22.5q-39 0 -78 15v52q40 -20 73 -20q23 0 37.5 10.5t14.5 30.5q0 39 -58 39q-20 0 -49 -9l32 65q-111 2 -193 51l1 87q94 -64 199 -64q73 0 119 35.5t46 97.5
q0 46 -33 83q-16 16 -39 28q-24 14 -43 22l-51 21l-8 3l-42 15q-49 21 -78 39q-42 32 -57 58q-22 42 -22 89q0 94 67.5 142.5t163.5 48.5q98 0 180 -49v-84q-87 60 -178 60q-66 0 -108 -30t-42 -85q0 -38 26 -70q11 -10 33 -24l36 -18l44 -18l16 -6q2 0 4.5 -1.5t6.5 -3
t7 -2.5l71 -30q25 -11 64 -40q63 -52 63 -144z" />
    <glyph glyph-name="scedilla" unicode="&#x15f;" horiz-adv-x="427" 
d="M385 138q0 -66 -43 -104t-116 -45l-19 -36q22 2 28 2q38 0 61 -17.5t23 -51.5q0 -42 -28.5 -64.5t-75.5 -22.5q-37 0 -78 15v52q40 -20 73 -20q52 0 52 41q0 39 -58 39q-20 0 -49 -9l35 71q-69 1 -130 31v80q64 -44 141 -44q46 0 74 19.5t28 55.5q0 37 -31 55
q-30 17 -68 30q-5 0 -8 3l-42 14q-20 9 -37 18q-31 16 -44.5 40t-16.5 65q0 65 45.5 101t119.5 36q67 0 121 -25v-74q-54 33 -118 33q-40 0 -64 -16.5t-24 -48.5q0 -25 17 -44q10 -8 23 -14q8 -4 59 -23q54 -18 84 -34q32 -15 47 -40.5t19 -67.5z" />
    <glyph glyph-name="Scaron" unicode="&#x160;" horiz-adv-x="560" 
d="M279 824l80 98h82l-125 -137h-73l-125 137h82zM268 -18q-114 0 -200 51l1 87q94 -64 199 -64q73 0 119 35.5t46 97.5q0 54 -39 88q-28 24 -57 36q-21 10 -70 30l-8 3l-42 15q-49 21 -78 39q-42 32 -57 58q-22 42 -22 89q0 94 67.5 142.5t163.5 48.5q98 0 180 -49v-84
q-87 60 -178 60q-66 0 -108 -30t-42 -85q0 -38 26 -70q11 -10 33 -24l36 -18l44 -18l16 -6q2 0 4.5 -1.5t6.5 -3t7 -2.5l71 -30q25 -11 64 -40q63 -52 63 -144q0 -105 -71.5 -158t-174.5 -53z" />
    <glyph glyph-name="scaron" unicode="&#x161;" horiz-adv-x="427" 
d="M215 591l79 129h82l-125 -175h-72l-125 175h81zM198 -12q-77 0 -138 31v80q64 -44 141 -44q46 0 74 19.5t28 55.5q0 37 -31 55q-30 17 -68 30q-5 0 -8 3l-42 14q-20 9 -37 18q-31 16 -44.5 40t-16.5 65q0 65 45.5 101t119.5 36q67 0 121 -25v-74q-54 33 -118 33
q-40 0 -64 -16.5t-24 -48.5q-4 -25 27 -51q7 -6 21 -11q7 -3 21 -8l30 -11q28 -9 32 -11q35 -9 59 -26q59 -41 59 -105q0 -75 -54 -112.5t-133 -37.5z" />
    <glyph glyph-name="uni0162" unicode="&#x162;" horiz-adv-x="563" 
d="M321 647v-647h-22l-25 -47q22 2 28 2q39 0 61.5 -17t22.5 -52q0 -42 -28.5 -64.5t-74.5 -22.5q-39 0 -79 15v52q42 -20 73 -20q53 0 53 41q0 39 -58 39q-21 0 -50 -9l41 83h-22v647h-221v73h522v-73h-221z" />
    <glyph glyph-name="uni0163" unicode="&#x163;" horiz-adv-x="398" 
d="M354 480v-67h-157l-1 -271q0 -45 15 -65t48 -20q47 0 95 45v-75q-46 -39 -113 -39h-10l-19 -35q22 2 28 2q39 0 61.5 -17t22.5 -52q0 -42 -28.5 -64.5t-74.5 -22.5q-39 0 -79 15v52q42 -20 73 -20q53 0 53 41q0 39 -58 39q-22 0 -50 -9l38 77q-79 22 -79 137v282h-95v67
h95l28 149h51l-1 -149h157z" />
    <glyph glyph-name="Tcaron" unicode="&#x164;" horiz-adv-x="563" 
d="M279 824l79 98h82l-125 -137h-73l-125 137h82zM20 720h522v-73h-221v-647h-80v647h-221v73z" />
    <glyph glyph-name="tcaron" unicode="&#x165;" horiz-adv-x="578" 
d="M415 452l64 268h80l-84 -268h-60zM147 629h51l-1 -149h157v-67h-157l-1 -271q0 -45 15 -65t48 -20q47 0 95 45v-75q-46 -39 -113 -39q-122 0 -122 143v282h-95v67h95z" />
    <glyph glyph-name="Tbar" unicode="&#x166;" horiz-adv-x="563" 
d="M542 720v-73h-221v-266h165v-67h-165v-314h-80v314h-164v67h164v266h-221v73h522z" />
    <glyph glyph-name="tbar" unicode="&#x167;" horiz-adv-x="409" 
d="M363 480v-67h-157l-1 -126h153v-62h-153v-83q0 -45 14.5 -65t47.5 -20q48 0 96 45v-75q-47 -39 -113 -39q-122 0 -122 143v94h-92v62h92v126h-96v67h96l27 149h51v-149h157z" />
    <glyph glyph-name="Utilde" unicode="&#x168;" horiz-adv-x="760" 
d="M490 898h48q0 -50 -23.5 -83t-64.5 -33q-26 0 -72 29.5t-61 29.5q-42 0 -48 -59h-47q0 45 25 80q25 36 69 36q26 0 71.5 -29.5t57.5 -29.5q20 0 32 17.5t13 41.5zM93 267v453h80v-451q0 -98 55 -154.5t152 -56.5t152 56.5t55 154.5v451h80v-453q0 -133 -80 -210
q-79 -75 -207 -75t-207 75q-80 77 -80 210z" />
    <glyph glyph-name="utilde" unicode="&#x169;" 
d="M391 680h48q0 -52 -23.5 -86.5t-64.5 -34.5q-26 0 -72.5 30.5t-59.5 30.5q-43 0 -49 -61h-47q0 47 25 84t69 37q26 0 71.5 -30.5t57.5 -30.5q23 0 34 19.5t11 41.5zM252 -12q-89 0 -133 56q-44 58 -44 143v293h77v-291q0 -131 112 -131q66 0 114.5 52t48.5 131v239h77
v-480h-51l-18 91h-1q-69 -103 -182 -103z" />
    <glyph glyph-name="Umacron" unicode="&#x16a;" horiz-adv-x="760" 
d="M225 863h309v-63h-309v63zM93 267v453h80v-451q0 -98 55 -154.5t152 -56.5t152 56.5t55 154.5v451h80v-453q0 -133 -80 -210q-79 -75 -207 -75t-207 75q-80 77 -80 210z" />
    <glyph glyph-name="umacron" unicode="&#x16b;" 
d="M126 648h309v-63h-309v63zM252 -12q-89 0 -133 56q-44 58 -44 143v293h77v-291q0 -131 112 -131q66 0 114.5 52t48.5 131v239h77v-480h-51l-18 91h-1q-69 -103 -182 -103z" />
    <glyph glyph-name="Ubreve" unicode="&#x16c;" horiz-adv-x="760" 
d="M379 770q-66 0 -106 41t-40 110h54q0 -40 24 -65t68 -25t69.5 25t25.5 65h54q0 -69 -41 -110t-108 -41zM93 267v453h80v-451q0 -98 55 -154.5t152 -56.5t152 56.5t55 154.5v451h80v-453q0 -133 -80 -210q-79 -75 -207 -75t-207 75q-80 77 -80 210z" />
    <glyph glyph-name="ubreve" unicode="&#x16d;" 
d="M280 540q-68 0 -107 47.5t-39 132.5h54q0 -118 92 -118q95 0 95 118h54q0 -86 -39.5 -133t-109.5 -47zM252 -12q-89 0 -133 56q-44 58 -44 143v293h77v-291q0 -131 112 -131q66 0 114.5 52t48.5 131v239h77v-480h-51l-18 91h-1q-69 -103 -182 -103z" />
    <glyph glyph-name="Uring" unicode="&#x16e;" horiz-adv-x="760" 
d="M455 769q-31 -31 -75 -31t-75 31t-31 75t31 75t75 31t75 -31t31 -75t-31 -75zM342 806q16 -15 38 -15t37 15q16 16 16 38t-16 37q-15 16 -37 16t-38 -16q-15 -15 -15 -37t15 -38zM93 267v453h80v-451q0 -98 55 -154.5t152 -56.5t152 56.5t55 154.5v451h80v-453
q0 -133 -80 -210q-79 -75 -207 -75t-207 75q-80 77 -80 210z" />
    <glyph glyph-name="uring" unicode="&#x16f;" 
d="M356 549q-31 -31 -75 -31t-75 31t-31 75t31 75t75 31t75 -31t31 -75t-31 -75zM243 586q16 -15 38 -15t37 15q16 16 16 38t-16 37q-15 16 -37 16t-38 -16q-15 -15 -15 -37t15 -38zM252 -12q-89 0 -133 56q-44 58 -44 143v293h77v-291q0 -131 112 -131q66 0 114.5 52
t48.5 131v239h77v-480h-51l-18 91h-1q-69 -103 -182 -103z" />
    <glyph glyph-name="Uhungarumlaut" unicode="&#x170;" horiz-adv-x="760" 
d="M346 785h-56l50 135h89zM471 785h-56l82 135h89zM93 267v453h80v-451q0 -98 55 -154.5t152 -56.5t152 56.5t55 154.5v451h80v-453q0 -133 -80 -210q-79 -75 -207 -75t-207 75q-80 77 -80 210z" />
    <glyph glyph-name="uhungarumlaut" unicode="&#x171;" 
d="M248 545h-57l70 175h90zM372 545h-56l102 175h90zM252 -12q-89 0 -133 56q-44 58 -44 143v293h77v-291q0 -131 112 -131q66 0 114.5 52t48.5 131v239h77v-480h-51l-18 91h-1q-69 -103 -182 -103z" />
    <glyph glyph-name="Uogonek" unicode="&#x172;" horiz-adv-x="760" 
d="M587 269v451h80v-453q0 -104 -49.5 -174t-136.5 -97q-81 -42 -81 -98q0 -39 43 -39q27 0 50 20v-58q-34 -17 -64 -17q-40 0 -63 22t-23 55q0 59 75 103q-26 -2 -38 -2q-127 0 -207 75.5t-80 209.5v453h80v-451q0 -98 55 -154.5t152 -56.5t152 56.5t55 154.5z" />
    <glyph glyph-name="uogonek" unicode="&#x173;" 
d="M456 -142q27 0 50 20v-58q-32 -17 -64 -17q-40 0 -63 22t-23 55q0 71 109 120h-12l-18 91h-1q-69 -103 -182 -103q-89 0 -133 56q-44 58 -44 143v293h77v-291q0 -131 112 -131q66 0 114.5 52t48.5 131v239h77v-480q-38 -16 -64.5 -44t-26.5 -59q0 -39 43 -39z" />
    <glyph glyph-name="Wcircumflex" unicode="&#x174;" horiz-adv-x="944" 
d="M551 785l-79 98l-80 -98h-82l125 137h73l125 -137h-82zM668 172l170 548h86l-233 -725h-44l-175 553l-176 -553h-44l-232 725h86l169 -548l175 553h44z" />
    <glyph glyph-name="wcircumflex" unicode="&#x175;" horiz-adv-x="722" 
d="M440 545l-79 129l-80 -129h-81l124 175h73l125 -175h-82zM502 139l116 341h83l-174 -485h-46l-120 351l-121 -351h-45l-174 485h83l117 -341l117 346h46z" />
    <glyph glyph-name="Ycircumflex" unicode="&#x176;" horiz-adv-x="640" 
d="M399 785l-79 98l-80 -98h-81l125 137h73l124 -137h-82zM320 342l219 378h86l-265 -450v-270h-80v270l-265 450h86z" />
    <glyph glyph-name="ycircumflex" unicode="&#x177;" horiz-adv-x="484" 
d="M320 545l-80 129l-79 -129h-82l125 175h73l125 -175h-82zM242 114l142 366h83l-185 -441l-107 -269h-83l114 260l-189 450h83z" />
    <glyph glyph-name="Ydieresis" unicode="&#x178;" horiz-adv-x="640" 
d="M224 792q-23 0 -39.5 17.5t-16.5 40.5t16.5 39.5t39.5 16.5q24 0 41 -16.5t17 -39.5q0 -24 -17 -41t-41 -17zM415 792q-23 0 -40 17t-17 41q0 23 17 39.5t40 16.5q24 0 40.5 -16.5t16.5 -39.5q0 -24 -16.5 -41t-40.5 -17zM320 342l219 378h86l-265 -450v-270h-80v270
l-265 450h86z" />
    <glyph glyph-name="Zacute" unicode="&#x179;" horiz-adv-x="596" 
d="M369 920h92l-128 -135h-59zM47 720h515v-6l-410 -641h400l-1 -73h-525v6l406 641h-386z" />
    <glyph glyph-name="zacute" unicode="&#x17a;" horiz-adv-x="454" 
d="M316 720h92l-151 -175h-58zM44 480h374v-6l-264 -406h258v-68h-380v6l264 407h-252v67z" />
    <glyph glyph-name="Zdotaccent" unicode="&#x17b;" horiz-adv-x="596" 
d="M302 794q-23 0 -39.5 17.5t-16.5 40.5t16.5 39.5t39.5 16.5q24 0 41 -16.5t17 -39.5q0 -24 -17 -41t-41 -17zM47 720h515v-6l-410 -641h400l-1 -73h-525v6l406 641h-386z" />
    <glyph glyph-name="zdotaccent" unicode="&#x17c;" horiz-adv-x="454" 
d="M227 580q-23 0 -39.5 17t-16.5 40t16.5 40t39.5 17q24 0 41 -17t17 -40t-17 -40t-41 -17zM44 480h374v-6l-264 -406h258v-68h-380v6l264 407h-252v67z" />
    <glyph glyph-name="Zcaron" unicode="&#x17d;" horiz-adv-x="596" 
d="M462 922l-125 -137h-73l-124 137h81l80 -98l79 98h82zM47 720h515v-6l-410 -641h400l-1 -73h-525v6l406 641h-386z" />
    <glyph glyph-name="zcaron" unicode="&#x17e;" horiz-adv-x="454" 
d="M387 720l-125 -175h-73l-125 175h82l79 -129l80 129h82zM44 480h374v-6l-264 -406h258v-68h-380v6l264 407h-252v67z" />
    <glyph glyph-name="uni018F" unicode="&#x18f;" horiz-adv-x="754" 
d="M349 739q164 0 256.5 -109t92.5 -274q3 -157 -92.5 -266t-247.5 -108q-145 0 -230 104t-66 303h548q-5 122 -71.5 198.5t-187.5 76.5q-129 0 -253 -96v86q113 85 251 85zM358 54q110 0 177 73q69 73 75 194h-473q-2 -124 58 -195.5t163 -71.5z" />
    <glyph glyph-name="florin" unicode="&#x192;" horiz-adv-x="549" 
d="M448 696q27 0 57 -5v-73q-27 8 -53 8q-47 0 -76 -38q-7 -11 -11 -25q-5 -14 -13 -51l-20 -111h110l-14 -63h-108l-57 -308q-16 -85 -56.5 -126.5t-109.5 -41.5q-34 0 -59 4v73q26 -6 61 -6q41 0 61 26t30 86l55 293h-98l16 63h94l23 127q12 53 27 84q38 80 141 84z" />
    <glyph glyph-name="AEacute" unicode="&#x1fc;" horiz-adv-x="957" 
d="M567 920h92l-129 -135h-58zM539 333v-259l346 -1v-73h-426v195h-249l-118 -195h-87l454 720h418v-73h-338v-241h314v-73h-314zM459 605l-205 -338h205v338z" />
    <glyph glyph-name="aeacute" unicode="&#x1fd;" horiz-adv-x="909" 
d="M493 720h91l-150 -175h-59zM662 492q100 0 155 -73q56 -73 41 -207h-353q5 -73 51.5 -114.5t125.5 -41.5q84 0 152 53v-73q-62 -48 -154 -48q-64 0 -113 24.5t-72 62.5l-12 -75h-38l-12 74q-29 -38 -73 -62t-94 -24q-96 0 -157 73q-62 74 -62 179q0 106 62.5 179
t156.5 73q50 0 94 -24t73 -62l12 74h38l12 -73q24 38 68.5 61.5t98.5 23.5zM659 428q-65 0 -108 -45q-43 -44 -47 -111h285q-1 75 -35 115.5t-95 40.5zM275 59q66 0 109 49q45 50 45 123v18q0 73 -45 122q-44 50 -109 50q-67 0 -109 -52q-42 -53 -42 -129t42 -129
q42 -52 109 -52z" />
    <glyph glyph-name="Oslashacute" unicode="&#x1fe;" horiz-adv-x="856" 
d="M494 925h91l-128 -135h-58zM752 698l-57 -68q108 -110 108 -270q4 -156 -106 -268t-269 -110q-125 0 -220 68l-57 -68l-48 40l57 68q-107 109 -107 270q-3 156 106 268t269 110q125 0 219 -67l57 67zM136 360q0 -122 77 -208l383 457q-74 53 -168 53q-127 0 -209 -88
q-83 -88 -83 -214zM428 58q126 0 208 87q83 89 83 215q0 122 -77 208l-383 -457q74 -53 169 -53z" />
    <glyph glyph-name="oslashacute" unicode="&#x1ff;" 
d="M382 720h91l-150 -175h-59zM538 462l-54 -56q59 -71 59 -166q0 -105 -71 -179q-70 -73 -179 -73q-92 0 -159 55l-53 -55l-32 31l53 55q-58 70 -58 166q-2 103 71 178t178 74q93 0 160 -55l53 55zM121 240q0 -62 35 -111l245 254q-46 37 -108 37q-75 0 -124 -52
q-48 -52 -48 -128zM293 60q75 0 123 52q49 52 49 128q0 64 -34 111l-245 -254q46 -37 107 -37z" />
    <glyph glyph-name="uni0218" unicode="&#x218;" horiz-adv-x="560" 
d="M268 -18q-114 0 -200 51l1 87q94 -64 199 -64q73 0 119 35.5t46 97.5q0 54 -39 88q-28 24 -57 36q-21 10 -70 30l-8 3l-42 15q-49 21 -78 39q-42 32 -57 58q-22 42 -22 89q0 94 67.5 142.5t163.5 48.5q98 0 180 -49v-84q-87 60 -178 60q-66 0 -108 -30t-42 -85
q0 -38 26 -70q11 -10 33 -24l36 -18l44 -18l16 -6q2 0 4.5 -1.5t6.5 -3t7 -2.5l71 -30q25 -11 64 -40q63 -52 63 -144q0 -105 -71.5 -158t-174.5 -53zM257 -240h-60l51 187h80z" />
    <glyph glyph-name="uni0219" unicode="&#x219;" horiz-adv-x="427" 
d="M198 -12q-77 0 -138 31v80q64 -44 141 -44q46 0 74 19.5t28 55.5q0 37 -31 55q-30 17 -68 30q-5 0 -8 3l-42 14q-20 9 -37 18q-31 16 -44.5 40t-16.5 65q0 65 45.5 101t119.5 36q67 0 121 -25v-74q-54 33 -118 33q-40 0 -64 -16.5t-24 -48.5q0 -25 17 -44q10 -8 23 -14
q8 -4 59 -23q54 -18 84 -34q32 -15 47 -40.5t19 -67.5q0 -75 -54 -112.5t-133 -37.5zM183 -240h-60l51 187h80z" />
    <glyph glyph-name="uni021A" unicode="&#x21a;" horiz-adv-x="563" 
d="M20 720h522v-73h-221v-647h-80v647h-221v73zM250 -240h-59l51 187h79z" />
    <glyph glyph-name="uni021B" unicode="&#x21b;" horiz-adv-x="398" 
d="M354 480v-67h-157l-1 -271q0 -45 15 -65t48 -20q47 0 95 45v-75q-46 -39 -113 -39q-122 0 -122 143v282h-95v67h95l28 149h51l-1 -149h157zM188 -240h-59l51 187h79z" />
    <glyph glyph-name="uni0237" unicode="&#x237;" horiz-adv-x="241" 
d="M38 -228q-38 0 -73 15v70q28 -16 55 -16q33 0 48 19.5t15 66.5l-2 553h79v-564q0 -144 -122 -144z" />
    <glyph glyph-name="uni0259" unicode="&#x259;" horiz-adv-x="538" 
d="M246 492q113 0 179.5 -69t66.5 -182q0 -109 -65 -182q-65 -71 -172 -71q-105 0 -163 72q-58 73 -42 208h362q-5 71 -49 113.5t-119 42.5q-87 0 -169 -55v75q77 48 171 48zM255 52q67 0 110 43t48 113h-294q-1 -74 36 -115t100 -41z" />
    <glyph glyph-name="uni02BC" unicode="&#x2bc;" horiz-adv-x="204" 
d="M111 470h-60l65 268h79z" />
    <glyph glyph-name="circumflex" unicode="&#x2c6;" horiz-adv-x="518" 
d="M295 720l125 -175h-82l-79 129l-80 -129h-81l124 175h73z" />
    <glyph glyph-name="caron" unicode="&#x2c7;" horiz-adv-x="518" 
d="M259 591l79 129h82l-125 -175h-73l-124 175h81z" />
    <glyph glyph-name="breve" unicode="&#x2d8;" horiz-adv-x="494" 
d="M246 540q-68 0 -107 47.5t-39 132.5h54q0 -118 92 -118q95 0 95 118h54q0 -86 -39.5 -133t-109.5 -47z" />
    <glyph glyph-name="dotaccent" unicode="&#x2d9;" horiz-adv-x="314" 
d="M156 694q24 0 41 -17t17 -40t-17 -40t-41 -17q-23 0 -39.5 17t-16.5 40t16.5 40t39.5 17z" />
    <glyph glyph-name="ring" unicode="&#x2da;" horiz-adv-x="320" 
d="M235 549q-31 -31 -75 -31t-75 31t-31 75t31 75t75 31t75 -31t31 -75t-31 -75zM122 586q16 -15 38 -15t37 15q16 16 16 38t-16 37q-15 16 -37 16t-38 -16q-15 -15 -15 -37t15 -38z" />
    <glyph glyph-name="ogonek" unicode="&#x2db;" horiz-adv-x="249" 
d="M151 -122v-58q-32 -17 -63 -17q-40 0 -63 22t-23 55q0 70 108 120h39q-38 -16 -64.5 -44t-26.5 -59q0 -39 43 -39q27 0 50 20z" />
    <glyph glyph-name="tilde" unicode="&#x2dc;" horiz-adv-x="511" 
d="M366 680h47q0 -52 -23 -86.5t-64 -34.5q-27 0 -72.5 30.5t-60.5 30.5q-42 0 -48 -61h-47q0 47 25 84t69 37q26 0 71.5 -30.5t57.5 -30.5q21 0 32 19t13 42z" />
    <glyph glyph-name="hungarumlaut" unicode="&#x2dd;" horiz-adv-x="600" 
d="M258 545h-56l70 175h89zM383 545h-57l103 175h89z" />
    <glyph glyph-name="uni0374" unicode="&#x374;" horiz-adv-x="600" 
 />
    <glyph glyph-name="uni0375" unicode="&#x375;" horiz-adv-x="600" 
 />
    <glyph glyph-name="uni037E" unicode="&#x37e;" horiz-adv-x="338" 
d="M113 492q25 0 42 -17.5t17 -43.5q0 -25 -17 -43t-42 -18q-26 0 -43 18t-17 43q0 26 17 43.5t43 17.5zM88 111h79l-84 -269h-59z" />
    <glyph glyph-name="tonos" unicode="&#x384;" horiz-adv-x="600" 
d="M122 545h-59l118 175h91z" />
    <glyph glyph-name="dieresistonos" unicode="&#x385;" horiz-adv-x="600" 
d="M255 572h-44l33 167h75zM143 671q22 0 38 -15.5t16 -36.5q0 -23 -16 -39t-38 -16t-37.5 16t-15.5 39q0 21 15.5 36.5t37.5 15.5zM354 671q22 0 38 -15.5t16 -36.5q0 -23 -16 -39t-38 -16t-37.5 16t-15.5 39q0 21 15.5 36.5t37.5 15.5z" />
    <glyph glyph-name="Alphatonos" unicode="&#x386;" horiz-adv-x="683" 
d="M668 0h-86l-77 196h-306l-77 -196h-86l294 725h44zM148 720h84l-72 -187h-54zM352 586l-125 -318h250z" />
    <glyph glyph-name="anoteleia" unicode="&#x387;" horiz-adv-x="338" 
d="M113 417q25 0 42 -17.5t17 -43.5q0 -25 -17 -43t-42 -18q-26 0 -43 18t-17 43q0 26 17 43.5t43 17.5z" />
    <glyph glyph-name="Epsilontonos" unicode="&#x388;" horiz-adv-x="703" 
d="M54 533h-53l42 187h84zM180 720h452v-73h-372v-241h343v-73h-343v-260h372v-73h-452v720z" />
    <glyph glyph-name="Etatonos" unicode="&#x389;" horiz-adv-x="857" 
d="M54 533h-54l43 187h84zM673 397v323h80v-720h-80v323h-419v-323h-80v720h80v-323h419z" />
    <glyph glyph-name="Iotatonos" unicode="&#x38a;" horiz-adv-x="366" 
d="M54 533h-54l43 187h84zM182 720h80v-720h-80v720z" />
    <glyph glyph-name="Omicrontonos" unicode="&#x38c;" horiz-adv-x="869" 
d="M442 -18q-162 0 -268.5 109.5t-106.5 268.5q0 104 47.5 190t133.5 137q87 51 194 51q108 0 194 -51t133.5 -137t47.5 -190q3 -156 -106 -268t-269 -110zM35 533h-54l43 187h84zM734 360q2 125 -83 214.5t-209 87.5q-127 0 -209 -88q-82 -86 -82 -214q0 -127 82 -215
q83 -87 209 -87t209 87q83 89 83 215z" />
    <glyph glyph-name="Upsilontonos" unicode="&#x38e;" horiz-adv-x="765" 
d="M59 533h-54l42 187h84zM445 342l219 378h86l-265 -450v-270h-80v270l-265 450h87z" />
    <glyph glyph-name="Omegatonos" unicode="&#x38f;" horiz-adv-x="888" 
d="M859 382q0 -188 -175 -309h142v-73h-258v73q96 44 151 124q57 83 57 180q0 122 -81 203q-79 82 -211 82t-211 -82q-80 -82 -80 -203q0 -97 56 -180q56 -80 152 -124v-73h-258v73h141q-175 121 -175 309q0 150 104 253t271 103t271 -103t104 -253zM4 533l42 187h84
l-72 -187h-54z" />
    <glyph glyph-name="iotadieresistonos" unicode="&#x390;" horiz-adv-x="295" 
d="M131 572h-44l34 167h74zM19 671q22 0 38 -15.5t16 -36.5q0 -23 -16 -39t-38 -16t-37.5 16t-15.5 39q0 21 15.5 36.5t37.5 15.5zM230 671q22 0 38 -15.5t16 -36.5q0 -23 -16 -39t-38 -16t-37.5 16t-15.5 39q0 21 15.5 36.5t37.5 15.5zM188 -12q-60 0 -85.5 36t-25.5 107
v349h77v-338q0 -48 11.5 -66.5t40.5 -18.5q27 0 56 16v-70q-34 -15 -74 -15z" />
    <glyph glyph-name="Alpha" unicode="&#x391;" horiz-adv-x="663" 
d="M648 0h-86l-77 196h-307l-76 -196h-87l294 725h45zM332 586l-125 -318h249z" />
    <glyph glyph-name="Beta" unicode="&#x392;" horiz-adv-x="688" 
d="M470 376v-2q78 -9 122.5 -56t44.5 -120q0 -93 -57 -145.5t-156 -52.5h-319v720h281q106 0 161.5 -46.5t55.5 -133.5q0 -63 -36.5 -106.5t-96.5 -57.5zM386 648h-201v-243h201q58 0 98 38q40 39 40 91q0 114 -138 114zM185 72h237q67 0 101 34t34 96q0 54 -41 95
q-40 40 -102 40h-229v-265z" />
    <glyph glyph-name="Gamma" unicode="&#x393;" horiz-adv-x="551" 
d="M185 0h-80v720h426v-73h-346v-647z" />
    <glyph glyph-name="uni0394" unicode="&#x394;" horiz-adv-x="685" 
d="M320 724h44l305 -724h-654zM558 73l-216 514l-216 -514h432z" />
    <glyph glyph-name="Epsilon" unicode="&#x395;" horiz-adv-x="629" 
d="M105 720h452v-73h-372v-241h343v-73h-343v-260h372v-73h-452v720z" />
    <glyph glyph-name="Zeta" unicode="&#x396;" horiz-adv-x="596" 
d="M47 720h515v-6l-410 -641h400l-1 -73h-525v6l406 641h-386z" />
    <glyph glyph-name="Eta" unicode="&#x397;" horiz-adv-x="789" 
d="M604 397v323h80v-720h-80v323h-419v-323h-80v720h80v-323h419z" />
    <glyph glyph-name="Theta" unicode="&#x398;" horiz-adv-x="856" 
d="M428 -18q-162 0 -268.5 109.5t-106.5 268.5q0 104 47.5 190t133.5 137t193 51q109 0 194 -51q87 -51 134.5 -136.5t47.5 -190.5q4 -156 -106 -268t-269 -110zM219 145q83 -87 209 -87t208 87q83 89 83 215t-83 214q-82 88 -208 88q-127 0 -209 -88q-83 -88 -83 -214
t83 -215zM679 330h-502v61h502v-61z" />
    <glyph glyph-name="Iota" unicode="&#x399;" horiz-adv-x="290" 
d="M105 720h80v-720h-80v720z" />
    <glyph glyph-name="Kappa" unicode="&#x39a;" horiz-adv-x="602" 
d="M591 0h-96l-295 327h-13v-327h-82v720h82v-327h12l289 327h97l-323 -360z" />
    <glyph glyph-name="Lambda" unicode="&#x39b;" horiz-adv-x="663" 
d="M354 725l294 -725h-86l-230 586l-230 -586h-87l294 725h45z" />
    <glyph glyph-name="Mu" unicode="&#x39c;" horiz-adv-x="935" 
d="M468 197l318 528h44v-725h-79v518h-2l-278 -453h-6l-279 453h-2v-518h-79v725h44z" />
    <glyph glyph-name="Nu" unicode="&#x39d;" horiz-adv-x="812" 
d="M627 720h80v-725h-45l-475 556h-2v-551h-80v725h45l476 -556h2z" />
    <glyph glyph-name="Xi" unicode="&#x39e;" horiz-adv-x="606" 
d="M76 720h452v-73h-452v73zM514 406v-73h-423v73h423zM528 73v-73h-452v73h452z" />
    <glyph glyph-name="Omicron" unicode="&#x39f;" horiz-adv-x="856" 
d="M428 -18q-162 0 -268.5 109.5t-106.5 268.5q0 104 47.5 190t133.5 137t193 51q109 0 194 -51q87 -51 134.5 -136.5t47.5 -190.5q4 -156 -106 -268t-269 -110zM219 145q83 -87 209 -87t208 87q83 89 83 215t-83 214q-82 88 -208 88q-127 0 -209 -88q-83 -88 -83 -214
t83 -215z" />
    <glyph glyph-name="Pi" unicode="&#x3a0;" horiz-adv-x="762" 
d="M105 720h552v-720h-80v647h-392v-647h-80v720z" />
    <glyph glyph-name="Rho" unicode="&#x3a1;" horiz-adv-x="620" 
d="M105 720h261q104 0 163 -59t59 -158q0 -100 -58.5 -159t-163.5 -59h-181v-285h-80v720zM185 357h175q72 0 109.5 37.5t37.5 108.5q0 70 -38 108t-109 37h-175v-291z" />
    <glyph glyph-name="Sigma" unicode="&#x3a3;" horiz-adv-x="606" 
d="M158 647l224 -287l-224 -287h385l-1 -73h-525v6l276 354l-276 354v6h525l1 -73h-385z" />
    <glyph glyph-name="Tau" unicode="&#x3a4;" horiz-adv-x="563" 
d="M20 720h522v-73h-221v-647h-80v647h-221v73z" />
    <glyph glyph-name="Upsilon" unicode="&#x3a5;" horiz-adv-x="640" 
d="M320 342l219 378h86l-265 -450v-270h-80v270l-265 450h86z" />
    <glyph glyph-name="Phi" unicode="&#x3a6;" horiz-adv-x="849" 
d="M465 63v-63h-80v63q-151 11 -243 91q-93 82 -93 206t93 205q92 81 243 92v63h80v-63q151 -11 241 -92q93 -81 93 -205t-93 -205q-92 -81 -241 -92zM133 360q0 -94 69 -152q68 -58 183 -67v439q-113 -10 -183 -69q-69 -59 -69 -151zM465 580v-439q112 9 182 68
q69 59 69 151q0 93 -70 151q-69 59 -181 69z" />
    <glyph glyph-name="Chi" unicode="&#x3a7;" horiz-adv-x="615" 
d="M351 367l250 -367h-94l-200 312l-200 -312h-94l249 366l-237 354h93l189 -300l189 300h93z" />
    <glyph glyph-name="Psi" unicode="&#x3a8;" horiz-adv-x="779" 
d="M628 415v305h80v-307q0 -124 -77 -198t-201 -85v-130h-80v130q-125 11 -203 84q-77 75 -77 199v307h80v-305q0 -88 52.5 -143.5t147.5 -65.5v514h80v-514q93 10 145.5 66t52.5 143z" />
    <glyph glyph-name="uni03A9" unicode="&#x3a9;" horiz-adv-x="890" 
d="M820 382q0 -188 -175 -309h141v-73h-258v73q97 44 152 124q57 83 57 180q0 122 -80.5 203.5t-211.5 81.5q-132 0 -211 -82q-80 -82 -80 -203q0 -97 56 -180q56 -80 152 -124v-73h-258v73h141q-175 121 -175 309q0 150 104 253t271 103t271 -103t104 -253z" />
    <glyph glyph-name="Iotadieresis" unicode="&#x3aa;" horiz-adv-x="290" 
d="M50 906q24 0 41 -16.5t17 -39.5q0 -24 -17 -41t-41 -17q-23 0 -39.5 17.5t-16.5 40.5t16.5 39.5t39.5 16.5zM241 906q24 0 41 -16.5t17 -39.5q0 -24 -17 -41t-41 -17q-23 0 -39.5 17t-16.5 41q0 23 16.5 39.5t39.5 16.5zM106 720h80v-720h-80v720z" />
    <glyph glyph-name="Upsilondieresis" unicode="&#x3ab;" horiz-adv-x="640" 
d="M224 792q-23 0 -39.5 17.5t-16.5 40.5t16.5 39.5t39.5 16.5q24 0 41 -16.5t17 -39.5q0 -24 -17 -41t-41 -17zM415 792q-23 0 -40 17t-17 41q0 23 17 39.5t40 16.5q24 0 40.5 -16.5t16.5 -39.5q0 -24 -16.5 -41t-40.5 -17zM320 342l219 378h86l-265 -450v-270h-80v270
l-265 450h86z" />
    <glyph glyph-name="alphatonos" unicode="&#x3ac;" horiz-adv-x="618" 
d="M328 545h-58l118 175h91zM280 -12q-100 0 -168 72q-66 74 -66 180q0 107 66 179q67 73 168 73q110 0 186 -90h3l29 78h51l-18 -240l18 -240h-51l-29 78h-3q-74 -90 -186 -90zM288 59q71 0 120 49t49 123v18q0 73 -49 122q-50 50 -120 50q-73 0 -119 -52t-46 -129t46 -129
t119 -52z" />
    <glyph glyph-name="epsilontonos" unicode="&#x3ad;" horiz-adv-x="473" 
d="M326 720h92l-151 -175h-58zM256 58q99 0 166 64v-89q-69 -45 -171 -45q-91 0 -149 38.5t-58 101.5q0 88 109 125q-93 41 -93 111q0 56 51 92t137 36q92 0 166 -48v-82q-68 61 -158 61q-56 0 -87 -18.5t-31 -51.5q0 -35 32.5 -55t90.5 -20h48v-58h-48q-64 0 -101.5 -22.5
t-37.5 -58.5q0 -37 36.5 -59t97.5 -22z" />
    <glyph glyph-name="etatonos" unicode="&#x3ae;" 
d="M324 545h-58l117 175h92zM334 492q90 0 133 -57q44 -56 44 -142v-493h-77v491q0 131 -112 131q-67 0 -115 -52q-48 -51 -48 -131v-239h-77v480h51l18 -91h1q69 103 182 103z" />
    <glyph glyph-name="iotatonos" unicode="&#x3af;" horiz-adv-x="295" 
d="M143 545h-59l118 175h91zM187 -12q-60 0 -85.5 36t-25.5 107v349h77v-338q0 -48 11 -66.5t41 -18.5q27 0 55 16v-70q-34 -15 -73 -15z" />
    <glyph glyph-name="upsilondieresistonos" unicode="&#x3b0;" horiz-adv-x="541" 
d="M287 572h-45l34 167h74zM174 671q22 0 38 -15.5t16 -36.5q0 -23 -16 -39t-38 -16t-37.5 16t-15.5 39q0 21 15.5 36.5t37.5 15.5zM385 671q22 0 38 -15.5t16 -36.5q0 -23 -16 -39t-38 -16t-37.5 16t-15.5 39q0 21 15.5 36.5t37.5 15.5zM258 -12q-91 0 -137 53t-46 146v293
h77v-291q0 -54 25 -92.5t83 -38.5q73 0 109.5 57t36.5 159q0 98 -33 206h78q29 -107 29 -200q0 -139 -55.5 -215.5t-166.5 -76.5z" />
    <glyph glyph-name="alpha" unicode="&#x3b1;" horiz-adv-x="618" 
d="M280 -12q-100 0 -168 72q-66 74 -66 180q0 107 66 179q67 73 168 73q110 0 186 -90h3l29 78h51l-18 -240l18 -240h-51l-29 78h-3q-74 -90 -186 -90zM288 59q71 0 120 49t49 123v18q0 73 -49 122q-50 50 -120 50q-73 0 -119 -52t-46 -129t46 -129t119 -52z" />
    <glyph glyph-name="beta" unicode="&#x3b2;" horiz-adv-x="564" 
d="M363 357q159 -37 159 -177q0 -87 -57 -139.5t-155 -52.5q-80 0 -150 43v-231h-78v680q0 115 56 183q56 69 152 69q88 0 141 -52t53 -141q0 -63 -32 -111t-89 -71zM302 58q66 0 102.5 33.5t36.5 93.5q0 68 -53 103t-148 35v62q78 0 123.5 41t45.5 110q0 59 -32 93.5
t-87 34.5q-58 0 -94 -49t-36 -135v-371q74 -51 142 -51z" />
    <glyph glyph-name="gamma" unicode="&#x3b3;" horiz-adv-x="474" 
d="M356 480h76q9 -109 -35 -230q-43 -120 -126 -228v-222h-77v221l-175 459h83l139 -388q62 91 93.5 193.5t21.5 194.5z" />
    <glyph glyph-name="delta" unicode="&#x3b4;" horiz-adv-x="592" 
d="M540 653h-288q131 -52 212.5 -166t81.5 -237q0 -115 -70 -189q-69 -74 -181 -74q-109 0 -179 73t-70 183q0 105 69 177q71 72 176 72q53 0 102 -20q-55 72 -146 121t-195 62v65h488v-67zM295 60q75 0 124 52t49 128t-49 128t-124 52q-74 0 -123 -52t-49 -128t49 -128
t123 -52z" />
    <glyph glyph-name="epsilon" unicode="&#x3b5;" horiz-adv-x="473" 
d="M256 58q99 0 166 64v-89q-69 -45 -171 -45q-91 0 -149 38.5t-58 101.5q0 88 109 125q-93 41 -93 111q0 56 51 92t137 36q92 0 166 -48v-82q-68 61 -158 61q-56 0 -87 -18.5t-31 -51.5q0 -35 32.5 -55t90.5 -20h48v-58h-48q-64 0 -101.5 -22.5t-37.5 -58.5q0 -37 36.5 -59
t97.5 -22z" />
    <glyph glyph-name="zeta" unicode="&#x3b6;" horiz-adv-x="500" 
d="M510 720v-65q-95 -22 -196 -92q-84 -56 -138.5 -132t-53.5 -157q0 -55 33.5 -95t82.5 -61.5t103.5 -48t96 -55t61.5 -83t-1 -131.5h-76q13 52 3.5 91.5t-33.5 62t-59 43t-74 33.5t-77.5 34t-69 44.5t-49.5 64t-19 93.5q0 70 41 146q42 78 121 143t175 98h-1h-313v67h443z
" />
    <glyph glyph-name="eta" unicode="&#x3b7;" 
d="M334 492q90 0 133 -57q44 -56 44 -142v-493h-77v491q0 131 -112 131q-67 0 -115 -52q-48 -51 -48 -131v-239h-77v480h51l18 -91h1q69 103 182 103z" />
    <glyph glyph-name="theta" unicode="&#x3b8;" horiz-adv-x="601" 
d="M550 360q0 -159 -68 -265.5t-182 -106.5q-112 -1 -181.5 107t-67.5 265q-2 157 67.5 265t181.5 107q114 0 182 -106t68 -266zM300 660q-75 0 -120 -75t-51 -194h343q-6 119 -51 194t-121 75zM300 61q76 0 121 75q46 75 51 194h-343q4 -118 50 -194q47 -75 121 -75z" />
    <glyph glyph-name="iota" unicode="&#x3b9;" horiz-adv-x="295" 
d="M187 -12q-60 0 -85.5 36t-25.5 107v349h77v-338q0 -48 11.5 -66.5t40.5 -18.5q27 0 56 16v-70q-35 -15 -74 -15z" />
    <glyph glyph-name="kappa" unicode="&#x3ba;" horiz-adv-x="491" 
d="M476 0h-92l-185 211h-38v-211h-79v480h79v-201h36l177 201h92l-208 -234z" />
    <glyph glyph-name="lambda" unicode="&#x3bb;" horiz-adv-x="485" 
d="M282 441l185 -441h-83l-144 360l-139 -360h-83l186 444l-111 266h83z" />
    <glyph glyph-name="uni03BC" unicode="&#x3bc;" horiz-adv-x="593" 
d="M434 241v239h77v-480h-51l-17 91h-2q-69 -103 -182 -103q-61 0 -104 30l4 -218h-77v680h77v-291q0 -131 113 -131q66 0 114 51q48 53 48 132z" />
    <glyph glyph-name="nu" unicode="&#x3bd;" horiz-adv-x="461" 
d="M342 480h76q11 -118 -40 -245q-50 -127 -141 -240h-46l-185 485h83l140 -390q60 88 91 191q32 106 22 199z" />
    <glyph glyph-name="xi" unicode="&#x3be;" horiz-adv-x="444" 
d="M273 662q-60 0 -96.5 -23t-36.5 -61t40 -61.5t105 -23.5h46v-63h-46q-67 0 -117.5 -35t-50.5 -111q0 -38 21.5 -69.5t54.5 -51.5l72 -43.5t74 -47.5t61.5 -62t33 -87t-10.5 -123h-76q14 67 6 109t-34.5 76.5t-61 55.5l-72.5 45t-70 47t-52.5 60.5t-20.5 84.5
q0 127 140 180q-121 38 -121 131q0 64 58.5 103.5t148.5 39.5q103 0 172 -45v-89q-68 64 -167 64z" />
    <glyph glyph-name="omicron" unicode="&#x3bf;" 
d="M44 240q-2 103 71 178t178 74q109 0 179 -73q71 -74 71 -179t-71 -179q-70 -73 -179 -73t-179 73t-70 179zM293 60q75 0 123 52q49 52 49 128t-49 128q-48 52 -123 52t-124 -52q-48 -52 -48 -128t48 -128q49 -52 124 -52z" />
    <glyph glyph-name="pi" unicode="&#x3c0;" horiz-adv-x="684" 
d="M636 480v-70h-145v-268q0 -47 14.5 -66t47.5 -19q39 0 83 26v-70q-47 -25 -103 -25q-121 0 -121 143v279h-182v-410h-77v410h-124v70h607z" />
    <glyph glyph-name="rho" unicode="&#x3c1;" horiz-adv-x="611" 
d="M318 492q108 0 178 -73q71 -74 71 -179q0 -106 -70 -179t-177 -73q-101 0 -174 70v-258h-78v440q0 105 71 178.5t179 73.5zM318 60q75 0 123 52q49 52 49 128t-49 128q-48 52 -123 52t-124 -52q-48 -52 -48 -128t48 -128q49 -52 124 -52z" />
    <glyph glyph-name="uni03C2" unicode="&#x3c2;" horiz-adv-x="450" 
d="M121 266q0 -44 20.5 -78t52.5 -54.5t70.5 -42.5l73 -40.5t60.5 -49t33.5 -69t-8.5 -100.5h-76q13 54 4 85.5t-35.5 58t-60.5 42.5t-71.5 38.5t-68.5 46t-51 65.5t-20 97q0 96 68 161q69 66 183 66q84 0 139 -37v-78q-62 44 -139 44q-82 0 -129 -47q-45 -46 -45 -108z" />
    <glyph glyph-name="sigma" unicode="&#x3c3;" horiz-adv-x="621" 
d="M293 492h275v-69h-103q78 -72 78 -183q0 -105 -71 -179q-70 -73 -179 -73t-179 73t-70 179q-2 103 71 178t178 74zM293 60q75 0 123 52q49 52 49 128t-49 128q-48 52 -123 52t-124 -52q-48 -52 -48 -128t48 -128q49 -52 124 -52z" />
    <glyph glyph-name="tau" unicode="&#x3c4;" horiz-adv-x="440" 
d="M389 480v-70h-146v-268q0 -46 14.5 -65.5t47.5 -19.5q38 0 84 26v-70q-47 -25 -104 -25q-120 0 -120 143v279h-145v70h369z" />
    <glyph glyph-name="upsilon" unicode="&#x3c5;" horiz-adv-x="541" 
d="M258 -12q-91 0 -137 53t-46 146v293h77v-291q0 -54 25 -92.5t83 -38.5q73 0 109.5 57t36.5 159q0 98 -33 206h78q29 -107 29 -200q0 -139 -55.5 -215.5t-166.5 -76.5z" />
    <glyph glyph-name="phi" unicode="&#x3c6;" horiz-adv-x="679" 
d="M637 240q0 -100 -70 -170t-187 -80v-190h-78v190q-120 11 -189 80q-69 70 -69 170q0 87 56 154q57 68 150 90v-75q-62 -20 -95.5 -64t-33.5 -105q0 -72 48 -122t133 -57v429q20 2 38 2q133 1 216.5 -72t80.5 -180zM380 419v-358q85 7 132.5 56.5t47.5 122.5t-48.5 122
t-131.5 57z" />
    <glyph glyph-name="chi" unicode="&#x3c7;" horiz-adv-x="464" 
d="M273 154l173 -354h-87l-127 278l-128 -278h-86l173 354l-166 326h87l120 -252l120 252h86z" />
    <glyph glyph-name="psi" unicode="&#x3c8;" horiz-adv-x="678" 
d="M625 280q0 -126 -62.5 -202t-186.5 -88v-190h-77v189q-106 8 -169 69t-63 158v264h76v-262q0 -64 40 -107.5t116 -51.5v631h77v-629q88 12 132.5 67.5t44.5 145.5q0 92 -49 206h76q45 -110 45 -200z" />
    <glyph glyph-name="omega" unicode="&#x3c9;" horiz-adv-x="828" 
d="M660 480h80q27 -103 27 -200q0 -135 -51.5 -213.5t-157.5 -78.5q-104 0 -144 85q-40 -85 -144 -85q-105 0 -157 76.5t-52 215.5q0 96 27 200h80q-32 -111 -32 -206q0 -100 33.5 -158t102.5 -58q55 0 79 38.5t24 92.5v291h77v-291q0 -54 24.5 -92.5t79.5 -38.5
q67 0 101.5 57t34.5 159q0 95 -32 206z" />
    <glyph glyph-name="iotadieresis" unicode="&#x3ca;" horiz-adv-x="295" 
d="M19 694q23 0 40 -17t17 -40t-17 -40t-40 -17t-40 17t-17 40t17 40t40 17zM209 694q24 0 41 -17t17 -40t-17 -40t-41 -17q-23 0 -39.5 17t-16.5 40t16.5 40t39.5 17zM188 -12q-60 0 -85.5 36t-25.5 107v349h77v-338q0 -48 11.5 -66.5t40.5 -18.5q27 0 56 16v-70
q-34 -15 -74 -15z" />
    <glyph glyph-name="upsilondieresis" unicode="&#x3cb;" horiz-adv-x="541" 
d="M174 694q23 0 40 -17t17 -40t-17 -40t-40 -17t-40 17t-17 40t17 40t40 17zM365 694q23 0 40 -17t17 -40t-17 -40t-40 -17q-24 0 -40.5 17t-16.5 40t16.5 40t40.5 17zM258 -12q-91 0 -137 53t-46 146v293h77v-291q0 -54 25 -92.5t83 -38.5q73 0 109.5 57t36.5 159
q0 98 -33 206h78q29 -107 29 -200q0 -139 -55.5 -215.5t-166.5 -76.5z" />
    <glyph glyph-name="omicrontonos" unicode="&#x3cc;" 
d="M322 545h-58l118 175h91zM44 240q-2 103 71 178t178 74q109 0 179 -73q71 -74 71 -179t-71 -179q-70 -73 -179 -73t-179 73t-70 179zM293 60q75 0 123 52q49 52 49 128t-49 128q-48 52 -123 52t-124 -52q-48 -52 -48 -128t48 -128q49 -52 124 -52z" />
    <glyph glyph-name="upsilontonos" unicode="&#x3cd;" horiz-adv-x="541" 
d="M299 545h-59l118 175h92zM258 -12q-91 0 -137 53t-46 146v293h77v-291q0 -54 25 -92.5t83 -38.5q73 0 109.5 57t36.5 159q0 98 -33 206h79q28 -103 28 -200q0 -139 -55.5 -215.5t-166.5 -76.5z" />
    <glyph glyph-name="omegatonos" unicode="&#x3ce;" horiz-adv-x="828" 
d="M502 720h92l-151 -175h-58zM660 480h80q27 -103 27 -200q0 -135 -51.5 -213.5t-157.5 -78.5q-104 0 -144 85q-40 -85 -144 -85q-105 0 -157 76.5t-52 215.5q0 96 27 200h80q-32 -111 -32 -206q0 -100 33.5 -158t102.5 -58q55 0 79 38.5t24 92.5v291h77v-291
q0 -54 24.5 -92.5t79.5 -38.5q67 0 101.5 57t34.5 159q0 95 -32 206z" />
    <glyph glyph-name="uni0400" unicode="&#x400;" horiz-adv-x="629" 
d="M377 785h-59l-128 135h91zM105 720h452v-73h-372v-241h343v-73h-343v-260h372v-73h-452v720z" />
    <glyph glyph-name="uni0401" unicode="&#x401;" horiz-adv-x="629" 
d="M251 906q24 0 41 -16.5t17 -39.5q0 -24 -17 -41t-41 -17q-23 0 -39.5 17.5t-16.5 40.5t16.5 39.5t39.5 16.5zM442 906q23 0 40.5 -16.5t17.5 -39.5q0 -24 -17 -41t-41 -17q-23 0 -39.5 17t-16.5 41q0 23 16.5 39.5t39.5 16.5zM105 720h452v-73h-372v-241h343v-73h-343
v-260h372v-73h-452v720z" />
    <glyph glyph-name="uni0402" unicode="&#x402;" horiz-adv-x="790" 
d="M525 423q109 0 170 -55t61 -152q0 -104 -64 -166t-179 -62q-88 0 -143 37v76q62 -42 142 -42t122.5 41.5t42.5 112.5q0 66 -42 101.5t-124 35.5q-81 0 -207 -44v-306h-80v647h-204v73h505v-73h-221v-267q126 43 221 43z" />
    <glyph glyph-name="uni0403" unicode="&#x403;" horiz-adv-x="551" 
d="M347 785h-59l96 135h91zM185 0h-80v720h426v-73h-346v-647z" />
    <glyph glyph-name="uni0404" unicode="&#x404;" horiz-adv-x="710" 
d="M433 661q-126 0 -204.5 -74t-89.5 -190h379v-74h-379q11 -116 89 -190q79 -74 205 -74q119 0 211 68v-86q-95 -59 -213 -59q-167 -2 -273.5 108t-103.5 270q-3 160 103.5 270t273.5 108q118 0 213 -59v-86q-92 68 -211 68z" />
    <glyph glyph-name="uni0405" unicode="&#x405;" horiz-adv-x="560" 
d="M268 -18q-114 0 -200 51l1 87q94 -64 199 -64q73 0 119 35.5t46 97.5q0 54 -39 88q-28 24 -57 36q-21 10 -70 30l-8 3l-42 15q-49 21 -78 39q-42 32 -57 58q-22 42 -22 89q0 94 67.5 142.5t163.5 48.5q98 0 180 -49v-84q-87 60 -178 60q-66 0 -108 -30t-42 -85
q0 -38 26 -70q11 -10 33 -24l36 -18l44 -18l16 -6q2 0 4.5 -1.5t6.5 -3t7 -2.5l71 -30q25 -11 64 -40q63 -52 63 -144q0 -105 -71.5 -158t-174.5 -53z" />
    <glyph glyph-name="uni0406" unicode="&#x406;" horiz-adv-x="290" 
d="M105 720h80v-720h-80v720z" />
    <glyph glyph-name="uni0407" unicode="&#x407;" horiz-adv-x="290" 
d="M50 906q24 0 41 -16.5t17 -39.5q0 -24 -17 -41t-41 -17q-23 0 -39.5 17.5t-16.5 40.5t16.5 39.5t39.5 16.5zM241 906q24 0 41 -16.5t17 -39.5q0 -24 -17 -41t-41 -17q-23 0 -39.5 17t-16.5 41q0 23 16.5 39.5t39.5 16.5zM106 720h80v-720h-80v720z" />
    <glyph glyph-name="uni0408" unicode="&#x408;" horiz-adv-x="484" 
d="M203 -18q-97 0 -174 59v86q86 -68 169 -68q59 0 83.5 34.5t24.5 109.5v517h80v-521q0 -28 -1 -39q0 -39 -16 -82q-39 -96 -166 -96z" />
    <glyph glyph-name="uni0409" unicode="&#x409;" horiz-adv-x="1145" 
d="M681 398h221q100 0 157 -52.5t57 -147.5q0 -93 -57 -145.5t-157 -52.5h-301v645h-359v-507q0 -150 -126 -150q-41 0 -74 16v75q32 -18 60 -18q32 0 46 19.5t14 62.5v577h519v-322zM681 72h219q67 0 101 33.5t34 92.5q0 126 -135 126h-219v-252z" />
    <glyph glyph-name="uni040A" unicode="&#x40a;" horiz-adv-x="1105" 
d="M642 397h221q99 0 156 -53t57 -146t-57 -145.5t-156 -52.5h-301v323h-377v-323h-80v720h80v-323h377v323h80v-323zM642 72h218q67 0 101 33.5t34 92.5q0 126 -135 126h-218v-252z" />
    <glyph glyph-name="uni040B" unicode="&#x40b;" horiz-adv-x="800" 
d="M519 431q102 0 159.5 -51t57.5 -143v-237h-80v227q0 62 -40.5 96.5t-114.5 34.5q-81 0 -197 -42v-316h-80v647h-204v73h505v-73h-221v-258q127 42 215 42z" />
    <glyph glyph-name="uni040C" unicode="&#x40c;" horiz-adv-x="602" 
d="M417 920h91l-128 -135h-59zM591 0h-96l-295 327h-13v-327h-82v720h82v-327h12l289 327h97l-323 -360z" />
    <glyph glyph-name="uni040D" unicode="&#x40d;" horiz-adv-x="812" 
d="M430 785h-58l-129 135h92zM150 -5h-45v725h80l-1 -551h2l476 556h45v-725h-80l1 551h-2z" />
    <glyph glyph-name="uni040E" unicode="&#x40e;" horiz-adv-x="649" 
d="M329 770q-67 0 -107 41t-40 110h54q0 -40 24.5 -65t68.5 -25t69 24.5t25 65.5h54q0 -69 -40.5 -110t-107.5 -41zM329 263l219 457h86l-356 -720h-80l91 185l-264 535h86z" />
    <glyph glyph-name="uni040F" unicode="&#x40f;" horiz-adv-x="762" 
d="M577 73v647h80v-720h-239v-166h-74v166h-239v720h80v-647h392z" />
    <glyph glyph-name="uni0410" unicode="&#x410;" horiz-adv-x="663" 
d="M648 0h-86l-77 196h-307l-76 -196h-87l294 725h45zM332 586l-125 -318h249z" />
    <glyph glyph-name="uni0411" unicode="&#x411;" horiz-adv-x="674" 
d="M185 397h239q100 0 156.5 -52.5t56.5 -146.5q0 -93 -56.5 -145.5t-156.5 -52.5h-319v720h460v-73h-380v-250zM185 72h237q67 0 101 33.5t34 92.5q0 60 -34 93.5t-101 33.5h-237v-253z" />
    <glyph glyph-name="uni0412" unicode="&#x412;" horiz-adv-x="688" 
d="M470 376v-2q78 -9 122.5 -56t44.5 -120q0 -93 -57 -145.5t-156 -52.5h-319v720h281q106 0 161.5 -46.5t55.5 -133.5q0 -63 -36.5 -106.5t-96.5 -57.5zM386 648h-201v-243h201q58 0 98 38q40 39 40 91q0 114 -138 114zM185 72h237q67 0 101 34t34 96q0 54 -41 95
q-40 40 -102 40h-229v-265z" />
    <glyph glyph-name="uni0413" unicode="&#x413;" horiz-adv-x="551" 
d="M185 0h-80v720h426v-73h-346v-647z" />
    <glyph glyph-name="uni0414" unicode="&#x414;" horiz-adv-x="772" 
d="M644 720v-647h70v-239h-74v166h-552v-166h-73v239h96q67 135 67 418v229h466zM257 647v-156q0 -273 -63 -418h370v574h-307z" />
    <glyph glyph-name="uni0415" unicode="&#x415;" horiz-adv-x="629" 
d="M105 720h452v-73h-372v-241h343v-73h-343v-260h372v-73h-452v720z" />
    <glyph glyph-name="uni0416" unicode="&#x416;" horiz-adv-x="872" 
d="M859 0h-95l-276 327h-11v-327h-82v327h-11l-275 -327h-96l307 360l-301 360h97l269 -327h10v327h82v-327h10l269 327h97l-301 -360z" />
    <glyph glyph-name="uni0417" unicode="&#x417;" horiz-adv-x="618" 
d="M401 381q82 -24 125 -73.5t43 -115.5q0 -94 -78 -153q-77 -57 -199 -57q-139 0 -228 71v103q91 -100 228 -100q87 0 141.5 39.5t54.5 102.5q0 64 -57 104t-155 40h-62v69h62q81 0 129.5 35.5t48.5 95.5q0 55 -43.5 88t-118.5 33q-123 0 -220 -97v93q95 79 224 79
q108 0 173 -53t65 -135q0 -117 -133 -169z" />
    <glyph glyph-name="uni0418" unicode="&#x418;" horiz-adv-x="812" 
d="M150 -5h-45v725h80l-1 -551h2l476 556h45v-725h-80l1 551h-2z" />
    <glyph glyph-name="uni0419" unicode="&#x419;" horiz-adv-x="812" 
d="M400 770q-66 0 -106 41t-40 110h54q0 -40 24 -65t68 -25t69.5 25t25.5 65h54q0 -69 -41 -110t-108 -41zM150 -5h-45v725h80l-1 -551h2l476 556h45v-725h-80l1 551h-2z" />
    <glyph glyph-name="uni041A" unicode="&#x41a;" horiz-adv-x="602" 
d="M591 0h-96l-295 327h-13v-327h-82v720h82v-327h12l289 327h97l-323 -360z" />
    <glyph glyph-name="uni041B" unicode="&#x41b;" horiz-adv-x="815" 
d="M162 720h548v-720h-80v647h-388v-509q0 -150 -126 -150q-41 0 -74 16v75q32 -18 60 -18q32 0 46 19.5t14 62.5v577z" />
    <glyph glyph-name="uni041C" unicode="&#x41c;" horiz-adv-x="935" 
d="M468 197l318 528h44v-725h-79v518h-2l-278 -453h-6l-279 453h-2v-518h-79v725h44z" />
    <glyph glyph-name="uni041D" unicode="&#x41d;" horiz-adv-x="789" 
d="M604 397v323h80v-720h-80v323h-419v-323h-80v720h80v-323h419z" />
    <glyph glyph-name="uni041E" unicode="&#x41e;" horiz-adv-x="856" 
d="M428 -18q-162 0 -268.5 109.5t-106.5 268.5q0 104 47.5 190t133.5 137t193 51q109 0 194 -51q87 -51 134.5 -136.5t47.5 -190.5q4 -156 -106 -268t-269 -110zM219 145q83 -87 209 -87t208 87q83 89 83 215t-83 214q-82 88 -208 88q-127 0 -209 -88q-83 -88 -83 -214
t83 -215z" />
    <glyph glyph-name="uni041F" unicode="&#x41f;" horiz-adv-x="762" 
d="M105 720h552v-720h-80v647h-392v-647h-80v720z" />
    <glyph glyph-name="uni0420" unicode="&#x420;" horiz-adv-x="620" 
d="M105 720h261q104 0 163 -59t59 -158q0 -100 -58.5 -159t-163.5 -59h-181v-285h-80v720zM185 357h175q72 0 109.5 37.5t37.5 108.5q0 70 -38 108t-109 37h-175v-291z" />
    <glyph glyph-name="uni0421" unicode="&#x421;" horiz-adv-x="701" 
d="M427 -18q-165 -2 -271 109t-103 269q0 160 103 269t271 109q117 0 212 -59v-86q-92 68 -210 68q-135 0 -214 -86.5t-79 -214.5t79 -214.5t214 -86.5q118 0 210 68v-86q-95 -59 -212 -59z" />
    <glyph glyph-name="uni0422" unicode="&#x422;" horiz-adv-x="563" 
d="M20 720h522v-73h-221v-647h-80v647h-221v73z" />
    <glyph glyph-name="uni0423" unicode="&#x423;" horiz-adv-x="649" 
d="M329 263l219 457h86l-356 -720h-80l91 185l-264 535h86z" />
    <glyph glyph-name="uni0424" unicode="&#x424;" horiz-adv-x="849" 
d="M465 63v-63h-80v63q-151 11 -243 91q-93 82 -93 206t93 205q92 81 243 92v63h80v-63q151 -11 241 -92q93 -81 93 -205t-93 -205q-92 -81 -241 -92zM133 360q0 -94 69 -152q68 -58 183 -67v439q-113 -10 -183 -69q-69 -59 -69 -151zM465 580v-439q112 9 182 68
q69 59 69 151q0 93 -70 151q-69 59 -181 69z" />
    <glyph glyph-name="uni0425" unicode="&#x425;" horiz-adv-x="615" 
d="M351 367l250 -367h-94l-200 312l-200 -312h-94l249 366l-237 354h93l189 -300l189 300h93z" />
    <glyph glyph-name="uni0426" unicode="&#x426;" horiz-adv-x="766" 
d="M657 720v-647h51v-239h-74v166h-529v720h80v-647h392v647h80z" />
    <glyph glyph-name="uni0427" unicode="&#x427;" horiz-adv-x="681" 
d="M496 404v316h80v-720h-80v331q-128 -42 -216 -42q-101 0 -158.5 51.5t-57.5 142.5v237h80v-227q0 -62 40.5 -96.5t114.5 -34.5q82 0 197 42z" />
    <glyph glyph-name="uni0428" unicode="&#x428;" horiz-adv-x="1103" 
d="M918 73v647h80v-720h-893v720h80v-647h327v647h80v-647h326z" />
    <glyph glyph-name="uni0429" unicode="&#x429;" horiz-adv-x="1108" 
d="M998 720v-647h52v-239h-74v166h-871v720h80v-647h327v647h80v-647h326v647h80z" />
    <glyph glyph-name="uni042A" unicode="&#x42a;" horiz-adv-x="745" 
d="M274 397h228q100 0 157 -52.5t57 -146.5q0 -93 -57 -145.5t-157 -52.5h-308v647h-172v73h252v-323zM274 72h226q67 0 101 33.5t34 92.5q0 61 -33.5 94t-101.5 33h-226v-253z" />
    <glyph glyph-name="uni042B" unicode="&#x42b;" horiz-adv-x="877" 
d="M185 397h219q100 0 156.5 -52.5t56.5 -146.5q0 -93 -56.5 -145.5t-156.5 -52.5h-299v720h80v-323zM693 0v720h79v-720h-79zM185 72h217q67 0 100.5 33.5t33.5 92.5q0 61 -33.5 94t-100.5 33h-217v-253z" />
    <glyph glyph-name="uni042C" unicode="&#x42c;" horiz-adv-x="659" 
d="M185 397h231q100 0 157 -52.5t57 -146.5q0 -93 -57 -145.5t-157 -52.5h-311v720h80v-323zM185 72h229q67 0 101 33.5t34 92.5q0 60 -34 93.5t-101 33.5h-229v-253z" />
    <glyph glyph-name="uni042D" unicode="&#x42d;" horiz-adv-x="710" 
d="M279 738q168 1 274 -108t103 -270q3 -160 -103.5 -270t-273.5 -108q-118 0 -213 59v86q92 -68 211 -68q126 0 205 74q78 74 89 190h-379v74h379q-11 116 -89 190q-79 74 -205 74q-119 0 -211 -68v86q95 59 213 59z" />
    <glyph glyph-name="uni042E" unicode="&#x42e;" horiz-adv-x="1034" 
d="M619 738q161 1 263 -109.5t98 -268.5q4 -158 -98 -268.5t-263 -109.5q-153 0 -250 97t-109 244h-75v-323h-80v720h80v-323h75q12 147 109 244t250 97zM619 662q-123 1 -201.5 -87.5t-75.5 -214.5q0 -130 76 -216q77 -86 201 -86q125 0 202 86q76 86 76 216t-76 215
q-77 87 -202 87z" />
    <glyph glyph-name="uni042F" unicode="&#x42f;" horiz-adv-x="640" 
d="M268 720h267v-720h-80v318h-68l-255 -318h-101l260 318h-14q-115 0 -174.5 52.5t-59.5 147.5t58 148.5t167 53.5zM277 389h178v259h-178q-153 0 -153 -130q0 -129 153 -129z" />
    <glyph glyph-name="uni0430" unicode="&#x430;" horiz-adv-x="613" 
d="M280 -12q-100 0 -168 72q-66 74 -66 180q0 107 66 179q67 73 168 73q55 0 103 -25t80 -65h3l14 78h51v-480h-51l-14 78h-3q-32 -40 -80 -65t-103 -25zM288 59q71 0 120 49t49 123v18q0 73 -49 122q-50 50 -120 50q-73 0 -119 -52t-46 -129t46 -129t119 -52z" />
    <glyph glyph-name="uni0431" unicode="&#x431;" horiz-adv-x="604" 
d="M323 492q104 0 170 -73q67 -73 67 -179q0 -105 -71 -179q-70 -73 -178 -73q-114 0 -182 74q-68 76 -68 193q0 264 78 360q39 49 112 72q31 10 80 15q48 4 90 6q56 2 109 2v-71q-158 0 -229 -12q-70 -12 -107 -58q-36 -43 -51 -154q68 77 180 77zM311 60q75 0 123 52
q49 52 49 128t-49 128q-48 52 -123 52t-124 -52t-49 -128t49 -128t124 -52z" />
    <glyph glyph-name="uni0432" unicode="&#x432;" horiz-adv-x="536" 
d="M381 251v-1q51 -8 81 -38t30 -78q0 -63 -42 -98.5t-112 -35.5h-256v480h232q69 0 112.5 -29.5t43.5 -90.5q0 -41 -24 -70t-65 -39zM313 415h-153v-138h153q37 0 60 22t23 50q0 66 -83 66zM160 66h174q41 0 62 19.5t21 54.5q0 31 -25.5 54t-63.5 23h-168v-151z" />
    <glyph glyph-name="uni0433" unicode="&#x433;" horiz-adv-x="413" 
d="M160 0h-78v476h306v-69h-228v-407z" />
    <glyph glyph-name="uni0434" unicode="&#x434;" horiz-adv-x="576" 
d="M473 475v-406h46v-180h-67v111h-365v-111h-67v180h71q40 84 40 262v144h342zM206 407v-76q0 -171 -38 -262h229v338h-191z" />
    <glyph glyph-name="uni0435" unicode="&#x435;" horiz-adv-x="541" 
d="M280 492q106 0 166 -73q62 -73 45 -207h-365q5 -73 51 -114.5t126 -41.5q89 0 162 53v-73q-66 -48 -164 -48q-118 0 -186 68q-68 70 -68 183q0 111 63 182t170 71zM280 428q-67 0 -109 -43.5t-45 -112.5h295q-1 73 -39 114.5t-102 41.5z" />
    <glyph glyph-name="uni0436" unicode="&#x436;" horiz-adv-x="648" 
d="M628 0h-88l-168 210h-9v-210h-78v210h-9l-168 -210h-88l197 241l-193 239h89l166 -211h6v211h78v-211h6l167 211h88l-193 -239z" />
    <glyph glyph-name="uni0437" unicode="&#x437;" horiz-adv-x="471" 
d="M312 254q117 -36 117 -126q0 -63 -58 -101.5t-148 -38.5q-103 0 -172 45v89q68 -64 166 -64q60 0 97 22.5t37 58.5q0 35 -37.5 58t-103.5 23h-46v58h46q54 0 86 20t32 55q0 31 -29.5 50.5t-81.5 19.5q-88 0 -158 -61v82q73 48 167 48q81 0 129.5 -37t48.5 -91
q0 -72 -92 -110z" />
    <glyph glyph-name="uni0438" unicode="&#x438;" horiz-adv-x="588" 
d="M143 -2h-61v482h76v-346h1l287 348h60v-482h-76l1 346h-2z" />
    <glyph glyph-name="uni0439" unicode="&#x439;" horiz-adv-x="588" 
d="M290 540q-68 0 -107 47.5t-39 132.5h54q0 -118 92 -118q46 0 70.5 30.5t24.5 87.5h54q0 -85 -40 -132.5t-109 -47.5zM143 -2h-61v482h76v-346h1l287 348h60v-482h-76l1 346h-2z" />
    <glyph glyph-name="uni043A" unicode="&#x43a;" horiz-adv-x="470" 
d="M446 0h-92l-181 210h-12v-210h-79v480h79v-211h9l181 211h91l-210 -239z" />
    <glyph glyph-name="uni043B" unicode="&#x43b;" horiz-adv-x="597" 
d="M127 480h388v-480h-76v411h-236v-298q0 -121 -99 -121q-28 0 -55 11v69q20 -10 38 -10q23 0 31.5 13t8.5 43v362z" />
    <glyph glyph-name="uni043C" unicode="&#x43c;" horiz-adv-x="679" 
d="M340 161l198 319h59v-480h-76v317h-1l-178 -278h-4l-179 278h-1v-317h-76v480h59z" />
    <glyph glyph-name="uni043D" unicode="&#x43d;" horiz-adv-x="592" 
d="M431 274v206h79v-480h-79v206h-271v-206h-78v480h78v-206h271z" />
    <glyph glyph-name="uni043E" unicode="&#x43e;" 
d="M44 240q-2 103 71 178t178 74q109 0 179 -73q71 -74 71 -179t-71 -179q-70 -73 -179 -73t-179 73t-70 179zM293 60q75 0 123 52q49 52 49 128t-49 128q-48 52 -123 52t-124 -52q-48 -52 -48 -128t48 -128q49 -52 124 -52z" />
    <glyph glyph-name="uni043F" unicode="&#x43f;" horiz-adv-x="562" 
d="M82 480h398v-480h-79v411h-241v-411h-78v480z" />
    <glyph glyph-name="uni0440" unicode="&#x440;" horiz-adv-x="613" 
d="M159 -230h-77v710h51l14 -78h3q30 39 77 64.5t106 25.5q101 0 167 -73q67 -71 67 -179q0 -106 -67 -179q-66 -73 -167 -73q-55 0 -101 24t-72 61h-3l2 -76v-227zM325 59q73 0 119 52t46 129t-46 129t-119 52q-71 0 -120.5 -49.5t-49.5 -122.5v-18q0 -73 49.5 -122.5
t120.5 -49.5z" />
    <glyph glyph-name="uni0441" unicode="&#x441;" horiz-adv-x="493" 
d="M299 -12q-116 0 -185.5 72t-69.5 180t69 180t186 72q80 0 135 -37v-78q-62 44 -135 44q-83 0 -130.5 -52t-47.5 -129t47 -130q48 -51 131 -51q73 0 135 44v-78q-55 -37 -135 -37z" />
    <glyph glyph-name="uni0442" unicode="&#x442;" horiz-adv-x="457" 
d="M26 480h404v-70h-162v-410h-80v410h-162v70z" />
    <glyph glyph-name="uni0443" unicode="&#x443;" horiz-adv-x="484" 
d="M242 114l142 366h83l-185 -441l-107 -269h-83l114 260l-189 450h83z" />
    <glyph glyph-name="uni0444" unicode="&#x444;" horiz-adv-x="684" 
d="M382 -10v-220h-79v220q-113 10 -187 81.5t-74 168.5q0 98 73 168q75 72 188 82v240h79v-240q114 -12 187 -82t73 -168q0 -99 -73 -169q-74 -71 -187 -81zM119 240q0 -70 51 -119q50 -48 133 -59v356q-82 -11 -133 -60t-51 -118zM382 418v-356q82 11 132.5 60t50.5 118
t-50.5 118t-132.5 60z" />
    <glyph glyph-name="uni0445" unicode="&#x445;" horiz-adv-x="464" 
d="M273 248l172 -248h-86l-127 193l-128 -193h-86l173 248l-166 232h86l121 -177l120 177h86z" />
    <glyph glyph-name="uni0446" unicode="&#x446;" horiz-adv-x="571" 
d="M478 480v-411h37v-180h-67v111h-366v480h78v-411h239v411h79z" />
    <glyph glyph-name="uni0447" unicode="&#x447;" horiz-adv-x="511" 
d="M350 270v210h78v-480h-78v204q-86 -24 -146 -24q-73 0 -113 34.5t-40 96.5v169h79v-154q0 -37 24.5 -57.5t69.5 -20.5q54 0 126 22z" />
    <glyph glyph-name="uni0448" unicode="&#x448;" horiz-adv-x="794" 
d="M634 69v407h78v-476h-630v476h78v-407h198v407h78v-407h198z" />
    <glyph glyph-name="uni0449" unicode="&#x449;" horiz-adv-x="804" 
d="M712 476v-407h36v-180h-67v111h-599v476h78v-407h198v407h78v-407h198v407h78z" />
    <glyph glyph-name="uni044A" unicode="&#x44a;" horiz-adv-x="577" 
d="M243 280h143q77 0 120.5 -36t43.5 -104t-43.5 -104t-120.5 -36h-222v413h-140v67h219v-200zM243 66h144q86 0 86 74t-85 74h-145v-148z" />
    <glyph glyph-name="uni044B" unicode="&#x44b;" horiz-adv-x="714" 
d="M160 280h154q76 0 119.5 -36t43.5 -104t-43.5 -104t-119.5 -36h-232v480h78v-200zM553 0v480h79v-480h-79zM161 66h153q86 0 86 74t-85 74h-154v-148z" />
    <glyph glyph-name="uni044C" unicode="&#x44c;" horiz-adv-x="505" 
d="M160 280h154q76 0 119.5 -36t43.5 -104t-43.5 -104t-119.5 -36h-232v480h78v-200zM161 66h153q86 0 86 74t-85 74h-154v-148z" />
    <glyph glyph-name="uni044D" unicode="&#x44d;" horiz-adv-x="512" 
d="M204 492q117 0 191 -71q73 -70 73 -181q0 -112 -73 -182t-191 -70q-78 0 -143 33v81q64 -40 140 -40q78 0 126.5 39.5t59.5 106.5h-244v63h244q-9 66 -58.5 106t-127.5 40q-77 0 -140 -39v80q65 34 143 34z" />
    <glyph glyph-name="uni044E" unicode="&#x44e;" horiz-adv-x="744" 
d="M451 492q109 0 179 -73q71 -74 71 -179t-71 -178.5t-179 -73.5q-99 0 -166 61q-68 62 -81 154h-46v-203h-76v475h76v-203h46q10 93 79 157q69 63 168 63zM451 60q75 0 123 52q49 52 49 128t-49 128q-48 52 -123 52q-74 0 -123 -52t-49 -128t49 -128t123 -52z" />
    <glyph glyph-name="uni044F" unicode="&#x44f;" horiz-adv-x="474" 
d="M193 475h199v-475h-76v195h-39l-159 -195h-93l166 195q-75 4 -114.5 40.5t-39.5 99.5q0 65 41 102.5t115 37.5zM205 260h111v151h-111q-91 0 -91 -76q0 -75 91 -75z" />
    <glyph glyph-name="uni0450" unicode="&#x450;" horiz-adv-x="541" 
d="M189 720l118 -175h-59l-150 175h91zM280 492q106 0 166 -73q62 -73 45 -207h-365q5 -73 51 -114.5t126 -41.5q89 0 162 53v-73q-66 -48 -164 -48q-118 0 -186 68q-68 70 -68 183q0 111 63 182t170 71zM280 428q-67 0 -109 -43.5t-45 -112.5h295q-1 73 -39 114.5
t-102 41.5z" />
    <glyph glyph-name="uni0451" unicode="&#x451;" horiz-adv-x="541" 
d="M182 580q-23 0 -40 17t-17 40t17 40t40 17t40 -17t17 -40t-17 -40t-40 -17zM372 580q-23 0 -39.5 17t-16.5 40t16.5 40t39.5 17q24 0 41 -17t17 -40t-17 -40t-41 -17zM280 492q106 0 166 -73q62 -73 45 -207h-365q5 -73 51 -114.5t126 -41.5q89 0 162 53v-73
q-66 -48 -164 -48q-118 0 -186 68q-68 70 -68 183q0 111 63 182t170 71zM280 428q-67 0 -109 -43.5t-45 -112.5h295q-1 73 -39 114.5t-102 41.5z" />
    <glyph glyph-name="uni0452" unicode="&#x452;" horiz-adv-x="587" 
d="M335 492q89 0 133 -57q44 -56 44 -142v-377q0 -144 -122 -144q-38 0 -73 15v70q28 -16 55 -16q33 0 48 19.5t15 66.5v364q0 131 -113 131q-66 0 -114 -52q-48 -51 -48 -131v-239h-77v588h-74v56h74v86h77v-86h262v-56h-262v-105l-2 -87h1q71 96 176 96z" />
    <glyph glyph-name="uni0453" unicode="&#x453;" horiz-adv-x="413" 
d="M253 542h-58l118 175h91zM160 0h-78v476h306v-69h-228v-407z" />
    <glyph glyph-name="uni0454" unicode="&#x454;" horiz-adv-x="512" 
d="M311 417q-78 0 -127 -39t-59 -107h244v-63h-244q11 -67 59.5 -106.5t126.5 -39.5t140 40v-81q-65 -33 -143 -33q-118 0 -191 71t-73 181q0 111 73 181q74 71 191 71q78 0 143 -34v-80q-63 39 -140 39z" />
    <glyph glyph-name="uni0455" unicode="&#x455;" horiz-adv-x="427" 
d="M198 -12q-77 0 -138 31v80q64 -44 141 -44q46 0 74 19.5t28 55.5q0 37 -31 55q-30 17 -68 30q-5 0 -8 3l-42 14q-20 9 -37 18q-31 16 -44.5 40t-16.5 65q0 65 45.5 101t119.5 36q67 0 121 -25v-74q-54 33 -118 33q-40 0 -64 -16.5t-24 -48.5q0 -25 17 -44q10 -8 23 -14
q8 -4 59 -23q54 -18 84 -34q32 -15 47 -40.5t19 -67.5q0 -75 -54 -112.5t-133 -37.5z" />
    <glyph glyph-name="uni0456" unicode="&#x456;" horiz-adv-x="235" 
d="M118 697q35 2 49.5 -26.5t0 -56.5t-49.5 -26q-26 0 -40.5 15t-14.5 39q0 25 14.5 40t40.5 15zM80 480h77l-1 -480h-76v480z" />
    <glyph glyph-name="uni0457" unicode="&#x457;" horiz-adv-x="239" 
d="M26 694q23 0 40 -17t17 -40t-17 -40t-40 -17q-24 0 -40.5 17t-16.5 40t17 40t40 17zM217 694q23 0 40 -17t17 -40t-17 -40t-40 -17q-24 0 -40.5 17t-16.5 40t16.5 40t40.5 17zM83 480h77v-480h-77v480z" />
    <glyph glyph-name="uni0458" unicode="&#x458;" horiz-adv-x="238" 
d="M120 588q-26 0 -40.5 15t-14.5 39t15 39.5t40 15.5q35 2 49.5 -26.5t0 -56.5t-49.5 -26zM38 -228q-39 0 -74 15v70q29 -16 56 -16q33 0 48 19.5t15 66.5v553h77v-564q0 -144 -122 -144z" />
    <glyph glyph-name="uni0459" unicode="&#x459;" horiz-adv-x="834" 
d="M491 276h153q76 0 119.5 -35.5t43.5 -102.5q0 -66 -43.5 -102t-119.5 -36h-231v411h-210v-298q0 -121 -99 -121q-28 0 -55 11v69q20 -10 38 -10q23 0 31.5 13t8.5 43v362h364v-204zM491 66h153q86 0 86 72t-86 72h-153v-144z" />
    <glyph glyph-name="uni045A" unicode="&#x45a;" horiz-adv-x="812" 
d="M469 276h152q77 0 120.5 -35.5t43.5 -102.5q0 -66 -43.5 -102t-120.5 -36h-230v206h-231v-206h-78v480h78v-205h231v205h78v-204zM469 66h152q87 0 87 72t-86 72h-153v-144z" />
    <glyph glyph-name="uni045B" unicode="&#x45b;" horiz-adv-x="587" 
d="M335 492q89 0 133 -57q44 -56 44 -142v-293h-77v291q0 131 -113 131q-66 0 -114 -52q-48 -51 -48 -131v-239h-77v588h-74v56h74v86h77v-86h262v-56h-262v-105l-2 -87h1q71 96 176 96z" />
    <glyph glyph-name="uni045C" unicode="&#x45c;" horiz-adv-x="470" 
d="M354 720h91l-150 -175h-59zM446 0h-92l-181 210h-12v-210h-79v480h79v-211h9l181 211h91l-210 -239z" />
    <glyph glyph-name="uni045D" unicode="&#x45d;" horiz-adv-x="588" 
d="M320 545h-58l-151 175h91zM143 -2h-61v482h76v-346h1l287 348h60v-482h-76l1 346h-2z" />
    <glyph glyph-name="uni045E" unicode="&#x45e;" horiz-adv-x="484" 
d="M240 540q-69 0 -108 47t-39 133h54q0 -118 93 -118q46 0 70 30.5t24 87.5h54q0 -85 -39.5 -132.5t-108.5 -47.5zM242 114l142 366h83l-185 -441l-107 -269h-83l114 260l-189 450h83z" />
    <glyph glyph-name="uni045F" unicode="&#x45f;" horiz-adv-x="560" 
d="M399 69v407h79v-476h-164v-111h-68v111h-164v476h78v-407h239z" />
    <glyph glyph-name="uni0462" unicode="&#x462;" horiz-adv-x="777" 
d="M304 397h231q99 0 156 -53t57 -146t-57 -145.5t-156 -52.5h-311v647h-204v73h505v-73h-221v-250zM304 72h229q67 0 100.5 33.5t33.5 92.5q0 61 -33.5 94t-100.5 33h-229v-253z" />
    <glyph glyph-name="uni0463" unicode="&#x463;" horiz-adv-x="527" 
d="M166 280h154q76 0 119.5 -36t43.5 -104t-43.5 -104t-119.5 -36h-232v351h-77v55h77v74h78v-74h242v-55h-242v-71zM166 66h154q86 0 86 74t-85 74h-155v-148z" />
    <glyph glyph-name="uni0472" unicode="&#x472;" horiz-adv-x="856" 
d="M428 -18q-162 0 -268.5 109.5t-106.5 268.5q0 104 47.5 190t133.5 137t193 51q109 0 194 -51q87 -51 134.5 -136.5t47.5 -190.5q4 -156 -106 -268t-269 -110zM428 662q-111 0 -191 -71q-79 -70 -97 -178q51 21 108 21q57 2 196 -44t185 -44q47 0 90 20q-1 123 -85 210
q-83 86 -206 86zM428 58q111 0 189 69q79 68 97 176q-48 -17 -97 -17q-58 -2 -196.5 43t-184.5 44q-54 0 -100 -24q5 -124 86 -207q83 -84 206 -84z" />
    <glyph glyph-name="uni0473" unicode="&#x473;" 
d="M293 492q109 0 179 -73q71 -74 71 -179t-71 -179q-70 -73 -179 -73t-179 73t-70 179q-2 103 71 178t178 74zM293 420q-63 0 -109.5 -39.5t-58.5 -102.5q30 11 60 11q45 0 122 -28t113 -28q23 0 45 8q0 76 -48.5 127.5t-123.5 51.5zM293 60q62 0 107.5 36.5t59.5 96.5
q-22 -7 -49 -7q-45 0 -123 28q-77 28 -112 28q-28 0 -55 -11q4 -73 52 -122t120 -49z" />
    <glyph glyph-name="uni0474" unicode="&#x474;" horiz-adv-x="706" 
d="M658 728q22 0 39 -4v-74q-18 8 -32 8q-25 0 -41.5 -19t-35.5 -66l-234 -578h-45l-294 725h87l230 -583l182 457l12 29q18 42 33 59q46 46 99 46z" />
    <glyph glyph-name="uni0475" unicode="&#x475;" horiz-adv-x="518" 
d="M468 487q14 0 30 -3v-65q-9 4 -21 4q-19 0 -29 -13t-21 -40l-153 -372h-58l-198 482h81l146 -375l109 276q17 43 35 69q25 37 79 37z" />
    <glyph glyph-name="uni0490" unicode="&#x490;" horiz-adv-x="551" 
d="M458 720v172h73v-245h-346v-647h-80v720h353z" />
    <glyph glyph-name="uni0491" unicode="&#x491;" horiz-adv-x="414" 
d="M321 476v118h68v-187h-229v-407h-78v476h239z" />
    <glyph glyph-name="uni0492" unicode="&#x492;" horiz-adv-x="536" 
d="M490 720v-73h-291v-250h269l-2 -74h-267v-323h-79v323h-88v74h88v323h370z" />
    <glyph glyph-name="uni0493" unicode="&#x493;" horiz-adv-x="422" 
d="M393 480v-70h-219v-143h201l-1 -68h-200v-199h-76v199h-59v68h59v213h295z" />
    <glyph glyph-name="uni0496" unicode="&#x496;" horiz-adv-x="890" 
d="M552 360l245 -287h65v-239h-73v166h-25l-276 327h-11v-327h-82v327h-11l-275 -327h-96l307 360l-301 360h97l269 -327h10v327h82v-327h10l269 327h97z" />
    <glyph glyph-name="uni0497" unicode="&#x497;" horiz-adv-x="669" 
d="M431 241l139 -170h64v-182h-67v111h-27l-168 210h-9v-210h-78v210h-9l-168 -210h-88l197 241l-193 239h89l166 -211h6v211h78v-211h6l167 211h88z" />
    <glyph glyph-name="uni049A" unicode="&#x49a;" horiz-adv-x="618" 
d="M262 360l262 -287h69v-239h-73v166h-25l-295 327h-13v-327h-82v720h82v-327h12l289 327h97z" />
    <glyph glyph-name="uni049B" unicode="&#x49b;" horiz-adv-x="477" 
d="M232 241l151 -170h67v-182h-67v111h-28l-182 210h-12v-210h-79v480h79v-211h9l181 211h91z" />
    <glyph glyph-name="uni049C" unicode="&#x49c;" horiz-adv-x="687" 
d="M351 360l325 -360h-96l-281 316v-125h-59v136h-53v-327h-82v720h82v-327h53v133h59v-120l274 314h97z" />
    <glyph glyph-name="uni049D" unicode="&#x49d;" horiz-adv-x="538" 
d="M538 0h-90l-183 210h-17v-112h-50v112h-37v-210h-79v480h79v-211h37v101h50v-101h14l181 211h91l-210 -239z" />
    <glyph glyph-name="uni04A2" unicode="&#x4a2;" horiz-adv-x="780" 
d="M684 720v-647h66v-239h-74v166h-72v323h-419v-323h-80v720h80v-323h419v323h80z" />
    <glyph glyph-name="uni04A3" unicode="&#x4a3;" horiz-adv-x="600" 
d="M510 480v-409h30v-182h-67v111h-42v206h-270v-206h-79v480h79v-206h270v206h79z" />
    <glyph glyph-name="uni04AE" unicode="&#x4ae;" horiz-adv-x="640" 
d="M320 342l219 378h86l-265 -450v-270h-80v270l-265 450h86z" />
    <glyph glyph-name="uni04AF" unicode="&#x4af;" horiz-adv-x="479" 
d="M239 236l134 244h88l-182 -307v-173h-79v173l-182 307h88z" />
    <glyph glyph-name="uni04B0" unicode="&#x4b0;" horiz-adv-x="644" 
d="M540 720h87l-259 -439h241v-67h-247v-214h-80v214h-247v67h240l-258 439h86l219 -378z" />
    <glyph glyph-name="uni04B1" unicode="&#x4b1;" horiz-adv-x="480" 
d="M375 480h86l-176 -296h155v-56h-161v-128h-78v128h-159v56h152l-176 296h86l136 -244z" />
    <glyph glyph-name="uni04B2" unicode="&#x4b2;" horiz-adv-x="639" 
d="M351 367l200 -294h72v-239h-74v166h-42l-200 312l-200 -312h-94l249 366l-237 354h93l189 -300l189 300h93z" />
    <glyph glyph-name="uni04B3" unicode="&#x4b3;" horiz-adv-x="487" 
d="M273 248l123 -177h59v-182h-67v111h-29l-127 193l-128 -193h-86l173 248l-166 232h86l121 -177l120 177h86z" />
    <glyph glyph-name="uni04B6" unicode="&#x4b6;" horiz-adv-x="671" 
d="M576 720v-647h64v-239h-73v166h-71v331q-128 -42 -216 -42q-101 0 -158.5 51.5t-57.5 142.5v237h80v-227q0 -62 40.5 -96.5t114.5 -34.5q82 0 197 42v316h80z" />
    <glyph glyph-name="uni04B7" unicode="&#x4b7;" horiz-adv-x="519" 
d="M428 480v-409h31v-182h-67v111h-42v204q-86 -24 -146 -24q-73 0 -113 34.5t-40 96.5v169h79v-154q0 -37 24.5 -57.5t69.5 -20.5q54 0 126 22v210h78z" />
    <glyph glyph-name="uni04B8" unicode="&#x4b8;" horiz-adv-x="681" 
d="M496 404v316h80v-720h-80v331q-79 -26 -146 -37v-103h-60v98h-10q-102 0 -159 51t-57 143v237h80v-227q0 -60 38 -94.5t108 -36.5v164h60v-161q61 8 146 39z" />
    <glyph glyph-name="uni04B9" unicode="&#x4b9;" horiz-adv-x="518" 
d="M357 270v210h79v-480h-79v204q-43 -13 -85 -19v-99h-53v94h-8q-72 0 -112.5 34.5t-40.5 96.5v169h79v-154q0 -72 82 -77v108h53v-106q30 4 85 19z" />
    <glyph glyph-name="uni04BA" unicode="&#x4ba;" horiz-adv-x="680" 
d="M401 429q101 0 158.5 -51.5t57.5 -142.5v-235h-80v224q0 62 -40.5 96.5t-114.5 34.5q-80 0 -197 -41v-314h-80v720h80v-334q126 43 216 43z" />
    <glyph glyph-name="uni04BB" unicode="&#x4bb;" 
d="M159 0h-77v730h77v-247l-2 -87h2q71 96 175 96q90 0 133 -57q44 -56 44 -142v-293h-77v291q0 131 -112 131q-67 0 -115 -52q-48 -51 -48 -131v-239z" />
    <glyph glyph-name="uni04C0" unicode="&#x4c0;" horiz-adv-x="290" 
d="M105 720h80v-720h-80v720z" />
    <glyph glyph-name="uni04CF" unicode="&#x4cf;" horiz-adv-x="243" 
d="M82 480h78v-480h-78v480z" />
    <glyph glyph-name="uni04D8" unicode="&#x4d8;" horiz-adv-x="754" 
d="M349 739q164 0 256.5 -109t92.5 -274q3 -157 -92.5 -266t-247.5 -108q-145 0 -230 104t-66 303h548q-5 122 -71.5 198.5t-187.5 76.5q-129 0 -253 -96v86q113 85 251 85zM358 54q110 0 177 73q69 73 75 194h-473q-2 -124 58 -195.5t163 -71.5z" />
    <glyph glyph-name="uni04D9" unicode="&#x4d9;" horiz-adv-x="538" 
d="M246 492q113 0 179.5 -69t66.5 -182q0 -109 -65 -182q-65 -71 -172 -71q-105 0 -163 72q-58 73 -42 208h362q-5 71 -49 113.5t-119 42.5q-87 0 -169 -55v75q77 48 171 48zM255 52q67 0 110 43t48 113h-294q-1 -74 36 -115t100 -41z" />
    <glyph glyph-name="uni04E2" unicode="&#x4e2;" horiz-adv-x="812" 
d="M246 863h309v-63h-309v63zM150 -5h-45v725h80l-1 -551h2l476 556h45v-725h-80l1 551h-2z" />
    <glyph glyph-name="uni04E3" unicode="&#x4e3;" horiz-adv-x="588" 
d="M136 648h309v-63h-309v63zM143 -2h-61v482h76v-346h1l287 348h60v-482h-76l1 346h-2z" />
    <glyph glyph-name="uni04E8" unicode="&#x4e8;" horiz-adv-x="856" 
d="M428 -18q-162 0 -268.5 109.5t-106.5 268.5q0 104 47.5 190t133.5 137t193 51q109 0 194 -51q87 -51 134.5 -136.5t47.5 -190.5q4 -156 -106 -268t-269 -110zM138 397h579q-12 114 -93 189q-79 76 -197 76q-117 0 -196 -76q-79 -75 -93 -189zM717 323h-579
q13 -113 93 -190q79 -75 196 -75t197 75q81 77 93 190z" />
    <glyph glyph-name="uni04E9" unicode="&#x4e9;" 
d="M293 492q109 0 179 -73q71 -74 71 -179t-71 -179q-70 -73 -179 -73t-179 73t-70 179q-2 103 71 178t178 74zM293 420q-69 0 -115 -43q-48 -45 -55 -110h341q-9 68 -56 110.5t-115 42.5zM293 60q68 0 115 42.5t56 110.5h-341q8 -67 55 -110t115 -43z" />
    <glyph glyph-name="uni04EE" unicode="&#x4ee;" horiz-adv-x="649" 
d="M174 863h310v-63h-310v63zM329 263l219 457h86l-356 -720h-80l91 185l-264 535h86z" />
    <glyph glyph-name="uni04EF" unicode="&#x4ef;" horiz-adv-x="484" 
d="M86 648h309v-63h-309v63zM242 114l142 366h83l-185 -441l-107 -269h-83l114 260l-189 450h83z" />
    <glyph glyph-name="Wgrave" unicode="&#x1e80;" horiz-adv-x="944" 
d="M406 920l95 -135h-59l-128 135h92zM668 172l170 548h86l-233 -725h-44l-175 553l-176 -553h-44l-232 725h86l169 -548l175 553h44z" />
    <glyph glyph-name="wgrave" unicode="&#x1e81;" horiz-adv-x="722" 
d="M272 720l118 -175h-58l-151 175h91zM502 139l116 341h83l-174 -485h-46l-120 351l-121 -351h-45l-174 485h83l117 -341l117 346h46z" />
    <glyph glyph-name="Wacute" unicode="&#x1e82;" horiz-adv-x="944" 
d="M538 920h91l-128 -135h-58zM668 172l170 548h86l-233 -725h-44l-175 553l-176 -553h-44l-232 725h86l169 -548l175 553h44z" />
    <glyph glyph-name="wacute" unicode="&#x1e83;" horiz-adv-x="722" 
d="M449 720h92l-151 -175h-58zM502 139l116 341h83l-174 -485h-46l-120 351l-121 -351h-45l-174 485h83l117 -341l117 346h46z" />
    <glyph glyph-name="Wdieresis" unicode="&#x1e84;" horiz-adv-x="944" 
d="M376 792q-23 0 -40 17.5t-17 40.5t17 39.5t40 16.5t40 -16.5t17 -39.5q0 -24 -16.5 -41t-40.5 -17zM567 792q-23 0 -40 17t-17 41q0 23 17 39.5t40 16.5t40 -16.5t17 -39.5q0 -24 -17 -41t-40 -17zM668 172l169 548h87l-233 -725h-44l-175 553l-176 -553h-44l-232 725h86
l169 -548l175 553h44z" />
    <glyph glyph-name="wdieresis" unicode="&#x1e85;" horiz-adv-x="722" 
d="M265 580q-23 0 -39.5 17t-16.5 40t16.5 40t39.5 17q24 0 41 -17t17 -40t-17 -40t-41 -17zM456 580q-23 0 -40 17t-17 40t17 40t40 17t40 -17t17 -40t-17 -40t-40 -17zM502 139l116 341h83l-174 -485h-46l-120 351l-121 -351h-45l-174 485h83l116 -341l118 346h46z" />
    <glyph glyph-name="uni1E9E" unicode="&#x1e9e;" horiz-adv-x="734" 
d="M487 418l8 -4l17 -7q48 -21 65 -31q24 -12 58 -39q57 -52 58 -144q0 -105 -67.5 -158t-162.5 -53q-105 0 -182 51l1 86q82 -63 182 -63q64 0 105.5 36t41.5 97q0 48 -29 82q-11 16 -33 29q-25 16 -86 43l-9 3q-6 3 -19.5 8.5l-18.5 7.5q-52 24 -70 38q-39 32 -53 55
q-20 38 -20 82q0 97 97 139q-111 1 -152 -20q-40 -21 -40 -89v-567h-80v569q1 94 55 130.5t207 38.5q114 0 229 -25v-73q-62 14 -98 14q-62 0 -98.5 -27.5t-36.5 -81.5q0 -33 25 -66q11 -11 30 -24q30 -17 76 -37z" />
    <glyph glyph-name="Ygrave" unicode="&#x1ef2;" horiz-adv-x="640" 
d="M254 920l95 -135h-58l-129 135h92zM320 342l219 378h86l-265 -450v-270h-80v270l-265 450h86z" />
    <glyph glyph-name="ygrave" unicode="&#x1ef3;" horiz-adv-x="484" 
d="M152 720l118 -175h-59l-150 175h91zM242 114l142 366h83l-185 -441l-107 -269h-83l114 260l-189 450h83z" />
    <glyph glyph-name="uni1FFE" unicode="&#x1ffe;" horiz-adv-x="600" 
 />
    <glyph glyph-name="uni2009" unicode="&#x2009;" horiz-adv-x="488" 
 />
    <glyph glyph-name="endash" unicode="&#x2013;" horiz-adv-x="638" 
d="M73 288h492v-68h-492v68z" />
    <glyph glyph-name="emdash" unicode="&#x2014;" horiz-adv-x="967" 
d="M78 288h811v-68h-811v68z" />
    <glyph glyph-name="quoteleft" unicode="&#x2018;" horiz-adv-x="220" 
d="M116 470h-80l85 268h59z" />
    <glyph glyph-name="quoteright" unicode="&#x2019;" horiz-adv-x="214" 
d="M110 470h-59l64 268h80z" />
    <glyph glyph-name="quotesinglbase" unicode="&#x201a;" horiz-adv-x="226" 
d="M88 111h79l-84 -269h-59z" />
    <glyph glyph-name="quotedblleft" unicode="&#x201c;" horiz-adv-x="374" 
d="M116 470h-80l85 268h59zM270 470h-79l84 268h59z" />
    <glyph glyph-name="quotedblright" unicode="&#x201d;" horiz-adv-x="368" 
d="M110 470h-59l64 268h80zM264 470h-59l64 268h80z" />
    <glyph glyph-name="quotedblbase" unicode="&#x201e;" horiz-adv-x="380" 
d="M88 111h79l-84 -269h-59zM242 111h79l-84 -269h-59z" />
    <glyph glyph-name="dagger" unicode="&#x2020;" horiz-adv-x="404" 
d="M172 748h59l-8 -172l140 8v-59l-140 8l8 -372h-59l9 372l-140 -8v59l140 -8z" />
    <glyph glyph-name="daggerdbl" unicode="&#x2021;" horiz-adv-x="433" 
d="M187 748h59l-9 -172l140 8v-59l-140 8l8 -83l-8 -83l140 8v-60l-140 9l9 -287h-59l8 287l-139 -9v60l138 -8l-6 83l6 83l-138 -8v59l139 -8z" />
    <glyph glyph-name="bullet" unicode="&#x2022;" horiz-adv-x="510" 
d="M427 362q0 -71 -51 -122q-50 -50 -121 -50q-70 0 -122 50q-50 52 -50 122q0 72 50 122q51 51 122 51t121 -51q51 -50 51 -122z" />
    <glyph glyph-name="ellipsis" unicode="&#x2026;" horiz-adv-x="632" 
d="M113 109q25 0 42 -17.5t17 -43.5q0 -24 -17.5 -42.5t-41.5 -18.5q-26 0 -43 18t-17 43q0 26 17 43.5t43 17.5zM316 109q26 0 43 -17.5t17 -43.5t-17.5 -43.5t-42.5 -17.5q-26 0 -43 18t-17 43q0 26 17 43.5t43 17.5zM519 109q26 0 43 -17.5t17 -43.5q0 -25 -17 -43
t-43 -18t-42.5 18t-16.5 43q0 26 16.5 43.5t42.5 17.5z" />
    <glyph glyph-name="uni202F" unicode="&#x202f;" horiz-adv-x="155" 
 />
    <glyph glyph-name="perthousand" unicode="&#x2030;" horiz-adv-x="1209" 
d="M422 351l-230 -371l-56 38l258 352l229 370l56 -38zM344 423q-52 -52 -127 -52q-74 0 -126 52t-52 126q0 75 52 127t126 52q75 0 127 -52t52 -127q0 -74 -52 -126zM218 433q49 0 83 34t34 83q0 47 -35 82q-34 34 -83 34q-48 0 -82 -34t-34 -82q0 -50 34 -84
q35 -33 83 -33zM598 -8q-74 0 -126.5 52.5t-52.5 125.5q0 74 52.5 126.5t126.5 52.5t126 -52.5t52 -125.5q0 -75 -52 -127t-126 -52zM814 171q0 73 52.5 125.5t125.5 52.5q75 0 127 -52t52 -127q0 -74 -52 -126t-127 -52q-74 0 -126 52t-52 127zM598 54q49 0 83 34t34 83
q0 47 -35 82q-34 34 -83 34q-48 0 -82 -34t-34 -82q0 -49 34 -83t83 -34zM992 54q49 0 83 34t34 83q0 48 -34 82t-83 34q-48 0 -82 -34t-34 -82q0 -49 34 -83t82 -34z" />
    <glyph glyph-name="guilsinglleft" unicode="&#x2039;" horiz-adv-x="294" 
d="M182 28l-146 212l146 212h75l-144 -212l144 -212h-75z" />
    <glyph glyph-name="guilsinglright" unicode="&#x203a;" horiz-adv-x="294" 
d="M112 28h-76l145 212l-145 212h76l145 -212z" />
    <glyph glyph-name="exclamdbl" unicode="&#x203c;" horiz-adv-x="449" 
d="M88 720h83l-6 -522h-71zM278 720h83l-6 -522h-71zM130 109q26 0 43 -17.5t17 -43.5q0 -24 -17.5 -42.5t-42.5 -18.5q-26 0 -43 18t-17 43q0 26 17 43.5t43 17.5zM319 109q26 0 43 -17.5t17 -43.5q0 -25 -17 -43t-43 -18q-25 0 -42 18t-17 43q0 26 16.5 43.5t42.5 17.5z
" />
    <glyph glyph-name="uni203D" unicode="&#x203d;" horiz-adv-x="496" 
d="M378 559q0 50 -37.5 77.5t-100.5 27.5q-104 0 -193 -87v90q86 71 195 71q94 0 152 -46q60 -45 60 -124q0 -77 -66 -150q-4 -4 -19.5 -21t-21 -24t-19.5 -23.5t-20 -26.5l-15.5 -27t-13.5 -31t-7.5 -31.5t-3.5 -35.5h-72l-6 371h76l-3 -208q13 19 62 80q53 71 53 118z
M232 109q25 0 42 -17.5t17 -43.5q0 -25 -17 -43t-42 -18q-26 0 -43 18t-17 43q0 26 17 43.5t43 17.5z" />
    <glyph glyph-name="fraction" unicode="&#x2044;" horiz-adv-x="161" 
d="M96 351l-230 -371l-56 38l258 352l229 370l56 -38z" />
    <glyph glyph-name="uni20A9" unicode="&#x20a9;" horiz-adv-x="767" 
d="M703 470l-10 -54h-55l-24 -112h89l-10 -54h-90l-55 -255h-51l-50 255h-127l-50 -255h-52l-54 255h-100l10 54h78l-23 112h-65l10 54h43l-53 250h77l46 -250h122l49 255h51l49 -255h122l46 250h77l-53 -250h53zM403 470l-20 102l-20 -102h40zM298 416h-101l21 -112h59z
M353 416l-22 -112h105l-22 112h-61zM490 304h59l21 112h-101zM228 250l19 -103l20 103h-39zM500 250l20 -101l19 101h-39z" />
    <glyph glyph-name="Euro" unicode="&#x20ac;" horiz-adv-x="645" 
d="M415 668q-82 0 -137.5 -53t-76.5 -145h314l-11 -54h-312q-6 -56 0 -112h295l-10 -54h-276q21 -92 76.5 -145t137.5 -53q93 0 163 67v-81q-73 -56 -167 -56q-110 0 -187 74q-75 74 -101 194h-75l10 54h57q-6 56 0 112h-67l10 54h65q26 120 101 194q77 74 187 74
q94 0 167 -56v-81q-70 67 -163 67z" />
    <glyph glyph-name="uni20BD" unicode="&#x20bd;" horiz-adv-x="612" 
d="M351 289h-149v-127h259l-11 -54h-248v-108h-73v108h-80l10 54h70v558h222q104 0 162 -58.5t58 -156.5q0 -100 -57.5 -158t-162.5 -58zM347 654l-145 -1v-298h145q74 0 112.5 38.5t38.5 111.5q0 72 -39 111t-112 38z" />
    <glyph glyph-name="uni2113" unicode="&#x2113;" horiz-adv-x="381" 
d="M226 708q41 0 65 -32.5t24 -81.5q0 -65 -35.5 -129t-107.5 -142v-168q0 -53 9 -90q12 -51 59 -51q30 0 53 26q41 48 41 112h16q0 -38 -12 -73q-13 -38 -43.5 -63.5t-71.5 -25.5q-73 0 -99 62q-22 55 -22 135v49l-58 -70l-12 11l70 86v254q0 191 124 191zM232 681
q-39 0 -52 -52q-8 -38 -8 -93v-186q123 126 123 242q0 39 -18 64t-45 25z" />
    <glyph glyph-name="uni2116" unicode="&#x2116;" horiz-adv-x="1085" 
d="M976 411q-55 -55 -134 -55q-80 0 -135 55t-55 134q0 80 55 135q56 56 135 56q78 0 134 -56t56 -135q0 -78 -56 -134zM517 166h1l-1 554h78v-725h-55l-357 559h-1l1 -554h-78v725h54zM842 673q-52 0 -90 -38q-37 -37 -37 -90q0 -52 37 -89t90 -37q52 0 89 37q38 38 38 89
q0 52 -38 90t-89 38zM662 221v73l180 -23l180 23v-73l-180 22z" />
    <glyph glyph-name="uni2117" unicode="&#x2117;" horiz-adv-x="858" 
d="M239 687q87 51 190 51t190 -51q87 -50 137 -137q51 -87 51 -190q0 -102 -50.5 -189.5t-137.5 -138.5q-88 -50 -190 -50t-189.5 50.5t-138.5 137.5q-50 88 -50 190t50 190q51 88 138 137zM266 78q74 -43 163 -43t163.5 43t117.5 118q44 76 44 164q0 89 -43.5 163.5
t-118.5 117.5q-110 69 -246.5 32.5t-198.5 -150.5q-43 -73 -43 -163q0 -89 43 -163t119 -119zM298 590h182q68 0 106.5 -36.5t38.5 -97.5q0 -63 -40.5 -98t-115.5 -35h-103v-193h-68v460zM366 380h103q88 0 88 76q0 75 -88 75h-103v-151z" />
    <glyph glyph-name="uni2120" unicode="&#x2120;" horiz-adv-x="912" 
d="M224 556q42 -14 70 -30q27 -15 39.5 -36.5t15.5 -58.5q0 -64 -45.5 -95t-109.5 -31q-62 0 -113 24l2 72q49 -34 113 -34q35 0 58.5 15.5t23.5 43.5q0 18 -12.5 32t-27 20.5t-43.5 17.5q-34 12 -65 27q-48 26 -54 92q0 59 42 87q43 28 102 28q54 0 102 -23l-1 -69
q-44 31 -98 31q-33 0 -54 -13.5t-21 -37.5q0 -25 23 -40q22 -12 53 -22zM606 457l152 264h59v-405h-69v262h-1l-140 -232h-3l-140 232h-2v-262h-68v405h59z" />
    <glyph glyph-name="trademark" unicode="&#x2122;" horiz-adv-x="907" 
d="M595 457l153 265h59v-406h-69v262h-1l-140 -232h-3l-141 232h-1v-262h-68v406h58zM159 659h-117v61h302v-61h-116v-343h-69v343z" />
    <glyph glyph-name="estimated" unicode="&#x212e;" horiz-adv-x="824" 
d="M422 12q172 0 279 138l18 -14q-114 -146 -297 -146q-149 -3 -256.5 100.5t-104.5 242.5q-4 140 104.5 243.5t256.5 101.5q149 3 256 -100.5t105 -250.5h-581v-239q94 -76 220 -76zM643 349v231q-92 76 -221 76q-125 0 -220 -77v-230h441z" />
    <glyph glyph-name="uni2153" unicode="&#x2153;" horiz-adv-x="745" 
d="M312 370l230 370l55 -38l-257 -351l-229 -371l-56 38zM157 317h-63v343l-62 -8v57l121 15h4v-407zM622 213q80 -32 80 -106q0 -53 -38 -85t-99 -32q-69 0 -116 38v75q52 -55 109 -55q48 -3 68 32t0 70.5t-70 32.5h-30v51h30q31 0 49 17t18 45q0 27 -17.5 43t-47.5 16
q-56 0 -98 -51v73q46 36 107 36q56 0 88 -30.5t32 -76.5q0 -61 -65 -93z" />
    <glyph glyph-name="uni2154" unicode="&#x2154;" horiz-adv-x="830" 
d="M398 370l229 370l56 -38l-257 -351l-230 -371l-56 38zM128 374h156v-57h-269v3l149 195q46 59 46 97q0 27 -17.5 43.5t-47.5 16.5q-58 0 -106 -58v74q49 42 114 42q57 0 90 -30.5t33 -79.5q0 -56 -61 -133zM708 213q80 -32 80 -106q0 -53 -38 -85t-100 -32q-67 0 -116 38
v75q54 -55 110 -55q35 0 56 18.5t21 48.5t-21 49t-58 19h-30v51h30q30 0 48 17t18 45q0 27 -17.5 43t-47.5 16q-56 0 -98 -51v73q48 36 107 36q56 0 88.5 -30.5t32.5 -76.5q0 -61 -65 -93z" />
    <glyph glyph-name="uni2155" unicode="&#x2155;" horiz-adv-x="759" 
d="M312 370l230 370l55 -38l-257 -351l-229 -371l-56 38zM157 317h-63v343l-62 -8v57l121 15h4v-407zM578 251q62 0 99 -33.5t37 -91.5q0 -63 -41.5 -99.5t-108.5 -36.5q-66 0 -115 38v75q52 -55 111 -55q38 0 62.5 21.5t24.5 58.5q0 39 -26.5 58t-63.5 19q-45 0 -86 -23
l27 221h198v-56h-147l-12 -100q19 4 41 4z" />
    <glyph glyph-name="uni2156" unicode="&#x2156;" horiz-adv-x="845" 
d="M398 370l229 370l56 -38l-257 -351l-230 -371l-56 38zM128 374h156v-57h-269v3l149 195q46 59 46 97q0 27 -17.5 43.5t-47.5 16.5q-58 0 -106 -58v74q49 42 114 42q57 0 90 -30.5t33 -79.5q0 -56 -61 -133zM663 251q62 0 99 -33.5t37 -91.5q0 -63 -41 -99.5t-109 -36.5
q-65 0 -115 38v75q52 -55 112 -55q38 0 62.5 21.5t24.5 58.5q0 39 -26.5 58t-63.5 19q-45 0 -86 -23l27 221h198v-56h-147l-13 -100q19 4 41 4z" />
    <glyph glyph-name="uni2157" unicode="&#x2157;" horiz-adv-x="853" 
d="M406 370l230 370l56 -38l-258 -351l-229 -371l-56 38zM298 424q0 -52 -38.5 -84.5t-99.5 -32.5q-69 0 -116 38v75q52 -55 109 -55q53 -4 71 40q16 39 -10 71q-21 26 -62 24h-31v51h31q30 0 48 17t18 45q0 26 -17.5 42.5t-47.5 16.5q-28 0 -54.5 -15t-43.5 -36v73
q46 36 107 36q55 0 87.5 -30t32.5 -77q0 -61 -65 -93q81 -31 81 -106zM672 251q61 0 98.5 -33t37.5 -92q0 -64 -42 -100t-108 -36t-115 38v75q52 -55 111 -55q39 0 63 21.5t24 58.5q0 39 -26.5 58t-63.5 19q-45 0 -85 -23l27 221h197v-56h-147l-12 -100q19 4 41 4z" />
    <glyph glyph-name="uni2158" unicode="&#x2158;" horiz-adv-x="876" 
d="M429 370l229 370l56 -38l-258 -351l-229 -371l-56 38zM276 317h-63v95h-200v3l142 305h69l-119 -251h108v141l60 41h3v-182h44v-57h-44v-95zM694 251q62 0 99 -33.5t37 -91.5q0 -63 -41.5 -99.5t-108.5 -36.5q-65 0 -115 38v75q52 -55 112 -55q38 0 62.5 21.5t24.5 58.5
q0 39 -26.5 58t-64.5 19q-44 0 -85 -23l27 221h198v-56h-148l-12 -100q19 4 41 4z" />
    <glyph glyph-name="uni2159" unicode="&#x2159;" horiz-adv-x="730" 
d="M312 370l230 370l55 -38l-257 -351l-229 -371l-56 38zM157 317h-63v343l-62 -8v57l121 15h4v-407zM567 269q55 0 96 -39t41 -99q0 -59 -41 -100t-104 -41q-62 0 -103 41q-39 41 -39 100q0 35 16 67l95 205h69l-65 -138q16 4 35 4zM559 47q37 0 60.5 24t23.5 60
q0 35 -23 60t-59 25t-60 -24.5t-24 -60.5t23 -60t59 -24z" />
    <glyph glyph-name="uni215A" unicode="&#x215a;" horiz-adv-x="835" 
d="M417 370l230 370l56 -38l-258 -351l-229 -371l-56 38zM307 443q0 -63 -41.5 -99.5t-108.5 -36.5q-66 0 -115 38v75q52 -55 111 -55q39 0 63.5 22t24.5 58q0 39 -27 58t-64 19q-45 0 -85 -23l27 221h198v-56h-148l-12 -100q19 4 41 4q62 0 99 -33.5t37 -91.5zM673 269
q55 0 96 -39q40 -39 40 -99q0 -59 -41 -100t-103 -41q-63 0 -104 41q-39 41 -39 100q0 35 16 67l95 205h69l-64 -138q15 4 35 4zM665 46q36 0 60 24.5t24 60.5t-23.5 60t-59.5 24t-59.5 -24t-23.5 -60t23 -60.5t59 -24.5z" />
    <glyph glyph-name="oneeighth" unicode="&#x215b;" horiz-adv-x="763" 
d="M312 370l230 370l55 -38l-257 -351l-229 -371l-56 38zM157 317h-63v343l-62 -8v57l121 15h4v-407zM647 214q74 -32 74 -108q0 -53 -37 -84.5t-99 -31.5t-99 32t-37 84q0 75 74 107q-61 30 -61 93q0 47 33 77t90 30t90.5 -30t33.5 -77q0 -62 -62 -92zM585 358
q-27 0 -43 -16.5t-16 -42.5q0 -28 16.5 -45t42.5 -17t43 17.5t17 44.5q0 26 -16 42.5t-44 16.5zM585 47q33 0 51.5 18.5t18.5 47.5q0 30 -18.5 50t-51.5 20t-51.5 -20.5t-18.5 -49.5q0 -30 18.5 -48t51.5 -18z" />
    <glyph glyph-name="threeeighths" unicode="&#x215c;" horiz-adv-x="857" 
d="M406 370l230 370l56 -38l-258 -351l-229 -371l-56 38zM298 424q0 -52 -38.5 -84.5t-99.5 -32.5q-69 0 -116 38v75q52 -55 109 -55q53 -4 71 40q16 39 -10 71q-21 26 -62 24h-31v51h31q30 0 48 17t18 45q0 26 -17.5 42.5t-47.5 16.5q-28 0 -54.5 -15t-43.5 -36v73
q46 36 107 36q55 0 87.5 -30t32.5 -77q0 -61 -65 -93q81 -31 81 -106zM741 214q74 -32 74 -108q0 -53 -37 -84.5t-99 -31.5t-99 32t-37 84q0 75 74 107q-61 30 -61 93q0 47 33.5 77t89.5 30q57 0 90.5 -30t33.5 -77q0 -62 -62 -92zM679 358q-27 0 -43 -16t-16 -43
q0 -28 16.5 -45t42.5 -17t43 17.5t17 44.5q0 26 -16 42.5t-44 16.5zM679 47q33 0 51.5 18.5t18.5 47.5q0 30 -18.5 50t-51.5 20t-51.5 -20.5t-18.5 -49.5q0 -30 18.5 -48t51.5 -18z" />
    <glyph glyph-name="fiveeighths" unicode="&#x215d;" horiz-adv-x="868" 
d="M417 370l230 370l56 -38l-258 -351l-229 -371l-56 38zM307 443q0 -63 -41.5 -99.5t-108.5 -36.5q-66 0 -115 38v75q52 -55 111 -55q39 0 63.5 22t24.5 58q0 39 -27 58t-64 19q-45 0 -85 -23l27 221h198v-56h-148l-12 -100q19 4 41 4q62 0 99 -33.5t37 -91.5zM753 214
q73 -31 73 -108q0 -53 -37 -84.5t-99 -31.5q-61 0 -98.5 32t-37.5 84q0 75 74 107q-61 30 -61 93q0 47 33.5 77t89.5 30q57 0 90.5 -30t33.5 -77q0 -62 -61 -92zM690 358q-27 0 -43 -16.5t-16 -42.5q0 -28 16.5 -45t42.5 -17t43 17.5t17 44.5q0 26 -16 42.5t-44 16.5z
M690 47q33 0 51.5 18.5t18.5 47.5q0 30 -18.5 50t-51.5 20t-51.5 -20.5t-18.5 -49.5q0 -30 19 -48t51 -18z" />
    <glyph glyph-name="seveneighths" unicode="&#x215e;" horiz-adv-x="778" 
d="M327 370l229 370l56 -38l-258 -351l-229 -371l-56 38zM302 717l-186 -400h-69l163 347h-178v56h270v-3zM662 214q74 -32 74 -108q0 -53 -37.5 -84.5t-99.5 -31.5q-61 0 -98.5 32t-37.5 84q0 75 74 107q-61 30 -61 93q0 47 33.5 77t89.5 30q57 0 90.5 -30t33.5 -77
q0 -62 -61 -92zM599 358q-27 0 -42.5 -16t-15.5 -43t16.5 -44.5t41.5 -17.5q26 0 43 17.5t17 44.5t-15.5 43t-44.5 16zM669 113q0 30 -18.5 50t-51.5 20q-32 0 -50.5 -20t-18.5 -50t18.5 -48t50.5 -18q33 0 51.5 18t18.5 48z" />
    <glyph glyph-name="arrowleft" unicode="&#x2190;" horiz-adv-x="884" 
d="M335 672h100l-275 -273h684v-72h-686l277 -275h-100l-310 310z" />
    <glyph glyph-name="arrowup" unicode="&#x2191;" horiz-adv-x="884" 
d="M124 461l310 310l310 -310v-100l-273 275v-684h-72v686l-275 -277v100z" />
    <glyph glyph-name="arrowright" unicode="&#x2192;" horiz-adv-x="884" 
d="M449 672h100l310 -310l-310 -310h-100l277 275h-686v72h684z" />
    <glyph glyph-name="arrowdown" unicode="&#x2193;" horiz-adv-x="884" 
d="M398 771h71v-686l275 277v-100l-310 -310l-310 310v100l274 -275v684z" />
    <glyph glyph-name="uni2196" unicode="&#x2196;" horiz-adv-x="884" 
d="M145 652h438l72 -71l-389 1l484 -483l-50 -51l-486 484l3 -390l-72 71v439z" />
    <glyph glyph-name="uni2197" unicode="&#x2197;" horiz-adv-x="884" 
d="M307 652h438v-439l-72 -71l2 390l-484 -484l-51 51l484 483l-389 -1z" />
    <glyph glyph-name="uni2198" unicode="&#x2198;" horiz-adv-x="884" 
d="M140 604l51 50l484 -484l-2 390l72 -71v-439h-438l-72 71l389 -1z" />
    <glyph glyph-name="uni2199" unicode="&#x2199;" horiz-adv-x="884" 
d="M214 170l486 484l50 -50l-484 -484l389 1l-72 -71h-438v439l72 71z" />
    <glyph glyph-name="partialdiff" unicode="&#x2202;" horiz-adv-x="575" 
d="M193 720h89q73 -79 148 -211q41 -68 66 -142q26 -76 26 -137q0 -104 -67 -175q-68 -71 -175 -71q-106 0 -174 71q-67 71 -67 185q0 106 61 174q62 69 153 69q83 0 136 -47q-70 145 -196 284zM281 58q74 0 119 50q45 51 45 127q0 78 -46 128q-45 51 -121 51t-119 -51
q-43 -49 -43 -127q0 -76 45.5 -127t119.5 -51z" />
    <glyph glyph-name="product" unicode="&#x220f;" horiz-adv-x="629" 
d="M49 720h531v-71h-65v-649h-73v649h-254v-649h-73v649h-66v71z" />
    <glyph glyph-name="summation" unicode="&#x2211;" horiz-adv-x="630" 
d="M46 720h534v-71h-439l314 -409l-314 -409h439v-71h-534v68l319 412l-319 412v68z" />
    <glyph glyph-name="minus" unicode="&#x2212;" horiz-adv-x="635" 
d="M57 358h522v-63h-522v63z" />
    <glyph glyph-name="radical" unicode="&#x221a;" horiz-adv-x="539" 
d="M231 78l255 652h73l-291 -730h-73l-192 480h73z" />
    <glyph glyph-name="infinity" unicode="&#x221e;" horiz-adv-x="818" 
d="M603 456q70 0 114 -44q45 -44 45 -111q0 -62 -47 -106q-46 -43 -121 -43q-91 0 -186 107q-49 -55 -92 -81t-99 -26q-72 0 -116 43q-44 44 -44 110q0 63 47 107t121 44q93 0 185 -108q39 43 79 72q49 36 114 36zM225 395q-48 0 -76.5 -26t-28.5 -64q0 -40 27 -66.5
t75 -26.5q74 0 149 93q-71 90 -146 90zM596 395q-74 0 -148 -93q71 -90 145 -90q49 0 77.5 25.5t28.5 63.5q0 41 -28 67.5t-75 26.5z" />
    <glyph glyph-name="integral" unicode="&#x222b;" horiz-adv-x="362" 
d="M281 730q38 0 72 -7v-72q-24 10 -57 10q-48 0 -64 -34q-11 -29 -11 -90v-601q0 -89 -33 -132.5t-106 -43.5q-39 0 -73 7v72q27 -10 64 -10q40 0 55 28.5t15 95.5v601q0 90 32 133t106 43z" />
    <glyph glyph-name="approxequal" unicode="&#x2248;" horiz-adv-x="604" 
d="M205 518q32 0 69 -22.5t70.5 -45t56.5 -22.5q44 0 83 78l49 -28q-50 -119 -134 -119q-51 0 -106 45q-52 44 -90 44q-25 0 -43 -18t-41 -58l-49 27q52 119 135 119zM205 309q48 0 104 -46q61 -44 92 -44q44 0 83 77l49 -27q-50 -119 -134 -119q-47 0 -106 44
q-53 45 -90 45q-25 0 -43 -18t-41 -59l-49 27q18 45 53 82.5t82 37.5z" />
    <glyph glyph-name="notequal" unicode="&#x2260;" horiz-adv-x="635" 
d="M370 563h67l-43 -105h185v-62h-210l-54 -138h264v-63h-289l-42 -105h-65l41 105h-167v63h192l55 138h-247v62h271z" />
    <glyph glyph-name="lessequal" unicode="&#x2264;" horiz-adv-x="639" 
d="M61 349l495 251v-70l-431 -216l431 -216v-98h-495v62h438l-438 218v69z" />
    <glyph glyph-name="greaterequal" unicode="&#x2265;" horiz-adv-x="639" 
d="M83 530v70l495 -251v-69l-437 -218h437v-62h-495v98l431 216z" />
    <glyph glyph-name="uni3008" unicode="&#x3008;" horiz-adv-x="294" 
d="M218 815h69l-194 -489l194 -488h-69l-194 488z" />
    <glyph glyph-name="uni3009" unicode="&#x3009;" horiz-adv-x="294" 
d="M7 815h69l195 -489l-195 -488h-69l194 488z" />
    <glyph glyph-name="NULL" horiz-adv-x="612" 
d="M100 725h451v-725h-451v725zM500 51v623h-349v-623h349z" />
    <glyph glyph-name="CR" horiz-adv-x="333" 
 />
    <glyph glyph-name="L.drop" horiz-adv-x="568" 
d="M105 576h80v-503h364v-73h-444v576z" />
    <glyph glyph-name="T.over" horiz-adv-x="563" 
d="M20 720h532v-73h-231v-647h-80v647h-221v73z" />
    <glyph glyph-name="A.swsh" horiz-adv-x="758" 
d="M14 0l605 725h38v-725h-80v196h-304l-163 -196h-96zM577 562l-244 -294h244v294z" />
    <glyph glyph-name="T.swsh" horiz-adv-x="426" 
d="M20 720h301v-720h-80v647h-221v73z" />
    <glyph glyph-name="V.swsh" horiz-adv-x="758" 
d="M577 158v562h80v-725h-38l-605 725h96z" />
    <glyph glyph-name="W.swsh" horiz-adv-x="1100" 
d="M915 158v562h80v-725h-37l-301 361v-361h-38l-605 725h96l471 -568v294l-229 274h97l132 -160v160h76v-251z" />
    <glyph glyph-name="A.titl" horiz-adv-x="758" 
d="M744 0h-97l-162 196h-304v-196h-80v725h37zM181 562v-294h244z" />
    <glyph glyph-name="T.titl" horiz-adv-x="426" 
d="M185 0h-80v720h301v-73h-221v-647z" />
    <glyph glyph-name="V.titl" horiz-adv-x="758" 
d="M181 158l466 562h97l-606 -725h-37v725h80v-562z" />
    <glyph glyph-name="W.titl" horiz-adv-x="1081" 
d="M499 152l471 568h97l-606 -725h-37v342l-286 -342h-37v725h80v-562l243 293v269h75v-178l148 178h97l-245 -293v-275z" />
    <glyph glyph-name="i.loclTRK" horiz-adv-x="239" 
d="M120 694q23 0 40 -17t17 -40t-17 -40t-40 -17t-40 17t-17 40t17 40t40 17zM82 480h77v-480h-77v480z" />
    <glyph glyph-name="a.ordn" horiz-adv-x="446" 
d="M203 376q-72 0 -119 50q-46 50 -46 126t46 125q46 51 119 51q77 0 125 -58h2l10 50h42v-336h-42l-10 51h-2q-47 -59 -125 -59zM211 434q46 0 78 32q32 34 32 80v12q0 47 -32 79q-31 33 -78 33q-48 0 -78 -33.5t-30 -84.5t30 -84.5t78 -33.5z" />
    <glyph glyph-name="b.ordn" horiz-adv-x="446" 
d="M243 376q-78 0 -125 59h-2l-10 -51h-42v511h64v-172l-1 -49h2q43 54 117 54q71 0 116.5 -51.5t45.5 -124.5q0 -74 -47 -126q-47 -50 -118 -50zM236 434q48 0 78 33.5t30 84.5t-30 84.5t-78 33.5q-47 0 -79 -32.5t-32 -79.5v-12q0 -47 32 -79.5t79 -32.5z" />
    <glyph glyph-name="c.ordn" horiz-adv-x="360" 
d="M219 376q-84 0 -134 50q-49 50 -49 126t49 125q49 51 134 51q54 0 92 -23v-63q-43 28 -92 28q-55 0 -86.5 -33t-31.5 -85t31.5 -85t86.5 -33q49 0 92 28v-63q-38 -23 -92 -23z" />
    <glyph glyph-name="d.ordn" horiz-adv-x="446" 
d="M203 376q-72 0 -119 50q-46 50 -46 126q0 74 46 125t117 51q38 0 70 -17t46 -37h2l-2 49v172h65v-511h-42l-10 51h-2q-47 -59 -125 -59zM211 434q46 0 78 32q32 34 32 80v12q0 47 -32 79q-31 33 -78 33q-48 0 -78.5 -33.5t-30.5 -84.5t30.5 -84.5t78.5 -33.5z" />
    <glyph glyph-name="e.ordn" horiz-adv-x="398" 
d="M206 728q77 0 118.5 -52t29.5 -146h-249q3 -45 34 -72t85 -27q62 0 112 34v-59q-46 -30 -116 -30q-83 0 -132 47t-49 129q0 76 45 126q47 50 122 50zM206 678q-44 0 -71 -27.5t-30 -73.5h193q-1 48 -25.5 74.5t-66.5 26.5z" />
    <glyph glyph-name="f.ordn" horiz-adv-x="287" 
d="M207 856q-25 0 -36.5 -13t-11.5 -45v-78h108v-55h-108l1 -281h-66v281h-67v55h67v84q0 50 25 79.5t74 29.5q40 0 74 -18v-61q-32 22 -60 22z" />
    <glyph glyph-name="g.ordn" horiz-adv-x="446" 
d="M203 218q-77 0 -127 35v62q59 -41 123 -41q58 0 89 29t31 82v45h-2q-15 -21 -45.5 -37.5t-68.5 -16.5q-73 0 -119 51q-46 50 -46 125q0 76 46 125q46 51 119 51q77 0 125 -58h2l10 50h42v-331q0 -81 -47.5 -126t-131.5 -45zM211 434q46 0 78 32q32 34 32 80v12
q0 47 -32 79q-31 33 -78 33q-48 0 -78 -33.5t-30 -84.5t30 -84.5t78 -33.5z" />
    <glyph glyph-name="h.ordn" horiz-adv-x="432" 
d="M128 384h-64v511h64v-172l-1 -56h1q48 61 118 61q67 0 97.5 -42t30.5 -100v-202h-65v199q0 88 -74 88q-43 0 -75 -34t-32 -86v-167z" />
    <glyph glyph-name="i.ordn" horiz-adv-x="186" 
d="M93 876q20 0 32 -12t12 -30q0 -19 -12 -31t-32 -12t-32 12t-12 31q0 18 12.5 30t31.5 12zM61 720h64v-336h-64v336z" />
    <glyph glyph-name="j.ordn" horiz-adv-x="176" 
d="M82 791q-20 0 -32 12t-12 31q0 18 12 30t32 12q19 0 31.5 -12t12.5 -30q0 -19 -12.5 -31t-31.5 -12zM23 225q-30 0 -53 10v55q20 -9 36 -9q24 0 34 14.5t10 45.5v379h64v-388q0 -107 -91 -107z" />
    <glyph glyph-name="k.ordn" horiz-adv-x="366" 
d="M345 384h-74l-123 144h-19v-144h-65v511h65v-312h17l118 137h74l-142 -163z" />
    <glyph glyph-name="l.ordn" horiz-adv-x="192" 
d="M64 895h64v-511h-64v511z" />
    <glyph glyph-name="m.ordn" horiz-adv-x="665" 
d="M481 728q66 0 96 -44t30 -98v-202h-65v199q0 88 -74 88q-41 0 -71 -34.5t-30 -85.5v-167h-64v199q0 88 -74 88q-39 0 -71 -35q-30 -34 -30 -85v-167h-64v336h42l14 -60h1q50 68 121 68q82 0 112 -73q52 73 127 73z" />
    <glyph glyph-name="n.ordn" horiz-adv-x="432" 
d="M246 728q67 0 97.5 -42t30.5 -100v-202h-65v199q0 88 -74 88q-43 0 -75 -34t-32 -86v-167h-64v336h42l14 -60h1q48 68 125 68z" />
    <glyph glyph-name="o.ordn" horiz-adv-x="426" 
d="M213 376q-78 0 -127 51q-50 52 -50 125t50 125q50 51 126 51q78 0 127 -51q50 -52 50 -125q0 -74 -50 -125t-126 -51zM213 436q48 0 80 33.5t32 82.5t-32 82.5t-80 33.5t-80 -33.5t-32 -82.5t32 -82.5t80 -33.5z" />
    <glyph glyph-name="p.ordn" horiz-adv-x="446" 
d="M128 223h-64v497h42l10 -50h2q49 58 125 58q71 0 118 -51q47 -50 47 -125q0 -73 -47 -124.5t-118 -51.5q-72 0 -114 54h-2l1 -49v-158zM236 434q48 0 78 33t30 84t-30 85t-78 34q-47 0 -79 -32.5t-32 -79.5v-12q0 -47 32 -79.5t79 -32.5z" />
    <glyph glyph-name="q.ordn" horiz-adv-x="446" 
d="M382 223h-65v158l2 49h-2q-15 -21 -45.5 -37.5t-68.5 -16.5q-73 0 -119 51q-46 50 -46 125q0 76 46 125q46 51 119 51q77 0 125 -58h2l10 50h42v-497zM211 434q46 0 78 32q32 34 32 80v12q0 47 -32 79q-31 33 -78 33q-48 0 -78 -33.5t-30 -84.5t30 -84.5t78 -33.5z" />
    <glyph glyph-name="r.ordn" horiz-adv-x="292" 
d="M128 384h-64v336h42l14 -60h1q41 68 103 68q25 0 43 -8v-65q-22 13 -46 13q-38 0 -65.5 -33.5t-27.5 -83.5v-167z" />
    <glyph glyph-name="s.ordn" horiz-adv-x="321" 
d="M146 376q-52 0 -97 20v67q47 -33 101 -33q29 0 47.5 12.5t18.5 33.5q0 24 -20 35q-18 10 -45 19l-6 2q-42 15 -67 30q-32 22 -32 67q0 48 34 73.5t87 25.5q46 0 88 -17v-60q-39 24 -84 24q-57 0 -57 -41q0 -19 13.5 -28.5t52.5 -22.5q46 -15 70 -31q34 -21 34 -68
q0 -52 -38 -80t-100 -28z" />
    <glyph glyph-name="t.ordn" horiz-adv-x="300" 
d="M262 720v-55h-108l-1 -173q0 -33 10.5 -46.5t33.5 -13.5q30 0 65 29v-60q-34 -25 -83 -25q-91 0 -91 107v182h-66v55h66l24 107h42v-107h108z" />
    <glyph glyph-name="u.ordn" horiz-adv-x="432" 
d="M186 376q-67 0 -97.5 42t-30.5 100v202h65v-199q0 -88 74 -88q44 0 75 34q32 35 32 86v167h64v-336h-41l-15 60h-1q-47 -68 -125 -68z" />
    <glyph glyph-name="v.ordn" horiz-adv-x="376" 
d="M188 474l94 246h70l-141 -338h-45l-142 338h69z" />
    <glyph glyph-name="w.ordn" horiz-adv-x="541" 
d="M372 487l76 233h69l-119 -338h-47l-81 240l-79 -240h-48l-118 338h68l77 -233l77 235h47z" />
    <glyph glyph-name="x.ordn" horiz-adv-x="359" 
d="M213 557l121 -173h-71l-84 128l-84 -128h-71l122 173l-117 163h71l79 -118l79 118h71z" />
    <glyph glyph-name="y.ordn" horiz-adv-x="376" 
d="M188 469l94 251h70l-132 -313l-71 -184h-69l78 176l-134 321h69z" />
    <glyph glyph-name="z.ordn" horiz-adv-x="338" 
d="M36 720h270v-4l-179 -277h175v-55h-275v4l179 277h-170v55z" />
    <glyph glyph-name="l.sc.drop" horiz-adv-x="452" 
d="M84 425h73v-358h275v-67h-348v425z" />
    <glyph glyph-name="n_t.sc.liga" horiz-adv-x="966" 
d="M509 141v332h-162v67h236v-543h-50l-374 400h-1v-397h-74v543h50l373 -402h2zM765 0h-75v540h247v-67h-172v-473z" />
    <glyph glyph-name="t.sc.over" horiz-adv-x="466" 
d="M16 540h446v-67h-192v-473h-74v473h-180v67z" />
    <glyph glyph-name="a.sc" horiz-adv-x="575" 
d="M551 0h-80l-57 135h-253l-57 -135h-80l243 545h41zM288 432l-99 -232h197z" />
    <glyph glyph-name="aacute.sc" horiz-adv-x="575" 
d="M354 740h92l-129 -135h-58zM551 0h-80l-57 135h-253l-57 -135h-80l243 545h41zM288 432l-99 -232h197z" />
    <glyph glyph-name="abreve.sc" horiz-adv-x="575" 
d="M287 590q-66 0 -106 41t-40 110h54q0 -40 24 -65t68 -25t69.5 25t25.5 65h54q0 -69 -41 -110t-108 -41zM551 0h-80l-57 135h-253l-57 -135h-80l243 545h41zM288 432l-99 -232h197z" />
    <glyph glyph-name="acircumflex.sc" horiz-adv-x="575" 
d="M367 605l-79 98l-80 -98h-81l125 137h72l125 -137h-82zM551 0h-80l-57 135h-253l-57 -135h-80l243 545h41zM288 432l-99 -232h197z" />
    <glyph glyph-name="adieresis.sc" horiz-adv-x="575" 
d="M192 612q-23 0 -39.5 17.5t-16.5 40.5t16.5 39.5t39.5 16.5t40.5 -16.5t17.5 -39.5q0 -24 -17 -41t-41 -17zM383 612q-23 0 -40 17t-17 41q0 23 17 39.5t40 16.5t40 -16.5t17 -39.5q0 -24 -16.5 -41t-40.5 -17zM551 0h-80l-57 135h-253l-57 -135h-80l243 545h41zM288 432
l-99 -232h197z" />
    <glyph glyph-name="agrave.sc" horiz-adv-x="575" 
d="M222 740l95 -135h-58l-129 135h92zM551 0h-80l-57 135h-253l-57 -135h-80l243 545h41zM288 432l-99 -232h197z" />
    <glyph glyph-name="amacron.sc" horiz-adv-x="575" 
d="M133 683h309v-63h-309v63zM551 0h-80l-57 135h-253l-57 -135h-80l243 545h41zM288 432l-99 -232h197z" />
    <glyph glyph-name="aogonek.sc" horiz-adv-x="575" 
d="M503 -142q27 0 50 20v-58q-32 -17 -63 -17q-40 0 -63 22t-23 55q0 70 108 120h-41l-57 135h-253l-57 -135h-80l243 545h41l243 -545q-38 -16 -64.5 -44t-26.5 -59q0 -39 43 -39zM288 432l-99 -232h197z" />
    <glyph glyph-name="aring.sc" horiz-adv-x="575" 
d="M363 609q-31 -31 -75 -31t-75 31t-31 75t31 75t75 31t75 -31t31 -75t-31 -75zM325 721q-15 16 -37 16t-38 -16q-15 -15 -15 -37t15 -38q16 -15 38 -15t37 15q16 16 16 38t-16 37zM551 0h-80l-57 135h-253l-57 -135h-80l243 545h41zM288 432l-99 -232h197z" />
    <glyph glyph-name="atilde.sc" horiz-adv-x="575" 
d="M226 661q-43 0 -49 -59h-47q0 45 25 80q25 36 69 36q26 0 71.5 -29.5t57.5 -29.5q20 0 32 17.5t13 41.5h48q0 -50 -23.5 -83t-64.5 -33q-26 0 -72.5 29.5t-59.5 29.5zM551 0h-80l-57 135h-253l-57 -135h-80l243 545h41zM288 432l-99 -232h197z" />
    <glyph glyph-name="ae.sc" horiz-adv-x="770" 
d="M425 242v-175h280v-67h-355v134h-205l-91 -134h-80l376 540h349v-67h-274v-164h253v-67h-253zM350 434l-160 -234h160v234z" />
    <glyph glyph-name="aeacute.sc" horiz-adv-x="770" 
d="M454 740h92l-128 -135h-59zM425 242v-175h280v-67h-355v134h-205l-91 -134h-80l376 540h349v-67h-274v-164h253v-67h-253zM350 434l-160 -234h160v234z" />
    <glyph glyph-name="b.sc" horiz-adv-x="584" 
d="M399 282v-2q64 -7 100 -41.5t36 -88.5q0 -71 -48 -110.5t-130 -39.5h-265v540h234q81 0 131.5 -33.5t50.5 -99.5q0 -49 -30.5 -81.5t-78.5 -43.5zM325 475h-158v-167h159q48 0 78 26t30 62q0 79 -109 79zM167 65h187q106 0 106 91q0 38 -32.5 65t-81.5 27h-179v-183z" />
    <glyph glyph-name="c.sc" horiz-adv-x="593" 
d="M358 -14q-138 0 -224 81q-85 82 -85 203t85 202q85 82 224 82q93 0 172 -40v-81q-76 49 -169 49q-109 0 -171 -61q-62 -62 -62 -151q0 -90 62.5 -151t170.5 -61q93 0 169 49v-81q-79 -40 -172 -40z" />
    <glyph glyph-name="cacute.sc" horiz-adv-x="593" 
d="M383 605h-58l95 135h91zM358 -14q-138 0 -224 81q-85 82 -85 203t85 202q85 82 224 82q93 0 172 -40v-81q-76 49 -169 49q-109 0 -171 -61q-62 -62 -62 -151q0 -90 62.5 -151t170.5 -61q93 0 169 49v-81q-79 -40 -172 -40z" />
    <glyph glyph-name="ccaron.sc" horiz-adv-x="593" 
d="M351 644l80 98h82l-125 -137h-73l-125 137h81zM358 -14q-138 0 -224 81q-85 82 -85 203t85 202q85 82 224 82q93 0 172 -40v-81q-76 49 -169 49q-109 0 -171 -61q-62 -62 -62 -151q0 -90 62.5 -151t170.5 -61q93 0 169 49v-81q-79 -40 -172 -40z" />
    <glyph glyph-name="ccedilla.sc" horiz-adv-x="593" 
d="M361 482q-109 0 -171 -61q-62 -62 -62 -151q0 -90 62.5 -151t170.5 -61q93 0 169 49v-81q-79 -40 -172 -40l-18 -33q22 2 28 2q38 0 61 -17.5t23 -51.5q0 -42 -28.5 -64.5t-75.5 -22.5q-38 0 -78 15v52q40 -20 73 -20q53 0 53 41q0 39 -59 39q-21 0 -49 -9l35 71
q-125 11 -200 90q-74 80 -74 192q0 121 85 202q85 82 224 82q93 0 172 -40v-81q-76 49 -169 49z" />
    <glyph glyph-name="ccircumflex.sc" horiz-adv-x="593" 
d="M390 742l125 -137h-82l-79 98l-80 -98h-81l124 137h73zM358 -14q-138 0 -224 81q-85 82 -85 203t85 202q85 82 224 82q93 0 172 -40v-81q-76 49 -169 49q-109 0 -171 -61q-62 -62 -62 -151q0 -90 62.5 -151t170.5 -61q93 0 169 49v-81q-79 -40 -172 -40z" />
    <glyph glyph-name="cdotaccent.sc" horiz-adv-x="593" 
d="M353 728q24 0 41 -16.5t17 -39.5q0 -24 -17 -41t-41 -17q-23 0 -40 17t-17 41q0 23 17 39.5t40 16.5zM358 -14q-138 0 -224 81q-85 82 -85 203t85 202q85 82 224 82q93 0 172 -40v-81q-76 49 -169 49q-109 0 -171 -61q-62 -62 -62 -151q0 -90 62.5 -151t170.5 -61
q93 0 169 49v-81q-79 -40 -172 -40z" />
    <glyph glyph-name="d.sc" horiz-adv-x="642" 
d="M92 540h174q157 0 239.5 -71.5t82.5 -198.5q0 -128 -82.5 -199t-239.5 -71h-174v540zM266 475h-99v-410h99q247 0 247 205t-247 205z" />
    <glyph glyph-name="eth.sc" horiz-adv-x="665" 
d="M115 540h174q161 0 241.5 -72.5t80.5 -197.5q0 -128 -81.5 -199t-240.5 -71h-174v240h-67v60h67v240zM190 66h99q247 0 247 204t-247 204h-99v-174h167v-60h-167v-174z" />
    <glyph glyph-name="dcaron.sc" horiz-adv-x="642" 
d="M296 644l79 98h82l-125 -137h-73l-125 137h82zM92 540h174q157 0 239.5 -71.5t82.5 -198.5q0 -128 -82.5 -199t-239.5 -71h-174v540zM266 475h-99v-410h99q247 0 247 205t-247 205z" />
    <glyph glyph-name="dcroat.sc" horiz-adv-x="665" 
d="M115 540h174q161 0 241.5 -72.5t80.5 -197.5q0 -128 -81.5 -199t-240.5 -71h-174v240h-67v60h67v240zM190 66h99q247 0 247 204t-247 204h-99v-174h167v-60h-167v-174z" />
    <glyph glyph-name="e.sc" horiz-adv-x="537" 
d="M92 540h378v-67h-303v-164h278v-67h-278v-175h303v-67h-378v540z" />
    <glyph glyph-name="eacute.sc" horiz-adv-x="537" 
d="M324 605h-59l95 135h92zM92 540h378v-67h-303v-164h278v-67h-278v-175h303v-67h-378v540z" />
    <glyph glyph-name="ebreve.sc" horiz-adv-x="537" 
d="M294 590q-67 0 -107 41t-40 110h54q0 -40 24 -65t69 -25q44 0 69 24.5t25 65.5h54q0 -69 -40.5 -110t-107.5 -41zM92 540h378v-67h-303v-164h278v-67h-278v-175h303v-67h-378v540z" />
    <glyph glyph-name="ecaron.sc" horiz-adv-x="537" 
d="M292 644l79 98h82l-125 -137h-73l-125 137h82zM92 540h378v-67h-303v-164h278v-67h-278v-175h303v-67h-378v540z" />
    <glyph glyph-name="ecircumflex.sc" horiz-adv-x="537" 
d="M331 742l125 -137h-83l-79 98l-80 -98h-81l125 137h73zM92 540h378v-67h-303v-164h278v-67h-278v-175h303v-67h-378v540z" />
    <glyph glyph-name="edieresis.sc" horiz-adv-x="537" 
d="M198 726q23 0 40.5 -16.5t17.5 -39.5q0 -24 -17 -41t-41 -17q-23 0 -39.5 17t-16.5 41q0 23 16.5 39.5t39.5 16.5zM389 726q24 0 41 -16.5t17 -39.5q0 -24 -17 -41t-41 -17q-23 0 -39.5 17t-16.5 41q0 23 16.5 39.5t39.5 16.5zM92 540h378v-67h-303v-164h278v-67h-278
v-175h303v-67h-378v540z" />
    <glyph glyph-name="edotaccent.sc" horiz-adv-x="537" 
d="M293 728q24 0 41 -16.5t17 -39.5q0 -24 -17 -41t-41 -17q-23 0 -39.5 17.5t-16.5 40.5t16.5 39.5t39.5 16.5zM92 540h378v-67h-303v-164h278v-67h-278v-175h303v-67h-378v540z" />
    <glyph glyph-name="egrave.sc" horiz-adv-x="537" 
d="M324 605h-59l-128 135h91zM92 540h378v-67h-303v-164h278v-67h-278v-175h303v-67h-378v540z" />
    <glyph glyph-name="emacron.sc" horiz-adv-x="537" 
d="M139 683h309v-63h-309v63zM92 540h378v-67h-303v-164h278v-67h-278v-175h303v-67h-378v540z" />
    <glyph glyph-name="eogonek.sc" horiz-adv-x="537" 
d="M422 -142q27 0 50 20v-58q-32 -17 -64 -17q-40 0 -63 22t-23 55q0 71 109 120h-339v540h378v-67h-303v-164h278v-67h-278v-175h303v-67q-38 -16 -64.5 -44t-26.5 -59q0 -39 43 -39z" />
    <glyph glyph-name="uni0259.sc" horiz-adv-x="636" 
d="M294 554q135 0 212 -80t77 -207q0 -122 -77 -202q-76 -79 -203 -79q-121 0 -191.5 79t-52.5 230h442q-5 88 -59 139t-148 51q-105 0 -205 -67v78q91 58 205 58zM303 52q84 0 138 50t60 133h-372q-1 -86 46 -134.5t128 -48.5z" />
    <glyph glyph-name="f.sc" horiz-adv-x="509" 
d="M167 0h-75v540h370v-67h-295v-164h270l-2 -67h-268v-242z" />
    <glyph glyph-name="g.sc" horiz-adv-x="669" 
d="M350 297h268q17 -145 -62 -228q-78 -83 -217 -83q-130 0 -210 79q-80 80 -80 203t84 204q83 82 222 82q113 0 193 -51v-81q-80 60 -187 60q-110 0 -171 -61q-62 -60 -62 -153t59 -150.5t156 -57.5q93 0 147 46t55 124h-191z" />
    <glyph glyph-name="gbreve.sc" horiz-adv-x="669" 
d="M355 592q-66 0 -106 41t-40 110h54q0 -40 24 -65t68 -25t69.5 25t25.5 65h54q0 -69 -41 -110t-108 -41zM350 297h268q17 -145 -62 -228q-78 -83 -217 -83q-130 0 -210 79q-80 80 -80 203t84 204q83 82 222 82q113 0 193 -51v-81q-80 60 -187 60q-110 0 -171 -61
q-62 -60 -62 -153t59 -150.5t156 -57.5q93 0 147 46t55 124h-191z" />
    <glyph glyph-name="gcircumflex.sc" horiz-adv-x="669" 
d="M435 607l-79 98l-80 -98h-81l124 137h73l125 -137h-82zM350 297h268q17 -145 -62 -228q-78 -83 -217 -83q-130 0 -210 79q-80 80 -80 203t84 204q83 82 222 82q113 0 193 -51v-81q-80 60 -187 60q-110 0 -171 -61q-62 -60 -62 -154q0 -93 59 -150t156 -57q93 0 147 46
t55 124h-191z" />
    <glyph glyph-name="uni0123.sc" horiz-adv-x="669" 
d="M350 297h268q17 -145 -62 -228q-78 -83 -217 -83q-130 0 -210 79q-80 80 -80 203t84 204q83 82 222 82q113 0 193 -51v-81q-80 60 -187 60q-110 0 -171 -61q-62 -60 -62 -153t59 -150.5t156 -57.5q93 0 147 46t55 124h-191zM312 -240h-60l51 187h80z" />
    <glyph glyph-name="gdotaccent.sc" horiz-adv-x="669" 
d="M355 616q-23 0 -40 17.5t-17 40.5t17 40t40 17q24 0 41 -17t17 -40q0 -24 -17 -41t-41 -17zM350 297h268q17 -145 -62 -228q-78 -83 -217 -83q-130 0 -210 79q-80 80 -80 203t84 204q83 82 222 82q113 0 193 -51v-81q-80 60 -187 60q-110 0 -171 -61q-62 -60 -62 -153
t59 -150.5t156 -57.5q93 0 147 46t55 124h-191z" />
    <glyph glyph-name="h.sc" horiz-adv-x="666" 
d="M499 304v236h75v-540h-75v236h-332v-236h-75v540h75v-236h332z" />
    <glyph glyph-name="hbar.sc" horiz-adv-x="706" 
d="M594 451h68v-59h-68v-392h-72v236h-338v-236h-72v392h-68v59h68v89h72v-89h338v89h72v-89zM184 304h338v88h-338v-88z" />
    <glyph glyph-name="hcircumflex.sc" horiz-adv-x="666" 
d="M412 605l-80 98l-80 -98h-81l125 137h73l125 -137h-82zM499 304v236h75v-540h-75v236h-332v-236h-75v540h75v-236h332z" />
    <glyph glyph-name="i.sc" horiz-adv-x="259" 
d="M92 540h74v-540h-74v540z" />
    <glyph glyph-name="iacute.sc" horiz-adv-x="259" 
d="M159 605h-59l96 135h91zM92 540h74v-540h-74v540z" />
    <glyph glyph-name="ibreve.sc" horiz-adv-x="259" 
d="M130 590q-67 0 -106.5 40.5t-39.5 110.5h54q0 -40 24 -65t68 -25t69.5 25t25.5 65h54q0 -69 -41 -110t-108 -41zM93 540h74v-540h-74v540z" />
    <glyph glyph-name="icircumflex.sc" horiz-adv-x="259" 
d="M167 742l125 -137h-82l-80 98l-79 -98h-82l125 137h73zM93 540h74v-540h-74v540z" />
    <glyph glyph-name="idieresis.sc" horiz-adv-x="259" 
d="M35 726q23 0 40 -16.5t17 -39.5q0 -24 -17 -41t-40 -17t-40 17t-17 41q0 23 17 39.5t40 16.5zM226 726q23 0 40 -16.5t17 -39.5q0 -24 -17 -41t-40 -17q-24 0 -40.5 17t-16.5 41q0 23 16.5 39.5t40.5 16.5zM93 540h74v-540h-74v540z" />
    <glyph glyph-name="i.sc.loclTRK" horiz-adv-x="259" 
d="M129 728q23 0 40 -16.5t17 -39.5q0 -24 -17 -41t-40 -17t-40 17t-17 41q0 23 17 39.5t40 16.5zM92 540h74v-540h-74v540z" />
    <glyph glyph-name="igrave.sc" horiz-adv-x="259" 
d="M160 605h-59l-128 135h92zM93 540h74v-540h-74v540z" />
    <glyph glyph-name="ij.sc" horiz-adv-x="681" 
d="M92 540h74v-540h-74v540zM439 -14q-77 0 -144 41v80q73 -49 137 -49q57 0 74 33q14 29 14 72v377h75v-384v-25q0 -35 -12 -63q-32 -82 -144 -82z" />
    <glyph glyph-name="imacron.sc" horiz-adv-x="259" 
d="M-24 683h309v-63h-309v63zM93 540h74v-540h-74v540z" />
    <glyph glyph-name="iogonek.sc" horiz-adv-x="259" 
d="M118 -142q27 0 50 20v-58q-32 -17 -63 -17q-40 0 -63 22t-23 55q0 70 108 120h-35v540h74v-540q-38 -16 -64.5 -44t-26.5 -59q0 -39 43 -39z" />
    <glyph glyph-name="itilde.sc" horiz-adv-x="259" 
d="M241 718h47q0 -47 -23 -81.5t-64 -34.5q-27 0 -73 29.5t-60 29.5q-43 0 -48 -59h-47q0 45 25 80q25 36 68 36q28 0 73 -29.5t56 -29.5q40 0 46 59zM93 540h74v-540h-74v540z" />
    <glyph glyph-name="j.sc" horiz-adv-x="422" 
d="M180 -14q-76 0 -144 41v80q73 -49 137 -49q53 0 71 28.5t18 76.5v377h75v-384q0 -18 -1 -25q0 -35 -12 -63q-32 -82 -144 -82z" />
    <glyph glyph-name="jcircumflex.sc" horiz-adv-x="422" 
d="M334 742l125 -137h-82l-79 98l-80 -98h-81l125 137h72zM180 -14q-76 0 -144 41v80q73 -49 137 -49q53 0 71 28.5t18 76.5v377h75v-384q0 -18 -1 -25q0 -35 -12 -63q-32 -82 -144 -82z" />
    <glyph glyph-name="k.sc" horiz-adv-x="528" 
d="M503 0h-89l-232 241h-14v-241h-76v540h76v-241h13l228 241h89l-260 -270z" />
    <glyph glyph-name="uni0137.sc" horiz-adv-x="528" 
d="M498 540l-260 -270l265 -270h-89l-232 241h-14v-241h-76v540h76v-241h13l228 241h89zM268 -240h-59l51 187h79z" />
    <glyph glyph-name="l.sc" horiz-adv-x="490" 
d="M92 540h74v-473h295v-67h-369v540z" />
    <glyph glyph-name="lacute.sc" horiz-adv-x="490" 
d="M158 605h-59l96 135h91zM92 540h74v-473h295v-67h-369v540z" />
    <glyph glyph-name="lcaron.sc" horiz-adv-x="499" 
d="M385 278h-59l64 262h80zM92 540h74v-473h295v-67h-369v540z" />
    <glyph glyph-name="uni013C.sc" horiz-adv-x="490" 
d="M92 540h74v-473h295v-67h-369v540zM210 -240h-59l51 187h79z" />
    <glyph glyph-name="ldot.sc" horiz-adv-x="490" 
d="M92 540h74v-473h295v-67h-369v540zM342 340q24 0 40.5 -17t16.5 -41t-16.5 -41t-40.5 -17t-40.5 17t-16.5 41t16.5 41t40.5 17z" />
    <glyph glyph-name="lslash.sc" horiz-adv-x="503" 
d="M179 242v-175h295v-67h-369v209l-49 -21v54l49 21v277h74v-244l156 70v-55z" />
    <glyph glyph-name="m.sc" horiz-adv-x="786" 
d="M393 158l262 388h39v-546h-73v368h-1l-224 -323h-6l-225 323h-1v-368h-72v546h39z" />
    <glyph glyph-name="n.sc" horiz-adv-x="686" 
d="M519 540h74v-546h-41l-384 399h-1v-393h-75v546h41l385 -399h1v393z" />
    <glyph glyph-name="nacute.sc" horiz-adv-x="686" 
d="M376 605h-59l96 135h91zM519 540h74v-546h-41l-384 399h-1v-393h-75v546h41l385 -399h1v393z" />
    <glyph glyph-name="ncaron.sc" horiz-adv-x="686" 
d="M344 644l79 98h82l-125 -137h-72l-125 137h81zM519 540h74v-546h-41l-384 399h-1v-393h-75v546h41l385 -399h1v393z" />
    <glyph glyph-name="uni0146.sc" horiz-adv-x="686" 
d="M519 540h74v-546h-41l-384 399h-1v-393h-75v546h41l385 -399h1v393zM315 -240h-59l51 187h79z" />
    <glyph glyph-name="eng.sc" horiz-adv-x="686" 
d="M519 147v393h74v-592q0 -119 -104 -119q-31 0 -62 11v63q21 -10 43 -10q29 0 40.5 16t11.5 47v72l-354 365h-1v-393h-75v543h41l385 -396h1z" />
    <glyph glyph-name="ntilde.sc" horiz-adv-x="686" 
d="M457 718h47q0 -47 -23 -81.5t-64 -34.5q-27 0 -73 29.5t-60 29.5q-43 0 -48 -59h-47q0 45 25 80q26 36 68 36q27 0 72.5 -29.5t56.5 -29.5q40 0 46 59zM519 540h74v-546h-41l-384 399h-1v-393h-75v546h41l385 -399h1v393z" />
    <glyph glyph-name="o.sc" horiz-adv-x="685" 
d="M342 -14q-127 0 -210 82q-83 83 -83 202q-3 117 83 201.5t210 82.5q127 0 210 -83q84 -83 84 -201q0 -120 -84 -202q-82 -82 -210 -82zM558 270q0 89 -61.5 150.5t-154.5 61.5q-91 0 -153 -62q-61 -61 -61 -150q0 -90 61 -151t153 -61q93 0 154 61q62 62 62 151z" />
    <glyph glyph-name="oacute.sc" horiz-adv-x="685" 
d="M373 607h-59l95 135h92zM342 -14q-127 0 -210 82q-83 83 -83 202q-3 117 83 201.5t210 82.5q127 0 210 -83q84 -83 84 -201q0 -120 -84 -202q-82 -82 -210 -82zM558 270q0 89 -61.5 150.5t-154.5 61.5q-91 0 -153 -62q-61 -61 -61 -150q0 -90 61 -151t153 -61
q93 0 154 61q62 62 62 151z" />
    <glyph glyph-name="obreve.sc" horiz-adv-x="685" 
d="M342 592q-66 0 -106 41t-40 110h54q0 -40 24 -65t68 -25q45 0 70 24.5t25 65.5h54q0 -69 -40.5 -110t-108.5 -41zM342 -14q-127 0 -210 82q-83 83 -83 202q-3 117 83 201.5t210 82.5q127 0 210 -83q84 -83 84 -201q0 -120 -84 -202q-82 -82 -210 -82zM558 270
q0 89 -61.5 150.5t-154.5 61.5q-91 0 -153 -62q-61 -61 -61 -150q0 -90 61 -151t153 -61q93 0 154 61q62 62 62 151z" />
    <glyph glyph-name="ocircumflex.sc" horiz-adv-x="685" 
d="M380 744l125 -137h-83l-79 98l-80 -98h-81l125 137h73zM343 -14q-128 0 -211 82q-83 83 -83 202q-2 118 83.5 202t210.5 82q126 0 209 -83q84 -83 84 -201q0 -120 -84 -202q-82 -82 -209 -82zM558 270q0 89 -61.5 150.5t-153.5 61.5t-154 -62q-61 -61 -61 -150
q0 -90 61 -151t153 -61q93 0 154 61q62 62 62 151z" />
    <glyph glyph-name="odieresis.sc" horiz-adv-x="685" 
d="M247 728q24 0 41 -16.5t17 -39.5q0 -24 -17 -41t-41 -17q-23 0 -39.5 17t-16.5 41q0 23 16.5 39.5t39.5 16.5zM438 728q24 0 41 -16.5t17 -39.5q0 -24 -17 -41t-41 -17q-23 0 -39.5 17t-16.5 41q0 23 16.5 39.5t39.5 16.5zM342 -14q-127 0 -210 82q-83 83 -83 202
q-3 117 83 201.5t210 82.5q127 0 210 -83q84 -83 84 -201q0 -120 -84 -202q-82 -82 -210 -82zM558 270q0 89 -61.5 150.5t-154.5 61.5q-91 0 -153 -62q-61 -61 -61 -150q0 -90 61 -151t153 -61q93 0 154 61q62 62 62 151z" />
    <glyph glyph-name="ograve.sc" horiz-adv-x="685" 
d="M373 607h-59l-128 135h91zM342 -14q-127 0 -210 82q-83 83 -83 202q-3 117 83 201.5t210 82.5q127 0 210 -83q84 -83 84 -201q0 -120 -84 -202q-82 -82 -210 -82zM558 270q0 89 -61.5 150.5t-154.5 61.5q-91 0 -153 -62q-61 -61 -61 -150q0 -90 61 -151t153 -61
q93 0 154 61q62 62 62 151z" />
    <glyph glyph-name="ohungarumlaut.sc" horiz-adv-x="685" 
d="M310 607h-57l50 135h90zM434 607h-56l83 135h89zM342 -14q-127 0 -210 82q-83 83 -83 202q-3 117 83 201.5t210 82.5q127 0 210 -83q84 -83 84 -201q0 -120 -84 -202q-82 -82 -210 -82zM558 270q0 89 -61.5 150.5t-154.5 61.5q-91 0 -153 -62q-61 -61 -61 -150
q0 -90 61 -151t153 -61q93 0 154 61q62 62 62 151z" />
    <glyph glyph-name="omacron.sc" horiz-adv-x="685" 
d="M188 685h309v-63h-309v63zM342 -14q-127 0 -210 82q-83 83 -83 202q-3 117 83 201.5t210 82.5q127 0 210 -83q84 -83 84 -201q0 -120 -84 -202q-82 -82 -210 -82zM558 270q0 89 -61.5 150.5t-154.5 61.5q-91 0 -153 -62q-61 -61 -61 -150q0 -90 61 -151t153 -61
q93 0 154 61q62 62 62 151z" />
    <glyph glyph-name="oslash.sc" horiz-adv-x="685" 
d="M597 520l-44 -50q82 -82 82 -200q0 -119 -83 -202q-82 -82 -210 -82q-96 0 -169 49l-44 -51l-42 36l44 50q-82 82 -82 200q-3 117 83 201.5t210 82.5q95 0 168 -49l44 51zM128 270q0 -81 53 -142l280 320q-52 34 -119 34q-91 0 -153 -62q-61 -61 -61 -150zM342 58
q93 0 154 61t61 151q0 83 -54 143l-280 -321q52 -34 119 -34z" />
    <glyph glyph-name="oslashacute.sc" horiz-adv-x="685" 
d="M408 744h92l-128 -135h-59zM597 520l-44 -50q82 -82 82 -200q0 -119 -83 -202q-82 -82 -210 -82q-96 0 -169 49l-44 -51l-42 36l44 50q-82 82 -82 200q-3 117 83 201.5t210 82.5q95 0 168 -49l44 51zM128 270q0 -81 53 -142l280 320q-52 34 -119 34q-91 0 -153 -62
q-61 -61 -61 -150zM342 58q93 0 154 61t61 151q0 83 -54 143l-280 -321q52 -34 119 -34z" />
    <glyph glyph-name="otilde.sc" horiz-adv-x="685" 
d="M454 720h47q0 -48 -23 -82t-65 -34q-26 0 -72.5 29.5t-59.5 29.5q-43 0 -48 -59h-48q0 45 25 80q26 36 69 36q26 0 71.5 -29.5t57.5 -29.5q40 0 46 59zM342 -14q-127 0 -210 82q-83 83 -83 202q-3 117 83 201.5t210 82.5q127 0 210 -83q84 -83 84 -201q0 -120 -84 -202
q-82 -82 -210 -82zM189 119q61 -61 153 -61q93 0 154 61q62 62 62 151q0 88 -62 150t-154 62q-91 0 -153 -62q-61 -61 -61 -150q0 -90 61 -151z" />
    <glyph glyph-name="oe.sc" horiz-adv-x="827" 
d="M347 540h413v-67h-268v-164h243v-68h-243v-174h268v-67h-413q-132 0 -214 79t-82 191t82 191t214 79zM418 71v398h-71q-98 0 -159 -58t-61 -141q0 -84 61 -142q62 -57 159 -57h71z" />
    <glyph glyph-name="p.sc" horiz-adv-x="532" 
d="M92 540h222q86 0 135 -46t49 -122q0 -75 -49 -121t-135 -46h-147v-205h-75v540zM167 271h140q56 0 86 27t30 75q0 46 -30.5 73.5t-85.5 27.5h-140v-203z" />
    <glyph glyph-name="thorn.sc" horiz-adv-x="543" 
d="M167 438h147q86 0 135 -46.5t49 -121.5q0 -76 -49 -121.5t-135 -45.5h-147v-103h-75v540h75v-102zM167 168h140q56 0 86 27t30 75t-30 75t-86 27h-140v-204z" />
    <glyph glyph-name="q.sc" horiz-adv-x="685" 
d="M636 270q0 -118 -83 -201l83 -69h-84l-42 34q-74 -48 -168 -48q-127 0 -210 82q-83 83 -83 202q-3 117 83 201.5t210 82.5q127 0 210 -83q84 -83 84 -201zM343 58q56 0 106 26l-106 87l40 41l112 -94q63 62 63 152q0 89 -61.5 150.5t-153.5 61.5t-154 -62
q-61 -61 -61 -150q0 -90 61 -151t154 -61z" />
    <glyph glyph-name="r.sc" horiz-adv-x="547" 
d="M516 0h-94l-204 229h-51v-229h-75v540h224q90 0 139 -41.5t49 -114.5t-50.5 -114t-145.5 -41h-1zM309 474h-142v-180h142q120 0 120 90t-120 90z" />
    <glyph glyph-name="racute.sc" horiz-adv-x="547" 
d="M347 740h91l-128 -135h-58zM516 0h-94l-204 229h-51v-229h-75v540h224q90 0 139 -41.5t49 -114.5t-50.5 -114t-145.5 -41h-1zM309 474h-142v-180h142q120 0 120 90t-120 90z" />
    <glyph glyph-name="rcaron.sc" horiz-adv-x="547" 
d="M440 742l-125 -137h-73l-125 137h81l80 -98l79 98h83zM516 0h-94l-204 229h-51v-229h-75v540h224q90 0 139 -41.5t49 -114.5t-50.5 -114t-145.5 -41h-1zM309 474h-142v-180h142q120 0 120 90t-120 90z" />
    <glyph glyph-name="uni0157.sc" horiz-adv-x="547" 
d="M308 229h-1l209 -229h-94l-204 229h-51v-229h-75v540h224q90 0 139 -41.5t49 -114.5t-50.5 -114t-145.5 -41zM309 474h-142v-180h142q120 0 120 90t-120 90zM261 -240h-59l51 187h79z" />
    <glyph glyph-name="s.sc" horiz-adv-x="489" 
d="M232 -14q-92 0 -165 36l1 80q80 -48 165 -48q57 0 94 24t37 66q0 32 -26 56q-9 9 -28 18q-23 12 -67 27q-3 1 -10 4q-29 8 -37 12q-38 13 -67 30q-38 23 -50 45q-19 36 -19 70q0 73 57.5 110.5t138.5 37.5q77 0 148 -34l-1 -78q-72 45 -146 45q-51 0 -85.5 -20.5
t-34.5 -58.5q0 -26 21 -47q7 -6 27 -16q28 -14 69 -28q1 0 3.5 -1t3.5 -1l11 -4l35 -12q42 -13 65 -30q69 -41 69 -120q0 -82 -61 -122.5t-148 -40.5z" />
    <glyph glyph-name="sacute.sc" horiz-adv-x="489" 
d="M274 605h-58l95 135h92zM232 -14q-92 0 -165 36l1 80q80 -48 165 -48q57 0 94 24t37 66q0 32 -26 56q-9 9 -28 18q-23 12 -67 27q-3 1 -10 4q-29 8 -37 12q-38 13 -67 30q-38 23 -50 45q-19 36 -19 70q0 73 57.5 110.5t138.5 37.5q77 0 148 -34l-1 -78q-72 45 -146 45
q-53 0 -86.5 -21t-33.5 -58q0 -26 21 -47q7 -6 27 -16q28 -14 69 -28q1 0 3.5 -1t3.5 -1l11 -4l35 -12q42 -13 65 -30q69 -41 69 -120q0 -82 -61 -122.5t-148 -40.5z" />
    <glyph glyph-name="scaron.sc" horiz-adv-x="489" 
d="M242 644l80 98h82l-125 -137h-73l-125 137h82zM232 -14q-92 0 -165 36l1 80q80 -48 165 -48q57 0 94 24t37 66q0 32 -26 56q-9 9 -28 18q-23 12 -67 27q-3 1 -10 4q-29 8 -37 12q-38 13 -67 30q-38 23 -50 45q-19 36 -19 70q0 73 57.5 110.5t138.5 37.5q77 0 148 -34
l-1 -78q-72 45 -146 45q-51 0 -85.5 -20.5t-34.5 -58.5q0 -26 21 -47q7 -6 27 -16q28 -14 69 -28q1 0 3.5 -1t3.5 -1l11 -4l35 -12q42 -13 65 -30q69 -41 69 -120q0 -82 -61 -122.5t-148 -40.5z" />
    <glyph glyph-name="scedilla.sc" horiz-adv-x="489" 
d="M441 149q0 -75 -52 -115q-49 -39 -128 -47l-18 -34q20 2 28 2q38 0 60.5 -17t22.5 -52q0 -42 -28 -64.5t-75 -22.5q-39 0 -78 15v52q40 -20 73 -20q23 0 37.5 10.5t14.5 30.5q0 39 -58 39q-20 0 -49 -9l34 69q-89 2 -158 36l1 80q80 -48 165 -48q57 0 94 24t37 66
q0 32 -26 56q-9 9 -28 18q-23 12 -67 27q-3 1 -10 4q-29 8 -37 12q-38 13 -67 30q-38 23 -50 45q-19 36 -19 70q0 73 57.5 110.5t138.5 37.5q77 0 148 -34l-1 -78q-72 45 -146 45q-51 0 -85.5 -20.5t-34.5 -58.5q0 -42 56 -68q10 -4 68 -25l11 -4q40 -13 59 -22
q25 -9 54 -29q56 -38 56 -111z" />
    <glyph glyph-name="scircumflex.sc" horiz-adv-x="489" 
d="M282 742l124 -137h-82l-79 98l-80 -98h-81l125 137h73zM232 -14q-92 0 -165 36l1 80q80 -48 165 -48q57 0 94 24t37 66q0 32 -26 56q-9 9 -28 18q-23 12 -67 27q-3 1 -10 4q-29 8 -37 12q-38 13 -67 30q-38 23 -50 45q-19 36 -19 70q0 73 57.5 110.5t138.5 37.5
q77 0 148 -34l-1 -78q-72 45 -146 45q-51 0 -85.5 -20.5t-34.5 -58.5q0 -26 21 -47q7 -6 27 -16q28 -14 69 -28q1 0 3.5 -1t3.5 -1l11 -4l35 -12q42 -13 65 -30q69 -41 69 -120q0 -82 -61 -122.5t-148 -40.5z" />
    <glyph glyph-name="uni0219.sc" horiz-adv-x="489" 
d="M232 -14q-92 0 -165 36l1 80q80 -48 165 -48q57 0 94 24t37 66q0 32 -26 56q-9 9 -28 18q-23 12 -67 27q-3 1 -10 4q-29 8 -37 12q-38 13 -67 30q-38 23 -50 45q-19 36 -19 70q0 73 57.5 110.5t138.5 37.5q77 0 148 -34l-1 -78q-72 45 -146 45q-51 0 -85.5 -20.5
t-34.5 -58.5q0 -26 21 -47q7 -6 27 -16q28 -14 69 -28q1 0 3.5 -1t3.5 -1l11 -4l35 -12q42 -13 65 -30q69 -41 69 -120q0 -82 -61 -122.5t-148 -40.5zM219 -240h-60l51 187h80z" />
    <glyph glyph-name="germandbls.sc" horiz-adv-x="633" 
d="M416 320l10 -5q12 -4 14 -5q54 -21 83 -38q33 -19 48.5 -47.5t18.5 -75.5q0 -82 -57.5 -122.5t-137.5 -40.5q-83 0 -148 36v79q68 -47 150 -47q50 0 83.5 24.5t33.5 65.5q0 43 -36 66q-25 18 -80 39l-9 3l-36 14q-50 22 -66 34q-48 44 -48 94q0 68 75 103
q-89 0 -120 -21.5t-31 -84.5v-391h-75v395q0 37 7 62t28.5 49t68 36t118.5 12q90 0 193 -18v-67q-50 9 -79 9q-48 0 -77.5 -18.5t-29.5 -55.5q0 -33 30 -53q30 -17 69 -31z" />
    <glyph glyph-name="t.sc" horiz-adv-x="492" 
d="M29 540h434v-67h-179v-473h-76v473h-179v67z" />
    <glyph glyph-name="tbar.sc" horiz-adv-x="560" 
d="M497 540v-67h-180v-185h174v-61h-174v-227h-75v227h-174v61h174v185h-179v67h434z" />
    <glyph glyph-name="tcaron.sc" horiz-adv-x="492" 
d="M244 644l79 98h82l-125 -137h-72l-125 137h81zM29 540h434v-67h-179v-473h-76v473h-179v67z" />
    <glyph glyph-name="uni021B.sc" horiz-adv-x="492" 
d="M29 540h434v-67h-179v-473h-76v473h-179v67zM215 -240h-59l51 187h79z" />
    <glyph glyph-name="u.sc" horiz-adv-x="639" 
d="M83 204v336h75v-334q0 -67 42 -107.5t119 -40.5t119.5 40t42.5 108v334h75v-336q0 -102 -66 -160q-64 -58 -171 -58q-106 0 -171 58q-65 59 -65 160z" />
    <glyph glyph-name="uacute.sc" horiz-adv-x="639" 
d="M349 605h-59l96 135h91zM83 204v336h75v-334q0 -67 42 -107.5t119 -40.5t119.5 40t42.5 108v334h75v-336q0 -102 -66 -160q-64 -58 -171 -58q-106 0 -171 58q-65 59 -65 160z" />
    <glyph glyph-name="ubreve.sc" horiz-adv-x="639" 
d="M319 590q-67 0 -107 41t-40 110h54q0 -40 24.5 -65t68.5 -25t69 24.5t25 65.5h54q0 -69 -40.5 -110t-107.5 -41zM83 204v336h75v-334q0 -67 42 -107.5t119 -40.5t119.5 40t42.5 108v334h75v-336q0 -102 -66 -160q-64 -58 -171 -58q-106 0 -171 58q-65 59 -65 160z" />
    <glyph glyph-name="ucircumflex.sc" horiz-adv-x="639" 
d="M356 742l125 -137h-82l-80 98l-79 -98h-82l125 137h73zM83 204v336h75v-334q0 -67 42 -107.5t119 -40.5t119.5 40t42.5 108v334h75v-336q0 -102 -66 -160q-64 -58 -171 -58q-106 0 -171 58q-65 59 -65 160z" />
    <glyph glyph-name="udieresis.sc" horiz-adv-x="639" 
d="M223 726q24 0 41 -16.5t17 -39.5q0 -24 -17 -41t-41 -17q-23 0 -39.5 17t-16.5 41q0 23 16.5 39.5t39.5 16.5zM414 726q24 0 41 -16.5t17 -39.5q0 -24 -17 -41t-41 -17q-23 0 -39.5 17t-16.5 41q0 23 16.5 39.5t39.5 16.5zM83 204v336h75v-334q0 -67 42 -107.5t119 -40.5
t119.5 40t42.5 108v334h75v-336q0 -102 -66 -160q-64 -58 -171 -58q-106 0 -171 58q-65 59 -65 160z" />
    <glyph glyph-name="ugrave.sc" horiz-adv-x="639" 
d="M349 605h-59l-128 135h91zM83 204v336h75v-334q0 -67 42 -107.5t119 -40.5t119.5 40t42.5 108v334h75v-336q0 -102 -66 -160q-64 -58 -171 -58q-106 0 -171 58q-65 59 -65 160z" />
    <glyph glyph-name="uhungarumlaut.sc" horiz-adv-x="639" 
d="M286 605h-56l50 135h89zM411 605h-57l83 135h89zM83 204v336h75v-334q0 -67 42 -107.5t119 -40.5t119.5 40t42.5 108v334h75v-336q0 -102 -66 -160q-64 -58 -171 -58q-106 0 -171 58q-65 59 -65 160z" />
    <glyph glyph-name="umacron.sc" horiz-adv-x="639" 
d="M164 683h310v-63h-310v63zM83 204v336h75v-334q0 -68 42.5 -108t118.5 -40q77 0 119.5 40t42.5 108v334h75v-336q0 -102 -66 -160q-64 -58 -171 -58q-106 0 -171 58q-65 59 -65 160z" />
    <glyph glyph-name="uogonek.sc" horiz-adv-x="639" 
d="M481 206v334h75v-336q0 -79 -41 -132.5t-114 -74.5q-80 -43 -80 -98q0 -39 43 -39q27 0 50 20v-58q-32 -17 -63 -17q-40 0 -63 22t-23 55q0 60 79 105q-8 -1 -25 -1q-106 0 -171 58q-65 59 -65 160v336h75v-334q0 -67 42 -107.5t119 -40.5t119.5 40t42.5 108z" />
    <glyph glyph-name="uring.sc" horiz-adv-x="639" 
d="M394 609q-31 -31 -75 -31t-75 31t-31 75t31 75t75 31t75 -31q32 -31 32 -75t-32 -75zM281 646q16 -15 38.5 -15t37.5 15q15 16 15 38t-15 37q-15 16 -37.5 16t-38.5 -16q-15 -15 -15 -37t15 -38zM83 204v336h75v-334q0 -67 42 -107.5t119 -40.5t119.5 40t42.5 108v334h75
v-336q0 -102 -66 -160q-64 -58 -171 -58q-106 0 -171 58q-65 59 -65 160z" />
    <glyph glyph-name="utilde.sc" horiz-adv-x="639" 
d="M430 718h47q0 -47 -23 -81.5t-64 -34.5q-27 0 -73 29.5t-60 29.5q-43 0 -48 -59h-48q0 45 25 80q26 36 69 36q27 0 72 -29.5t57 -29.5q40 0 46 59zM83 204v336h75v-334q0 -67 42 -107.5t119 -40.5t119.5 40t42.5 108v334h75v-336q0 -102 -66 -160q-64 -58 -171 -58
q-106 0 -171 58q-65 59 -65 160z" />
    <glyph glyph-name="v.sc" horiz-adv-x="575" 
d="M288 115l183 425h80l-243 -543h-41l-243 543h80z" />
    <glyph glyph-name="w.sc" horiz-adv-x="806" 
d="M567 139l134 401h81l-193 -545h-41l-145 409l-144 -409h-41l-193 545h80l134 -401l144 406h41z" />
    <glyph glyph-name="wacute.sc" horiz-adv-x="806" 
d="M470 740h91l-128 -135h-59zM567 139l134 401h81l-193 -545h-41l-145 409l-144 -409h-41l-193 545h80l134 -401l144 406h41z" />
    <glyph glyph-name="wcircumflex.sc" horiz-adv-x="806" 
d="M483 605l-79 98l-80 -98h-82l125 137h73l125 -137h-82zM567 139l134 401h81l-193 -545h-41l-145 409l-144 -409h-41l-193 545h80l134 -401l144 406h41z" />
    <glyph glyph-name="wdieresis.sc" horiz-adv-x="806" 
d="M308 612q-23 0 -40 17.5t-17 40.5t17 39.5t40 16.5t40 -16.5t17 -39.5q0 -24 -17 -41t-40 -17zM499 612q-24 0 -40.5 17t-16.5 41q0 23 16.5 39.5t40.5 16.5q23 0 40 -16.5t17 -39.5q0 -24 -17 -41t-40 -17zM567 139l134 401h81l-193 -545h-41l-145 409l-144 -409h-41
l-193 545h80l134 -401l144 406h41z" />
    <glyph glyph-name="wgrave.sc" horiz-adv-x="806" 
d="M338 740l95 -135h-59l-128 135h92zM567 139l134 401h81l-193 -545h-41l-145 409l-144 -409h-41l-193 545h80l134 -401l144 406h41z" />
    <glyph glyph-name="x.sc" horiz-adv-x="543" 
d="M313 275l204 -275h-87l-159 229l-157 -229h-87l202 275l-193 265h87l149 -220l147 220h87z" />
    <glyph glyph-name="y.sc" horiz-adv-x="564" 
d="M282 264l174 276h81l-218 -341v-199h-74v199l-217 341h80z" />
    <glyph glyph-name="yacute.sc" horiz-adv-x="564" 
d="M348 740h92l-129 -135h-58zM282 264l174 276h81l-218 -341v-199h-74v199l-217 341h80z" />
    <glyph glyph-name="ycircumflex.sc" horiz-adv-x="564" 
d="M361 605l-79 98l-80 -98h-81l125 137h72l125 -137h-82zM282 264l174 276h81l-218 -341v-199h-74v199l-217 341h80z" />
    <glyph glyph-name="ydieresis.sc" horiz-adv-x="564" 
d="M186 612q-23 0 -39.5 17.5t-16.5 40.5t16.5 39.5t39.5 16.5t40.5 -16.5t17.5 -39.5q0 -24 -17 -41t-41 -17zM377 612q-23 0 -40 17t-17 41q0 23 17 39.5t40 16.5q24 0 40.5 -16.5t16.5 -39.5q0 -24 -16.5 -41t-40.5 -17zM282 264l174 276h81l-218 -341v-199h-74v199
l-217 341h80z" />
    <glyph glyph-name="ygrave.sc" horiz-adv-x="564" 
d="M216 740l95 -135h-58l-129 135h92zM282 264l174 276h81l-218 -341v-199h-74v199l-217 341h80z" />
    <glyph glyph-name="z.sc" horiz-adv-x="513" 
d="M49 540h426v-6l-325 -467h316v-67h-434v6l324 467h-308z" />
    <glyph glyph-name="zacute.sc" horiz-adv-x="513" 
d="M327 740h91l-128 -135h-58zM49 540h426v-6l-325 -467h316v-67h-434v6l324 467h-308z" />
    <glyph glyph-name="zcaron.sc" horiz-adv-x="513" 
d="M420 742l-125 -137h-73l-125 137h81l80 -98l79 98h83zM49 540h426v-6l-325 -467h316v-67h-434v6l324 467h-308z" />
    <glyph glyph-name="zdotaccent.sc" horiz-adv-x="513" 
d="M260 614q-23 0 -40 17.5t-17 40.5t17 39.5t40 16.5t40 -16.5t17 -39.5q0 -24 -16.5 -41t-40.5 -17zM49 540h426v-6l-325 -467h316v-67h-434v6l324 467h-308z" />
    <glyph glyph-name="a.sc.swsh" horiz-adv-x="629" 
d="M12 0l494 543h44v-543h-74v135h-250l-122 -135h-92zM476 413l-192 -213h192v213z" />
    <glyph glyph-name="t.sc.swsh" horiz-adv-x="376" 
d="M27 540h254v-540h-74v473h-180v67z" />
    <glyph glyph-name="v.sc.swsh" horiz-adv-x="653" 
d="M487 127v413h74v-543h-41l-498 543h89z" />
    <glyph glyph-name="w.sc.swsh" horiz-adv-x="931" 
d="M762 125v415h74v-543h-40l-235 256v-256h-41l-498 543h89l380 -418v206l-194 212h87l107 -118v118h70v-194z" />
    <glyph glyph-name="a.sc.titl" horiz-adv-x="629" 
d="M617 0h-92l-122 135h-250v-135h-74v543h43zM153 412v-212h191z" />
    <glyph glyph-name="t.sc.titl" horiz-adv-x="353" 
d="M158 0h-75v540h247v-67h-172v-473z" />
    <glyph glyph-name="v.sc.titl" horiz-adv-x="653" 
d="M166 127l375 413h90l-499 -543h-40v543h74v-413z" />
    <glyph glyph-name="w.sc.titl" horiz-adv-x="916" 
d="M426 123l380 417h89l-499 -543h-40v244l-224 -244h-40v543h74v-415l190 209v206h70v-129l117 129h88l-205 -223v-194z" />
    <glyph glyph-name="a.dnom" horiz-adv-x="446" 
d="M203 -8q-72 0 -119 50q-46 50 -46 126t46 125q46 51 119 51q77 0 125 -58h2l10 50h42v-336h-42l-10 51h-2q-47 -59 -125 -59zM211 50q46 0 78 32q32 34 32 80v12q0 47 -32 79q-31 33 -78 33q-48 0 -78.5 -33.5t-30.5 -84.5t30.5 -84.5t78.5 -33.5z" />
    <glyph glyph-name="b.dnom" horiz-adv-x="446" 
d="M243 -8q-78 0 -125 59h-2l-10 -51h-42v511h64v-172l-1 -49h2q43 54 117 54q71 0 116 -51q46 -50 46 -125q0 -74 -47 -126q-47 -50 -118 -50zM236 50q48 0 78 33.5t30 84.5t-30 84.5t-78 33.5q-47 0 -79 -32.5t-32 -79.5v-12q0 -47 32 -79.5t79 -32.5z" />
    <glyph glyph-name="c.dnom" horiz-adv-x="360" 
d="M219 -8q-84 0 -134 50q-49 50 -49 126t49 125q49 51 134 51q54 0 92 -23v-63q-43 28 -92 28q-55 0 -86.5 -33t-31.5 -85t31.5 -85t86.5 -33q49 0 92 28v-63q-38 -23 -92 -23z" />
    <glyph glyph-name="d.dnom" horiz-adv-x="446" 
d="M203 -8q-72 0 -119 50q-46 50 -46 126q0 74 45 125q47 51 118 51q36 0 68 -16t48 -38h2l-2 49v172h65v-511h-42l-10 51h-2q-47 -59 -125 -59zM211 50q46 0 78 32q32 34 32 80v12q0 47 -32 79q-31 33 -78 33q-48 0 -78.5 -33.5t-30.5 -84.5t30.5 -84.5t78.5 -33.5z" />
    <glyph glyph-name="e.dnom" horiz-adv-x="398" 
d="M206 344q77 0 118.5 -52t29.5 -146h-249q3 -46 34 -72.5t85 -26.5q62 0 112 34v-59q-46 -30 -116 -30q-83 0 -132 47t-49 129q0 76 45 126q47 50 122 50zM206 294q-44 0 -71 -27.5t-30 -73.5h193q-1 48 -25.5 74.5t-66.5 26.5z" />
    <glyph glyph-name="f.dnom" horiz-adv-x="287" 
d="M207 472q-25 0 -36.5 -13t-11.5 -45v-78h108v-55h-108l1 -281h-66v281h-67v55h67v84q0 49 24 79t75 30q40 0 74 -18v-61q-32 22 -60 22z" />
    <glyph glyph-name="g.dnom" horiz-adv-x="446" 
d="M203 -166q-77 0 -127 35v62q59 -41 123 -41q58 0 89 29t31 82v45h-2q-17 -23 -47.5 -38.5t-66.5 -15.5q-73 0 -119 51q-46 50 -46 125q0 76 46 125q46 51 119 51q77 0 125 -58h2l10 50h42v-331q0 -81 -47.5 -126t-131.5 -45zM211 50q46 0 78 32q32 34 32 80v12
q0 47 -32 79q-31 33 -78 33q-48 0 -78.5 -33.5t-30.5 -84.5t30.5 -84.5t78.5 -33.5z" />
    <glyph glyph-name="h.dnom" horiz-adv-x="432" 
d="M128 0h-64v511h64v-172l-1 -56h1q48 61 118 61q67 0 97.5 -42t30.5 -100v-202h-65v199q0 88 -74 88q-45 0 -76 -34t-31 -86v-167z" />
    <glyph glyph-name="i.dnom" horiz-adv-x="186" 
d="M93 492q20 0 32 -12t12 -30q0 -19 -12 -31t-32 -12t-32 12t-12 31q0 18 12.5 30t31.5 12zM61 336h64v-336h-64v336z" />
    <glyph glyph-name="j.dnom" horiz-adv-x="176" 
d="M82 407q-31 0 -41.5 27t9.5 46q20 20 48 8.5t28 -38.5q0 -19 -12.5 -31t-31.5 -12zM23 -159q-30 0 -53 10v55q40 -16 61 -2t19 53v379h64v-388q0 -107 -91 -107z" />
    <glyph glyph-name="k.dnom" horiz-adv-x="366" 
d="M345 0h-74l-123 144h-19v-144h-65v511h65v-312h17l118 137h74l-142 -163z" />
    <glyph glyph-name="l.dnom" horiz-adv-x="192" 
d="M64 511h64v-511h-64v511z" />
    <glyph glyph-name="m.dnom" horiz-adv-x="665" 
d="M481 344q66 0 96 -44t30 -98v-202h-65v199q0 88 -74 88q-41 0 -71 -34.5t-30 -85.5v-167h-64v199q0 88 -74 88q-39 0 -71 -35q-30 -34 -30 -85v-167h-64v336h42l14 -60h1q50 68 121 68q82 0 112 -73q52 73 127 73z" />
    <glyph glyph-name="n.dnom" horiz-adv-x="432" 
d="M246 344q67 0 97.5 -42t30.5 -100v-202h-65v199q0 88 -74 88q-45 0 -76 -34t-31 -86v-167h-64v336h42l14 -60h1q48 68 125 68z" />
    <glyph glyph-name="o.dnom" horiz-adv-x="426" 
d="M339 43q-49 -51 -127 -51q-76 0 -126 51q-50 52 -50 125t50 125q50 51 126 51q78 0 127 -51q50 -52 50 -125t-50 -125zM213 52q48 0 80 33.5t32 82.5t-32 82.5t-80 33.5t-80 -33.5t-32 -82.5t32 -82.5t80 -33.5z" />
    <glyph glyph-name="p.dnom" horiz-adv-x="446" 
d="M128 -161h-64v497h42l10 -50h2q49 58 125 58q71 0 118 -51q47 -50 47 -125q0 -73 -47 -125q-47 -51 -118 -51t-114 54h-2l1 -49v-158zM236 50q48 0 78 33.5t30 84.5t-30 84.5t-78 33.5q-47 0 -79 -32.5t-32 -79.5v-12q0 -47 32 -79.5t79 -32.5z" />
    </font>
</defs>
</svg>
